SplineFontDB: 3.2
FontName: MFEKSansUltraCondensed-Black
FullName: MFEK Sans Ultra Condensed Black
FamilyName: MFEK Sans Ultra Condensed
Weight: Black
Copyright: 
Version: 0.1
ItalicAngle: 0
UnderlinePosition: -200
UnderlineWidth: 100
Ascent: 1600
Descent: 400
InvalidEm: 0
LayerCount: 2
Layer: 0 0 "Back" 1
Layer: 1 0 "Fore" 0
XUID: [1021 31 -699969567 16487490]
FSType: 0
OS2Version: 0
OS2_WeightWidthSlopeOnly: 0
OS2_UseTypoMetrics: 1
CreationTime: 1460762150
ModificationTime: 1688473402
PfmFamily: 33
TTFWeight: 900
TTFWidth: 1
LineGap: 0
VLineGap: 0
OS2TypoAscent: 2500
OS2TypoAOffset: 0
OS2TypoDescent: -850
OS2TypoDOffset: 0
OS2TypoLinegap: 0
OS2WinAscent: 2500
OS2WinAOffset: 0
OS2WinDescent: 850
OS2WinDOffset: 0
HheadAscent: 2500
HheadAOffset: 0
HheadDescent: -850
HheadDOffset: 0
OS2CapHeight: 1500
OS2XHeight: 1040
OS2FamilyClass: 2053
OS2Vendor: 'it* '
OS2UnicodeRanges: 00000001.00000000.00000000.00000000
Lookup: 258 0 0 "kerning yeah boi" { "say cheese" [300,0,4] } ['kern' ('DFLT' <'dflt' > 'grek' <'dflt' > 'latn' <'dflt' > ) ]
MarkAttachClasses: 1
DEI: 91125
KernClass2: 30 23 "say cheese"
 73 A Agrave Aacute Acircumflex Atilde Adieresis Aring Amacron Abreve Aogonek
 96 D O Ograve Oacute Ocircumflex Otilde Odieresis Oslash Dcaron Dcroat Omacron Obreve Ohungarumlaut
 81 E AE Egrave Eacute Ecircumflex Edieresis Emacron Ebreve Edotaccent Eogonek Ecaron
 1 F
 39 G Gcircumflex Gbreve Gdotaccent uni0122
 104 J U Ugrave Uacute Ucircumflex Udieresis IJ Jcircumflex Utilde Umacron Ubreve Uring Uhungarumlaut Uogonek
 11 K X uni0136
 23 L Lacute uni013B Lslash
 1 P
 1 Q
 23 R Racute uni0156 Rcaron
 36 S Sacute Scircumflex Scedilla Scaron
 21 T uni0162 Tcaron Tbar
 1 V
 53 W Wcircumflex Wgrave Wacute Wdieresis uni1E86 uni1E88
 30 Y Ycircumflex Ydieresis Ygrave
 26 Z Zacute Zdotaccent Zcaron
 73 a agrave aacute acircumflex atilde adieresis aring amacron abreve aogonek

StartChar: ampersand
Encoding: 38 38 0
Width: 851
VWidth: 1920
Flags: HMW
LayerCount: 2
Fore
SplineSet
467 155 m 2
 193 1034 l 2
 164.143554688 1132.32617188 153 1201 153 1257 c 0
 153 1342 213 1417 387 1417 c 0
 575 1417 634 1336 634 1221 c 0
 634 1077 458.618164062 942.092773438 348 885 c 0
 286 853 255 763 255 691 c 0
 255 641 261.522783653 616.678358069 284 546 c 2
 379 246 l 2
 390.729888384 208.958247207 402 198 423 198 c 0
 544 198 581.193887062 440.328011437 621 537 c 0
 656 622 678 656 732 656 c 2
 737 656 l 2
 791 656 838 614 801 535 c 0
 704.626806062 329.230207537 539 -17 335 -17 c 0
 207 -17 173.092191191 58.1255834293 121 210 c 2
 50 417 l 2
 19.4674541284 504.896722964 10 583 10 651 c 0
 10 775 119.52734375 907.689453125 313 988 c 0
 426.284179688 1035.02441406 457 1180 457 1230 c 0
 457 1262 439 1275 421 1275 c 0
 403 1275 389 1258 389 1231 c 0
 389 1207 403.649414062 1155.45996094 418 1105 c 2
 722 155 l 2
 763.985486212 23.7953555878 702 -15 628 -15 c 2
 623 -15 l 2
 549 -15 508.089155933 23.1847880838 467 155 c 2
EndSplineSet
EndChar

StartChar: period
Encoding: 46 46 1
Width: 400
VWidth: 1920
Flags: HMW
LayerCount: 2
Fore
SplineSet
208 -17 m 6
 192 -17 l 6
 108 -17 52 24 52 138 c 6
 52 222 l 6
 52 336 108 377 192 377 c 6
 208 377 l 6
 292 377 348 336 348 222 c 6
 348 138 l 6
 348 24 292 -17 208 -17 c 6
EndSplineSet
EndChar

StartChar: zero
Encoding: 48 48 2
Width: 615
VWidth: 1920
Flags: HMW
LayerCount: 2
Fore
SplineSet
25 244 m 262
 25 1155 l 262
 25 1318 107 1417 308 1417 c 260
 509 1417 590 1318 590 1155 c 262
 590 244 l 262
 590 81 509 -18 308 -18 c 260
 107 -18 25 81 25 244 c 262
270 254 m 262
 270 180 276 152 308 152 c 260
 340 152 345 180 345 254 c 262
 345 1145 l 262
 345 1219 340 1247 308 1247 c 260
 276 1247 270 1219 270 1145 c 262
 270 254 l 262
EndSplineSet
EndChar

StartChar: one
Encoding: 49 49 3
Width: 320
VWidth: 1920
Flags: HMW
LayerCount: 2
Fore
SplineSet
80 1362 m 260
 109 1372 118 1376 136 1398 c 260
 155 1421 178 1425 201 1425 c 262
 203 1425 l 262
 251 1425 282 1393 282 1325 c 262
 282 125 l 262
 282 37 236 -5 162 -5 c 262
 158 -5 l 262
 84 -5 38 37 38 125 c 262
 38 1272 l 262
 38 1325 53 1352 80 1362 c 260
EndSplineSet
EndChar

StartChar: two
Encoding: 50 50 4
Width: 580
VWidth: 1920
Flags: HMW
LayerCount: 2
Fore
SplineSet
25 140 m 262
 25 492 308 588 308 937 c 262
 308 1159 l 262
 308 1219 305 1243 287 1243 c 260
 270 1243 268 1217 268 1161 c 262
 268 967 l 6
 268 853 236 797 152 797 c 6
 142 797 l 6
 58 797 28 853 28 967 c 6
 28 1131 l 262
 28 1298 102 1417 300 1417 c 260
 464 1417 548 1311 548 1151 c 262
 548 999 l 262
 548 591 260 416 260 190 c 262
 260 185 l 261
 410 185 l 6
 514 185 580 169 580 95 c 6
 580 90 l 6
 580 16 514 -1.27363267111e-14 410 0 c 6
 170 0 l 6
 56 0 25 71 25 135 c 6
 25 140 l 262
EndSplineSet
EndChar

StartChar: three
Encoding: 51 51 5
Width: 576
VWidth: 1920
Flags: HMW
LayerCount: 2
Fore
SplineSet
136 472 m 6
 151 472 l 6
 215 472 266 425 266 301 c 6
 266 264 l 6
 266 204 266 158 290 158 c 4
 314 158 314 196 314 261 c 6
 314 544 l 6
 314 589 309 620 261 620 c 6
 260 620 l 6
 226 620 181 641 181 705 c 6
 181 710 l 6
 181 774 216 795 250 795 c 6
 251 795 l 6
 294 795 306 816 306 856 c 6
 306 1154 l 6
 306 1214 303 1241 281 1241 c 4
 260 1241 258 1206 258 1155 c 6
 258 1117 l 6
 258 993 218 937 144 937 c 6
 134 937 l 6
 60 937 18 993 18 1117 c 6
 18 1185 l 6
 18 1302 82 1417 286 1417 c 4
 490 1417 554 1297 554 1182 c 6
 554 919 l 6
 554 754 459 700 281 700 c 5
 291 725 l 5
 469 725 558 676 558 501 c 6
 558 264 l 6
 558 94 489 -18 261 -18 c 4
 65 -18 21 85 21 234 c 6
 21 301 l 6
 21 425 72 472 136 472 c 6
EndSplineSet
EndChar

StartChar: four
Encoding: 52 52 6
Width: 575
VWidth: 1920
Flags: HMW
LayerCount: 2
Fore
SplineSet
590 415 m 6
 590 410 l 6
 590 336 544 325 490 325 c 6
 480 325 l 261
 480 155 l 6
 480 31 429 -15 355 -15 c 6
 350 -15 l 6
 276 -15 235 31 235 155 c 6
 235 325 l 261
 165 325 l 6
 31 325 -5 356 -5 430 c 6
 -5 435 l 6
 -5 479 4.80615794441 528.686710724 39 665 c 6
 187 1255 l 6
 211.415533497 1352.37987349 256 1415 340 1415 c 6
 365 1415 l 6
 449 1415 480 1349 480 1245 c 6
 480 500 l 261
 490 500 l 6
 544 500 590 489 590 415 c 6
240 500 m 261
 240 1000 l 261
 142 500 l 261
 240 500 l 261
EndSplineSet
EndChar

StartChar: five
Encoding: 53 53 7
Width: 600
VWidth: 1920
Flags: HMW
LayerCount: 2
Fore
SplineSet
145 379 m 6
 150 379 l 6
 243 379 260 352.162109375 265 259 c 4
 268.697900298 190.099161592 274 152 298 152 c 4
 327 152 330 193 330 379 c 6
 330 631 l 6
 330 721 328 753 306 753 c 4
 280 753 284.162392996 722.714951229 278 658 c 4
 268.917165489 562.615756762 243 538 160 538 c 6
 155 538 l 6
 91 538 42.60109632 593.416829993 50 707 c 6
 87 1275 l 6
 93.7178391178 1377.62571248 146 1400 250 1400 c 6
 420 1400 l 6
 504 1400 546 1379 546 1325 c 6
 546 1322 l 6
 546 1262 520 1225 410 1225 c 6
 283 1225 l 5
 240 694 l 5
 229 694 l 5
 236 866 290 929 400 929 c 4
 520 929 575 865 575 651 c 6
 575 379 l 6
 575 85 483 -18 278 -18 c 4
 111 -18 50.5006101667 75.3216574413 37 259 c 4
 30.826171875 342.99609375 51 379 145 379 c 6
EndSplineSet
EndChar

StartChar: six
Encoding: 54 54 8
Width: 591
VWidth: 1920
Flags: HMW
LayerCount: 2
Fore
SplineSet
297 669 m 260
 272 669 267 642 267 540 c 262
 267 510 l 261
 222 550 l 261
 222 682 269 794 387 794 c 260
 531 794 571 694 571 517 c 262
 571 266 l 262
 571 67 497 -16 301 -16 c 260
 83 -16 25 86 25 326 c 262
 25 1121 l 262
 25 1311 98 1417 292 1417 c 260
 490 1417 554 1317 554 1145 c 262
 554 1055 l 6
 554 931 513 885 439 885 c 6
 434 885 l 6
 360 885 319 931 319 1055 c 6
 319 1125 l 262
 319 1191 319 1241 293 1241 c 260
 268 1241 267 1193 267 1118 c 262
 267 293 l 262
 267 188 273 160 297 160 c 260
 327 160 327 190 327 290 c 262
 327 527 l 262
 327 629 322 669 297 669 c 260
EndSplineSet
EndChar

StartChar: seven
Encoding: 55 55 9
Width: 521
VWidth: 1920
Flags: HMW
LayerCount: 2
Back
SplineSet
529.685827628 1395 m 14
 339.685827628 5 l 22
 339.041131077 0.283535758593 206.71875 -15 201.685546875 -15 c 14
 197.685546875 -15 l 22
 192.7734375 -15 72.872985911 1.1023573404 73.685827628 5 c 14
 317.685827628 1175 l 29
 191.685546875 1175 l 22
 187.900390625 1175 22.685546875 1280.546875 22.685546875 1285 c 14
 22.685546875 1290 l 22
 22.685546875 1294.453125 187.900390625 1400 191.685546875 1400 c 14
 525.685546875 1400 l 22
 529.646484375 1400 530.202385528 1398.77902885 529.685827628 1395 c 14
EndSplineSet
Fore
SplineSet
507.685546875 1235 m 14
 359.685546875 155 l 22
 345.582155298 52.1283725074 296.71875 -15 211.685546875 -15 c 14
 207.685546875 -15 l 22
 122.7734375 -15 82.7722178248 55.3197773567 103.685546875 155 c 14
 317.685827628 1175 l 29
 191.685546875 1175 l 22
 77.900390625 1175 22.685546875 1210.546875 22.685546875 1285 c 14
 22.685546875 1290 l 22
 22.685546875 1374.453125 77.900390625 1400 191.685546875 1400 c 14
 375.685546875 1400 l 22
 489.646484375 1400 522.999640283 1346.75149244 507.685546875 1235 c 14
EndSplineSet
EndChar

StartChar: eight
Encoding: 56 56 10
Width: 630
VWidth: 1920
Flags: HMW
LayerCount: 2
Back
SplineSet
222 55 m 260
 287 55 290 98 290 171 c 262
 290 554 l 262
 290 628 287 670 222 670 c 260
 157 670 154 628 154 554 c 262
 154 171 l 262
 154 98 157 55 222 55 c 260
222 745 m 260
 257 745 281 784 281 852 c 262
 281 1243 l 262
 281 1306 256 1344 222 1344 c 260
 188 1344 165 1306 165 1243 c 262
 165 852 l 262
 165 784 187 745 222 745 c 260
238 720 m 261
 378 720 386 652 386 536 c 262
 386 174 l 262
 386 50 376 -18 222 -18 c 260
 68 -18 60 50 60 174 c 262
 60 536 l 262
 60 652 67 720 207 720 c 261
 208 700 l 261
 95 703 69 759 69 869 c 262
 69 1241 l 262
 69 1352 88 1417 222 1417 c 260
 356 1417 375 1352 375 1241 c 262
 375 869 l 262
 375 759 350 703 237 700 c 261
 238 720 l 261
EndSplineSet
Fore
SplineSet
316 155 m 260
 346 155 354 178 354 216 c 262
 354 567 l 262
 354 606 346 629 316 629 c 260
 286 629 278 606 278 567 c 262
 278 216 l 262
 278 178 286 155 316 155 c 260
316 804 m 260
 341 804 348 823 348 851 c 262
 348 1203 l 262
 348 1226 340 1244 316 1244 c 260
 292 1244 282 1226 282 1203 c 262
 282 851 l 262
 282 823 291 804 316 804 c 260
331 729 m 261
 546 729 598 641 598 495 c 262
 598 224 l 262
 598 70 545 -18 316 -18 c 260
 112 -18 32 70 32 224 c 262
 32 495 l 262
 32 641 110 729 300 729 c 261
 301 709 l 261
 118 712 38 788 38 948 c 262
 38 1171 l 262
 38 1332 132 1417 316 1417 c 260
 525 1417 594 1332 594 1171 c 262
 594 948 l 262
 594 788 538 712 330 709 c 261
 331 729 l 261
EndSplineSet
EndChar

StartChar: nine
Encoding: 57 57 11
Width: 591
VWidth: 1920
Flags: HMW
LayerCount: 2
Fore
SplineSet
294 731 m 260
 319 731 324 758 324 860 c 262
 324 890 l 261
 369 850 l 261
 369 718 322 606 204 606 c 260
 60 606 20 706 20 883 c 262
 20 1134 l 262
 20 1333 94 1416 290 1416 c 260
 508 1416 566 1314 566 1074 c 262
 566 279 l 262
 566 89 493 -17 299 -17 c 260
 101 -17 27 83 27 255 c 262
 27 345 l 6
 27 469 68 515 142 515 c 6
 147 515 l 6
 221 515 262 469 262 345 c 6
 262 275 l 262
 262 209 262 159 293 159 c 260
 323 159 324 207 324 282 c 262
 324 1107 l 262
 324 1212 318 1240 294 1240 c 260
 264 1240 264 1210 264 1110 c 262
 264 873 l 262
 264 771 269 731 294 731 c 260
EndSplineSet
EndChar

StartChar: A
Encoding: 65 65 12
Width: 562
VWidth: 960
Flags: HMW
AnchorPoint: "ogonek" 424 0 basechar 0
AnchorPoint: "bottom" 251 0 basechar 0
AnchorPoint: "top" 286 1400 basechar 0
LayerCount: 2
Fore
SplineSet
144 520 m 5
 359 520 l 5
 359 395 l 5
 144 395 l 5
 144 520 l 5
270 1089 m 5
 199 125 l 6
 191.522688281 23.477063415 168 -15 94 -15 c 6
 84 -15 l 6
 12 -15 -8.21460583791 20.9935748903 3 125 c 6
 127 1275 l 6
 135.980240977 1358.24748935 174 1400 266 1400 c 6
 316 1400 l 6
 409 1400 446.043578059 1368.23488413 455 1275 c 6
 565 125 l 6
 574.573280384 24.9157050802 529 -15 454 -15 c 6
 444 -15 l 6
 372 -15 316.569810753 20.1119627092 312 125 c 6
 270 1089 l 5
EndSplineSet
EndChar

StartChar: B
Encoding: 66 66 13
Width: 600
VWidth: 960
Flags: HMW
AnchorPoint: "top" 262 1400 basechar 0
AnchorPoint: "bottom" 278 0 basechar 0
LayerCount: 2
Fore
SplineSet
280 770 m 257
 305 770 l 258
 328 770 338 794 338 869 c 258
 338 1126 l 258
 338 1201 333 1225 305 1225 c 258
 280 1225 l 257
 280 770 l 257
335 725 m 257
 463 725 592 656 592 461 c 258
 592 294 l 258
 592 84 503 -1.93494194265e-14 345 0 c 258
 160 0 l 258
 56 0 35 21 35 125 c 258
 35 1275 l 262
 35 1389 56 1400 160 1400 c 262
 335 1400 l 258
 493 1400 568 1307 568 1112 c 258
 568 959 l 258
 568 764 453 700 325 700 c 257
 335 725 l 257
310 645 m 258
 280 645 l 257
 280 175 l 257
 310 175 l 258
 338 175 342 203 342 278 c 258
 342 541 l 258
 342 616 338 645 310 645 c 258
EndSplineSet
EndChar

StartChar: C
Encoding: 67 67 14
Width: 560
VWidth: 960
Flags: HMW
AnchorPoint: "bottom" 288 0 basechar 0
AnchorPoint: "top" 297 1400 basechar 0
LayerCount: 2
Fore
SplineSet
550 503 m 260
 550 425.993506767 550 367 548 294 c 4
 543 98 455 -18 272 -18 c 260
 68 -18 25 109 25 349 c 262
 25 1042 l 262
 25 1272 68 1418 282 1418 c 260
 466 1418 533 1293 534 1074 c 4
 534 1042 535 1006 535 966 c 260
 535 892 519 847 445 847 c 262
 441 847 l 262
 367 847 351 892 350 966 c 260
 348 1129 352 1218 312 1218 c 260
 277 1218 275 1161 275 1046 c 262
 275 314 l 262
 275 214 279 182 312 182 c 260
 349 182 355 262 355 503 c 260
 355 587 376 623 450 623 c 262
 455 623 l 262
 529 623 550 587 550 503 c 260
EndSplineSet
EndChar

StartChar: D
Encoding: 68 68 15
Width: 620
VWidth: 960
Flags: HMW
AnchorPoint: "top" 282 1400 basechar 0
AnchorPoint: "bottom" 262 0 basechar 0
LayerCount: 2
Fore
SplineSet
283 0 m 258
 190 0 l 258
 46 0 35 11 35 155 c 258
 35 1245 l 262
 35 1389 46 1400 190 1400 c 262
 283 1400 l 258
 490 1400 595 1285 595 992 c 258
 595 409 l 258
 595 116 510 0 283 0 c 258
303 175 m 258
 335 175 345 220 345 404 c 258
 345 996 l 258
 345 1180 335 1225 303 1225 c 258
 280 1225 l 257
 280 175 l 257
 303 175 l 258
EndSplineSet
EndChar

StartChar: E
Encoding: 69 69 16
Width: 440
VWidth: 960
Flags: HMW
AnchorPoint: "ogonek" 350 0 basechar 0
AnchorPoint: "top" 292 1400 basechar 0
AnchorPoint: "bottom" 292 0 basechar 0
LayerCount: 2
Fore
SplineSet
280 770 m 257
 295 770 l 258
 369 770 385 754 385 710 c 258
 385 705 l 258
 385 661 369 645 295 645 c 258
 280 645 l 257
 280 175 l 257
 335 175 l 258
 409 175 455 164 455 90 c 258
 455 85 l 258
 455 11 409 -9.06238631369e-15 335 0 c 258
 190 0 l 258
 46 0 35 11 35 155 c 258
 35 1245 l 258
 35 1389 46 1400 190 1400 c 258
 325 1400 l 258
 399 1400 445 1389 445 1315 c 258
 445 1310 l 258
 445 1236 399 1225 325 1225 c 258
 280 1225 l 257
 280 770 l 257
EndSplineSet
EndChar

StartChar: F
Encoding: 70 70 17
Width: 435
VWidth: 960
Flags: HMW
AnchorPoint: "top" 272 1400 basechar 0
AnchorPoint: "bottom" 272 0 basechar 0
LayerCount: 2
Back
SplineSet
280 775 m 261
 370 775 l 262
 374 775 375 774 375 770 c 262
 375 655 l 262
 375 651 374 650 370 650 c 262
 280 650 l 261
 280 5 l 262
 280 1 279 0 275 0 c 262
 40 0 l 262
 36 0 35 1 35 5 c 262
 35 1395 l 262
 35 1399 36 1400 40 1400 c 262
 430 1400 l 262
 434 1400 435 1399 435 1395 c 262
 435 1230 l 262
 435 1226 434 1225 430 1225 c 262
 280 1225 l 261
 280 775 l 261
EndSplineSet
Fore
SplineSet
280 775 m 257
 290 775 l 258
 364 775 390 764 390 720 c 258
 390 705 l 258
 390 661 364 650 290 650 c 258
 280 650 l 257
 280 105 l 258
 280 21 244 -15 160 -15 c 258
 155 -15 l 258
 71 -15 35 21 35 105 c 258
 35 1245 l 258
 35 1389 46 1400 190 1400 c 258
 330 1400 l 258
 404 1400 450 1389 450 1315 c 258
 450 1310 l 258
 450 1236 404 1225 330 1225 c 258
 280 1225 l 257
 280 775 l 257
EndSplineSet
EndChar

StartChar: G
Encoding: 71 71 18
Width: 582
VWidth: 960
Flags: HMW
AnchorPoint: "top" 282 1400 basechar 0
AnchorPoint: "bottom" 322 0 basechar 0
LayerCount: 2
Fore
SplineSet
295 637 m 2
 295 640 l 2
 295 684 321 700 365 700 c 2
 415 700 l 2
 559 700 570 689 570 545 c 2
 570 105 l 2
 570 11 554 -15 510 -15 c 2
 505 -15 l 2
 461 -15 443.18 12.74 430 105 c 2
 405 280 l 1
 460 630 l 1
 450 245 446 -18 232 -18 c 0
 64 -18 25 119 25 409 c 2
 25 992 l 2
 25 1282 68 1418 282 1418 c 0
 468.267578125 1418 530.130859375 1296.29394531 531.26171875 1094 c 0
 531.543945312 1043.47949219 534.947978486 1007.95998425 535 957 c 0
 535.075540455 883.000992091 499 848 435 848 c 2
 430 848 l 2
 366 848 330.521062206 883.002491925 330 957 c 0
 328.323886452 1195.02959473 333 1228 300 1228 c 0
 277 1228 275 1181 275 996 c 2
 275 404 l 2
 275 224 278 172 316 172 c 0
 349 172 355 231 363 628 c 1
 424 578 l 1
 365 578 l 2
 322 578 295 593 295 637 c 2
EndSplineSet
EndChar

StartChar: H
Encoding: 72 72 19
Width: 610
VWidth: 960
Flags: HMW
AnchorPoint: "top" 302 1400 basechar 0
AnchorPoint: "bottom" 302 0 basechar 0
LayerCount: 2
Fore
SplineSet
450 1415 m 2
 455 1415 l 2
 529 1415 575 1389 575 1245 c 2
 575 155 l 2
 575 11 529 -15 455 -15 c 2
 450 -15 l 2
 376 -15 330 11 330 155 c 2
 330 620 l 257
 280 620 l 257
 280 155 l 2
 280 11 234 -15 160 -15 c 2
 155 -15 l 2
 81 -15 35 11 35 155 c 2
 35 1245 l 18
 35 1389 81 1415 155 1415 c 10
 160 1415 l 18
 234 1415 280 1389 280 1245 c 10
 280 795 l 257
 330 795 l 257
 330 1245 l 2
 330 1389 376 1415 450 1415 c 2
EndSplineSet
EndChar

StartChar: I
Encoding: 73 73 20
Width: 315
VWidth: 960
Flags: HMW
AnchorPoint: "ogonek" 160 0 basechar 0
AnchorPoint: "top" 160 1400 basechar 0
AnchorPoint: "bottom" 160 0 basechar 0
LayerCount: 2
Fore
SplineSet
155 1415 m 10
 160 1415 l 18
 234 1415 280 1389 280 1245 c 10
 280 155 l 18
 280 11 234 -15 160 -15 c 10
 155 -15 l 18
 81 -15 35 11 35 155 c 10
 35 1245 l 18
 35 1389 81 1415 155 1415 c 10
EndSplineSet
EndChar

StartChar: J
Encoding: 74 74 21
Width: 520
VWidth: 960
Flags: HMW
AnchorPoint: "top" 388 1400 basechar 0
AnchorPoint: "bottom" 238 0 basechar 0
LayerCount: 2
Fore
SplineSet
355 1415 m 2
 365 1415 l 2
 439 1415 485 1389 485 1245 c 2
 485 269 l 258
 485 76 441 -18 238 -18 c 256
 60 -18 10 77 10 239 c 258
 10 577 l 2
 10 651 46 678 100 678 c 2
 105 678 l 2
 159 678 195 651 195 577 c 2
 195 244 l 258
 195 188 199 162 216 162 c 256
 233 162 235 184 235 254 c 258
 235 1245 l 2
 235 1389 281 1415 355 1415 c 2
EndSplineSet
EndChar

StartChar: K
Encoding: 75 75 22
Width: 630
VWidth: 960
Flags: HMW
AnchorPoint: "top" 322 1400 basechar 0
AnchorPoint: "bottom" 322 0 basechar 0
LayerCount: 2
Back
SplineSet
40 1400 m 14
 275 1400 l 22
 279 1400 280 1399 280 1395 c 14
 280 5 l 22
 280 1 279 0 275 0 c 14
 40 0 l 22
 36 0 35 1 35 5 c 14
 35 1395 l 22
 35 1399 36 1400 40 1400 c 14
  Spiro
    40 1400 [
    275 1400 ]
    278.072 1399.59 o
    279.593 1398.07 o
    280 1395 [
    280 5 ]
    279.593 1.92815 o
    278.072 0.406519 o
    275 0 [
    40 0 ]
    36.9281 0.406519 o
    35.4065 1.92815 o
    35 5 [
    35 1395 ]
    35.4065 1398.07 o
    36.9281 1399.59 o
    0 0 z
  EndSpiro
280 785 m 5
 455 890 l 5
 666 5 l 6
 667.376953125 0 667.376953125 0 665 0 c 6
 395 0 l 6
 390.0390625 0 386.34765625 2.861328125 386 5 c 6
 280 785 l 5
440 1395 m 6
 441.2421875 1398.92285156 445.25 1400 450 1400 c 6
 652 1400 l 6
 654.995117188 1400 656.650390625 1399.13769531 655 1395 c 6
 406.41796875 720 l 5
 346.41796875 770 l 5
 270 450 l 5
 155 505 l 5
 440 1395 l 6
EndSplineSet
Fore
SplineSet
155 1415 m 10
 160 1415 l 18
 234 1415 280 1389 280 1245 c 10
 280 155 l 18
 280 11 234 -15 160 -15 c 10
 155 -15 l 18
 81 -15 35 11 35 155 c 10
 35 1245 l 18
 35 1389 81 1415 155 1415 c 10
280 785 m 1
 455 890 l 1
 630 155 l 2
 658.239106927 36.3957509053 612.376953125 -15 520 -15 c 6
 515 -15 l 6
 440.0390625 -15 383.714359053 25.2320208886 366 155 c 6
 280 785 l 1
392 1245 m 2
 433.921599381 1375.89444532 455.25 1415 530 1415 c 2
 533 1415 l 2
 604.995117188 1415 646.983996197 1372.42194017 600 1245 c 2
 406.41796875 720 l 1
 346.41796875 770 l 1
 270 450 l 1
 155 505 l 1
 392 1245 l 2
EndSplineSet
EndChar

StartChar: L
Encoding: 76 76 23
Width: 467
VWidth: 960
Flags: HMW
AnchorPoint: "top" 142 1400 basechar 0
AnchorPoint: "bottom" 272 0 basechar 0
LayerCount: 2
Fore
SplineSet
155 1415 m 2
 160 1415 l 2
 234 1415 280 1389 280 1245 c 2
 280 175 l 281
 355 175 l 2
 429 175 475 154 475 90 c 2
 475 85 l 2
 475 11 429 -9.06238631369e-15 355 0 c 2
 190 0 l 2
 46 0 35 11 35 155 c 2
 35 1245 l 2
 35 1389 81 1415 155 1415 c 2
EndSplineSet
EndChar

StartChar: M
Encoding: 77 77 24
Width: 820
VWidth: 960
Flags: HMW
AnchorPoint: "top" 382 1400 basechar 0
AnchorPoint: "bottom" 372 0 basechar 0
LayerCount: 2
Back
SplineSet
200 1115 m 261
 200 5 l 6
 200 1 199 -15 195 -15 c 6
 30 -15 l 6
 26 -15 25 1 25 5 c 6
 25 1395 l 6
 25 1399 26 1415 30 1415 c 6
 330 1415 l 6
 334 1415 335 1399 337 1395 c 6
 405 644 l 261
 478 1395 l 6
 480 1399 481 1415 485 1415 c 6
 780 1415 l 6
 784 1415 785 1399 785 1395 c 6
 785 5 l 6
 785 1 784 -15 780 -15 c 6
 555 -15 l 6
 551 -15 550 1 550 5 c 6
 550 1115 l 261
 444 5 l 6
 442 1 441 -15 437 -15 c 6
 307 -15 l 6
 303 -15 302 1 300 5 c 6
 200 1115 l 261
EndSplineSet
Fore
SplineSet
200 1115 m 261
 200 155 l 6
 200 11 179 -15 115 -15 c 6
 110 -15 l 6
 46 -15 25 11 25 155 c 6
 25 1245 l 6
 25 1389 55 1415 179 1415 c 6
 181 1415 l 6
 305 1415 338.149163593 1388.02504964 351 1245 c 6
 405 644 l 261
 464 1245 l 6
 478.020593284 1387.81994176 506 1415 630 1415 c 6
 635 1415 l 6
 759 1415 785 1389 785 1245 c 6
 785 155 l 6
 785 11 744 -15 670 -15 c 6
 665 -15 l 6
 591 -15 550 11 550 155 c 6
 550 1115 l 261
 458 155 l 6
 443.357773229 2.21154673227 421 -15 377 -15 c 6
 367 -15 l 6
 323 -15 300.858854525 2.07470869131 287 155 c 6
 200 1115 l 261
EndSplineSet
EndChar

StartChar: N
Encoding: 78 78 25
Width: 590
VWidth: 960
Flags: HMW
AnchorPoint: "top" 297 1400 basechar 0
AnchorPoint: "bottom" 292 0 basechar 0
LayerCount: 2
Back
SplineSet
385 1400 m 6
 560 1400 l 6
 564 1400 565 1399 565 1395 c 6
 565 5 l 6
 565 1 564 0 560 0 c 6
 395 0 l 6
 391 0 387.096650616 0.57601172142 386 5 c 6
 190 796 l 5
 210 796 l 261
 210 5 l 6
 210 1 209 0 205 0 c 6
 30 0 l 6
 26 0 25 1 25 5 c 6
 25 1395 l 6
 25 1399 26 1400 30 1400 c 6
 245 1400 l 6
 249 1400 253.154214562 1399.43701726 254 1395 c 6
 400 629 l 5
 380 629 l 261
 380 1395 l 6
 380 1399 381 1400 385 1400 c 6
EndSplineSet
Fore
SplineSet
470 1415 m 6
 475 1415 l 6
 539 1415 565 1389 565 1275 c 6
 565 125 l 6
 565 11 529 -15 475 -15 c 6
 470 -15 l 6
 416 -15 382.738201841 16.9196781007 356 125 c 6
 190 796 l 5
 210 796 l 261
 210 125 l 6
 210 11 174 -15 120 -15 c 6
 115 -15 l 6
 61 -15 25 11 25 125 c 6
 25 1285 l 6
 25 1389 61 1415 135 1415 c 6
 140 1415 l 6
 214 1415 257.780932795 1375.93916597 277 1275 c 6
 400 629 l 5
 380 629 l 261
 380 1275 l 6
 380 1389 406 1415 470 1415 c 6
EndSplineSet
EndChar

StartChar: O
Encoding: 79 79 26
Width: 625
VWidth: 960
Flags: HMW
AnchorPoint: "top" 312 1400 basechar 0
AnchorPoint: "bottom" 313 0 basechar 0
LayerCount: 2
Fore
SplineSet
25 359 m 262
 25 1042 l 262
 25 1275 72 1416 313 1416 c 256
 554 1416 600 1275 600 1042 c 262
 600 359 l 262
 600 126 554 -18 313 -18 c 256
 72 -18 25 126 25 359 c 262
275 264 m 258
 275 175 286 152 313 152 c 256
 340 152 350 175 350 264 c 258
 350 1136 l 258
 350 1225 340 1248 313 1248 c 256
 286 1248 275 1225 275 1136 c 258
 275 264 l 258
EndSplineSet
EndChar

StartChar: P
Encoding: 80 80 27
Width: 575
VWidth: 960
Flags: HMW
AnchorPoint: "top" 322 1400 basechar 0
AnchorPoint: "bottom" 138 0 basechar 0
LayerCount: 2
Fore
SplineSet
280 1225 m 257
 280 725 l 257
 290 725 l 258
 328 725 338 749 338 794 c 258
 338 1156 l 258
 338 1201 328 1225 290 1225 c 258
 280 1225 l 257
280 1400 m 258
 463 1400 548 1326 548 1141 c 258
 548 859 l 258
 548 674 464 600 320 600 c 258
 280 600 l 257
 280 155 l 2
 280 11 244 -15 160 -15 c 2
 155 -15 l 2
 71 -15 35 11 35 155 c 2
 35 1245 l 2
 35 1389 46 1400 190 1400 c 2
 280 1400 l 258
EndSplineSet
EndChar

StartChar: Q
Encoding: 81 81 28
Width: 668
VWidth: 960
Flags: HMW
AnchorPoint: "top" 312 1400 basechar 0
AnchorPoint: "bottom" 312 0 basechar 0
LayerCount: 2
Back
SplineSet
668 205 m 6
 668 5 l 6
 668 1 668 -1 662 -2 c 4
 507 -28 450 46 450 179 c 261
 515 294 l 261
 515 119 460 -18 272 -18 c 260
 64 -18 25 129 25 304 c 262
 25 1096 l 262
 25 1271 68 1418 312 1418 c 260
 556 1418 600 1271 600 1096 c 262
 600 289 l 262
 600 232 616 212 662 210 c 4
 668 210 668 208 668 205 c 6
EndSplineSet
Fore
SplineSet
683 110 m 2
 683 105 l 2
 683 21 658.08276253 -8 602 -8 c 4
 507 -8 450 46 450 179 c 257
 515 294 l 257
 515 119 460 -18 272 -18 c 256
 64 -18 25 129 25 304 c 258
 25 1096 l 258
 25 1271 68 1418 312 1418 c 256
 556 1418 600 1271 600 1096 c 258
 600 289 l 258
 600 232 617.101641787 219.167570231 632 213 c 0
 657.95366726 202.255791592 683 183 683 110 c 2
350 264 m 258
 350 1136 l 258
 350 1201 346 1248 312 1248 c 256
 278 1248 275 1201 275 1136 c 258
 275 264 l 258
 275 194 278 152 312 152 c 256
 346 152 350 194 350 264 c 258
EndSplineSet
EndChar

StartChar: R
Encoding: 82 82 29
Width: 630
VWidth: 960
Flags: HMW
AnchorPoint: "top" 322 1400 basechar 0
AnchorPoint: "bottom" 322 0 basechar 0
LayerCount: 2
Fore
SplineSet
280 1225 m 261
 280 720 l 261
 300 720 l 262
 334 720 338 751 338 796 c 262
 338 1148 l 262
 338 1188 334 1225 300 1225 c 262
 280 1225 l 261
310 1400 m 262
 543 1400 588 1296 588 1141 c 262
 588 879 l 262
 588 709 474 640 310 640 c 261
 310 670 l 261
 488 670 591.337974991 656.001177613 592 466 c 262
 593 179 l 262
 593 152 599.623139299 130.141630549 604.685546875 114 c 260
 608.83984375 100.75390625 617 77.83203125 617 51.5 c 262
 617 49 l 262
 617 6 589 -15 515.5 -15 c 262
 500.5 -15 l 262
 424.4140625 -15 373.228515625 0.40625 352.888671875 69.5 c 260
 344.994140625 96.31640625 338 120 338 164 c 262
 338 536 l 262
 338 576 323 595 295 595 c 262
 280 595 l 261
 280 155 l 6
 280 11 234 -15 160 -15 c 6
 155 -15 l 6
 81 -15 35 11 35 155 c 6
 35 1245 l 6
 35 1389 46 1400 190 1400 c 6
 310 1400 l 262
EndSplineSet
EndChar

StartChar: S
Encoding: 83 83 30
Width: 489
VWidth: 960
Flags: HMW
AnchorPoint: "top" 201 1400 basechar 0
AnchorPoint: "bottom" 242 0 basechar 0
LayerCount: 2
Fore
SplineSet
104 539 m 2
 110 539 l 2
 171 539 199 514 199 420 c 0
 199 352.099609375 199 372.100069464 199.044420408 285 c 0
 199.087886267 199.771622774 204.069335938 172 223 172 c 256
 247 172 249 208 249 314 c 256
 249 465.921875 197.29296875 558.216796875 148.334960938 645.259765625 c 0
 86.845703125 754.58203125 16 868.997070312 16 1116 c 256
 16 1321 89 1418 255 1418 c 256
 422 1418 475 1308 475 1150 c 2
 475 1016 l 2
 475 912 442 887 389 887 c 2
 385 887 l 2
 332 887 299 912 299 1016 c 0
 299 1110.26171875 299 1060.26171875 298.940429688 1139 c 0
 298.878664399 1220.63953648 294.771484375 1238 278 1238 c 256
 262 1238 256 1211 256 1132 c 256
 256 952.244140625 316.649414062 839.1875 369.934570312 752.703125 c 0
 431.80686473 652.281411167 489 552.170898438 489 314 c 256
 489 85 410 -18 250 -18 c 256
 86 -18 15 52 15 240 c 2
 15 420 l 2
 15 514 43 539 104 539 c 2
EndSplineSet
EndChar

StartChar: T
Encoding: 84 84 31
Width: 545
VWidth: 960
Flags: HMW
AnchorPoint: "top" 272 1400 basechar 0
AnchorPoint: "bottom" 253 0 basechar 0
LayerCount: 2
Back
SplineSet
5 1400 m 6
 540 1400 l 6
 544 1400 545 1399 545 1395 c 6
 545 1230 l 6
 545 1226 544 1225 540 1225 c 6
 395 1225 l 261
 395 5 l 6
 395 1 394 0 390 0 c 6
 155 0 l 6
 151 0 150 1 150 5 c 6
 150 1225 l 261
 5 1225 l 6
 1 1225 0 1226 0 1230 c 6
 0 1395 l 6
 0 1399 1 1400 5 1400 c 6
EndSplineSet
Fore
SplineSet
110 1400 m 262
 435 1400 l 262
 523.5 1400 560 1368.5 560 1315 c 262
 560 1310 l 262
 560 1256.5 523.5 1225 435 1225 c 262
 395 1225 l 261
 395 115 l 262
 395 26.5 348.5 -15 275 -15 c 262
 270 -15 l 262
 196.5 -15 150 26.5 150 115 c 262
 150 1225 l 261
 110 1225 l 262
 21.5 1225 -15 1256.5 -15 1310 c 262
 -15 1315 l 262
 -15 1368.5 21.5 1400 110 1400 c 262
EndSplineSet
EndChar

StartChar: U
Encoding: 85 85 32
Width: 555
VWidth: 960
Flags: HMW
AnchorPoint: "ogonek" 348 0 basechar 0
AnchorPoint: "top" 300 1400 basechar 0
AnchorPoint: "bottom" 300 0 basechar 0
LayerCount: 2
Back
SplineSet
335 254 m 262
 335 1395 l 6
 335 1399 336 1400 340 1400 c 6
 515 1400 l 6
 519 1400 520 1399 520 1395 c 6
 520 299 l 262
 520 139 496 -18 278 -18 c 260
 44 -18 30 104 30 294 c 262
 30 1395 l 6
 30 1399 31 1400 35 1400 c 6
 275 1400 l 6
 279 1400 280 1399 280 1395 c 6
 280 289 l 262
 280 174 284 152 307 152 c 260
 330 152 335 179 335 254 c 262
EndSplineSet
Fore
SplineSet
335 254 m 258
 335 1265 l 2
 335 1369 361 1415 425 1415 c 2
 430 1415 l 2
 494 1415 520 1369 520 1265 c 2
 520 299 l 258
 520 139 496 -18 278 -18 c 256
 44 -18 30 104 30 294 c 258
 30 1245 l 2
 30 1389 76 1415 150 1415 c 2
 160 1415 l 2
 234 1415 280 1389 280 1245 c 2
 280 289 l 258
 280 174 284 152 307 152 c 256
 330 152 335 179 335 254 c 258
EndSplineSet
EndChar

StartChar: V
Encoding: 86 86 33
Width: 559
VWidth: 960
Flags: HMW
AnchorPoint: "top" 290.396 1400 basechar 0
AnchorPoint: "bottom" 290.396 0 basechar 0
LayerCount: 2
Fore
SplineSet
292.395507812 311 m 1
 363.395507812 1275 l 2
 370.873046875 1376.52246094 394.395507812 1415 468.395507812 1415 c 2
 478.395507812 1415 l 2
 550.395507812 1415 570.610351562 1379.00683594 559.395507812 1275 c 2
 435.395507812 125 l 2
 426.415039062 41.7529296875 388.395507812 -15 296.395507812 -15 c 2
 246.395507812 -15 l 2
 153.395507812 -15 116.3515625 31.7646484375 107.395507812 125 c 2
 -2.6044921875 1275 l 2
 -12.177734375 1375.08398438 33.3955078125 1415 108.395507812 1415 c 2
 118.395507812 1415 l 2
 190.395507812 1415 245.826171875 1379.88769531 250.395507812 1275 c 2
 292.395507812 311 l 1
EndSplineSet
EndChar

StartChar: W
Encoding: 87 87 34
Width: 817
VWidth: 960
Flags: HMW
AnchorPoint: "top" 436 1400 basechar 0
AnchorPoint: "bottom" 416 0 basechar 0
LayerCount: 2
Back
SplineSet
264 495 m 261
 347 1395 l 6
 348 1398 350 1415 354 1415 c 6
 519 1415 l 6
 523 1415 524 1398 525 1395 c 6
 608 477 l 261
 667 1395 l 6
 668 1398 670 1415 674 1415 c 6
 844 1415 l 6
 848 1415 848 1398 847 1395 c 6
 713 5 l 6
 712 1 710 -15 706 -15 c 6
 486 -15 l 6
 483 -15 481 1 480 5 c 6
 410 765 l 261
 343 5 l 6
 342 1 340 -15 336 -15 c 6
 114 -15 l 6
 110 -15 108 1 107 5 c 6
 -22 1395 l 6
 -23 1398 -23 1415 -19 1415 c 6
 219 1415 l 6
 223 1415 224 1398 225 1395 c 6
 264 495 l 261
EndSplineSet
Fore
SplineSet
264 495 m 257
 333 1245 l 2
 346.053975154 1386.89103429 380 1415 434 1415 c 2
 439 1415 l 2
 493 1415 526.24721108 1386.94408537 539 1245 c 2
 608 477 l 257
 657 1245 l 2
 666.090762801 1387.48379248 695 1415 749 1415 c 2
 754 1415 l 2
 808 1415 845.607276507 1386.79010814 832 1245 c 2
 724 115 l 2
 714.141099705 11.8466913556 685 -15 611 -15 c 2
 601 -15 l 2
 528 -15 479.527341 11.7871391692 470 115 c 2
 410 765 l 257
 353 115 l 2
 343.941965806 11.7066276139 300 -15 226 -15 c 2
 224 -15 l 2
 150 -15 106.589552963 11.7981443019 97 115 c 2
 -8 1245 l 6
 -20.2613757533 1376.95575811 27 1415 101 1415 c 2
 109 1415 l 2
 183 1415 226.333827841 1377.80090999 232 1245 c 6
 264 495 l 257
EndSplineSet
EndChar

StartChar: X
Encoding: 88 88 35
Width: 616
VWidth: 960
Flags: HMW
AnchorPoint: "top" 316 1400 basechar 0
AnchorPoint: "bottom" 316 0 basechar 0
LayerCount: 2
Back
SplineSet
376 1400 m 6
 608 1400 l 6
 612 1400 612 1399 610 1395 c 6
 454 732 l 261
 635 5 l 6
 637 1 638 0 634 0 c 6
 354 0 l 6
 350 0 348 1 346 5 c 6
 303 436 l 261
 230 5 l 6
 227 1 225 0 221 0 c 6
 -16 0 l 6
 -20 0 -21 1 -18 5 c 6
 188 680 l 261
 -3 1395 l 6
 -5 1399 -6 1400 -2 1400 c 6
 268 1400 l 6
 272 1400 275 1399 277 1395 c 6
 325 946 l 261
 368 1395 l 6
 370 1399 372 1400 376 1400 c 6
EndSplineSet
Fore
SplineSet
476 1415 m 2
 488 1415 l 2
 562 1415 598.342838631 1343.96591915 575 1245 c 2
 454 732 l 257
 598 155 l 2
 627.252788523 37.7857015417 574 -15 490 -15 c 2
 480 -15 l 2
 396 -15 343.254034785 32.0220080535 331 155 c 2
 303 436 l 257
 255 155 l 2
 234.330551091 33.997601176 190 -15 106 -15 c 2
 99 -15 l 2
 15 -15 -9.62517636318 31.5423900583 28 155 c 2
 188 680 l 257
 37 1245 l 2
 10.9249004462 1342.56576985 64 1415 138 1415 c 2
 148 1415 l 2
 222 1415 281.972961017 1348.03389549 293 1245 c 2
 325 946 l 257
 354 1245 l 2
 364.011591055 1348.22295605 402 1415 476 1415 c 2
EndSplineSet
EndChar

StartChar: Y
Encoding: 89 89 36
Width: 645
VWidth: 960
Flags: HMW
AnchorPoint: "top" 340 1400 basechar 0
AnchorPoint: "bottom" 325 0 basechar 0
LayerCount: 2
Back
SplineSet
450 1400 m 6
 643 1400 l 6
 647 1400 647 1399 645 1395 c 6
 445 625 l 261
 445 5 l 6
 445 1 444 0 440 0 c 6
 205 0 l 6
 201 0 200 1 200 5 c 6
 200 625 l 261
 1 1395 l 6
 -1 1399 -1 1400 3 1400 c 6
 280 1400 l 6
 284 1400 286 1399 288 1395 c 6
 365 800 l 261
 442 1395 l 6
 444 1399 446 1400 450 1400 c 6
EndSplineSet
Fore
SplineSet
535 1415 m 2
 538 1415 l 2
 602 1415 637.130023207 1364.8110089 619 1295 c 2
 445 625 l 257
 445 155 l 6
 445 11 399 -15 325 -15 c 2
 320 -15 l 2
 246 -15 200 11 200 155 c 6
 200 625 l 257
 27 1295 l 6
 8.89932731666 1365.10087109 74 1415 148 1415 c 2
 155 1415 l 2
 229 1415 290.285078335 1377.87322225 301 1295 c 2
 365 800 l 257
 429 1295 l 2
 438.443250469 1368.03764034 471 1415 535 1415 c 2
EndSplineSet
EndChar

StartChar: Z
Encoding: 90 90 37
Width: 535
VWidth: 960
Flags: HMW
AnchorPoint: "top" 263 1400 basechar 0
AnchorPoint: "bottom" 284 0 basechar 0
LayerCount: 2
Back
SplineSet
-35 5 m 6
 254 1225 l 261
 36 1225 l 6
 32 1225 16 1226 16 1230 c 6
 16 1395 l 6
 16 1399 32 1400 36 1400 c 6
 531 1400 l 6
 535 1400 536 1399 533 1395 c 6
 253 175 l 261
 521 175 l 6
 525 175 541 174 541 170 c 6
 541 5 l 6
 541 1 525 0 521 0 c 6
 -34 0 l 6
 -38 0 -38 1 -35 5 c 6
EndSplineSet
Fore
SplineSet
1 155 m 2
 254 1225 l 257
 186 1225 l 2
 42 1225 16 1246 16 1310 c 2
 16 1315 l 2
 16 1379 42 1400 186 1400 c 2
 381 1400 l 2
 505 1400 526.227801854 1363.42986985 499 1245 c 2
 253 175 l 257
 371 175 l 2
 515 175 541 154 541 90 c 2
 541 85 l 2
 541 21 515 -1.76349139077e-14 371 0 c 2
 116 0 l 2
 -18 0 -29.1653532234 27.4232096874 1 155 c 2
EndSplineSet
EndChar

StartChar: a
Encoding: 97 97 38
Width: 550
VWidth: 960
Flags: HMW
AnchorPoint: "ogonek" 443 0 basechar 0
AnchorPoint: "top" 295 1050 basechar 0
AnchorPoint: "bottom" 241 0 basechar 0
LayerCount: 2
Fore
SplineSet
246 330 m 0
 246 198 259 158 273 158 c 256
 290 158 292 186 292 234 c 257
 322 234 l 257
 322 132 267 -18 161 -18 c 256
 76 -18 8 28 8 255 c 0
 8 491 77 566 208 627 c 256
 264 653 292 678 292 734 c 257
 312 584 l 257
 305 562 292 548 281 535 c 256
 257 507 246 460 246 330 c 0
292 129 m 258
 292 814 l 258
 292 874 294 907 277 907 c 256
 258 907 259 882.01171875 256 796 c 0
 253.106445312 713.05078125 233 676 150 676 c 2
 147 676 l 2
 63 676 38.4520295566 713.673296705 49 796 c 0
 69 952.099609375 134 1067 297 1067 c 256
 467 1067 532 975 532 761 c 258
 532 139 l 258
 532 122 532.784179688 89.9443359375 536 78 c 256
 550 26 510 -15 437 -15 c 258
 435 -15 l 258
 363 -15 316 16 304 48 c 256
 298 65 292 81 292 129 c 258
EndSplineSet
EndChar

StartChar: b
Encoding: 98 98 39
Width: 590
VWidth: 1920
Flags: HMW
LayerCount: 2
Fore
SplineSet
145 1465 m 262
 150 1465 l 262
 224 1465 270 1424 270 1340 c 262
 270 165 l 261
 157 30 l 262
 134 3 113 -15 85 -15 c 262
 79 -15 l 262
 45 -15 25 12 25 90 c 262
 25 1340 l 262
 25 1424 71 1465 145 1465 c 262
240 801 m 261
 240 946 312 1067 410 1067 c 260
 518 1067 570 997 570 827 c 262
 570 224 l 262
 570 64 502 -18 354 -18 c 260
 230 -18 145 63 145 208 c 261
 270 244 l 261
 270 174 276 152 297 152 c 260
 321 152 325 179 325 234 c 262
 325 817 l 262
 325 872 321 897 297 897 c 260
 276 897 270 862 270 807 c 261
 240 801 l 261
EndSplineSet
EndChar

StartChar: c
Encoding: 99 99 40
Width: 479
VWidth: 960
Flags: HMW
AnchorPoint: "bottom" 252 0 basechar 0
AnchorPoint: "top" 249 1050 basechar 0
LayerCount: 2
Back
SplineSet
464 434 m 4
 463 377 463.411402947 275.988725166 462 232 c 4
 456 45 380 -18 237 -18 c 260
 102 -18 20 76 20 224 c 262
 20 827 l 262
 20 975 90 1067 240 1067 c 260
 396 1067 450 987 456 820 c 4
 457.580226971 776.017015987 460 675 460 617 c 4
 460 614 459 598 455 598 c 6
 310 598 l 6
 307 598 304 615 304 617 c 4
 304 685 303 735 303 772 c 4
 302 859 300 873 285 873 c 260
 268 873 265 842 265 767 c 262
 265 284 l 262
 265 212 265 178 285 178 c 260
 300 178 305 192 307 283 c 4
 308 320 309 369 309 435 c 4
 309 437 312 453 315 453 c 6
 460 453 l 6
 464 453 464 437 464 434 c 4
EndSplineSet
Fore
SplineSet
464 364 m 0
 464 179.376797077 452.536132812 88.564453125 395.971679688 32 c 0
 359.46875 -4.5029296875 305.45313997 -18 237 -18 c 256
 102 -18 20 76 20 224 c 258
 20 827 l 258
 20 975 90 1067 240 1067 c 256
 314.833468758 1067 364.276367188 1046.76953125 390.046875 1021 c 0
 418.614257812 992.434570312 460 951.046442738 460 697 c 0
 460 634 439 598 385 598 c 2
 380 598 l 2
 327 598 304 635 304 697 c 0
 304 790.423390593 305 858.428710938 293.428710938 870 c 0
 291.766601562 871.662109375 289.427734375 873 286 873 c 256
 267 873 265 842 265 767 c 258
 265 284 l 258
 265 212 265 178 285 178 c 256
 289.152036859 178 292 179.4296875 294.5703125 182 c 0
 306 193.4296875 309 258.647607986 309 365 c 0
 309 427 332 453 385 453 c 2
 390 453 l 2
 444 453 464 427 464 364 c 0
EndSplineSet
EndChar

StartChar: d
Encoding: 100 100 41
Width: 590
VWidth: 960
Flags: HMW
LayerCount: 2
Back
SplineSet
350 238 m 261
 350 93 285 -18 181 -18 c 260
 73 -18 20 54 20 224 c 262
 20 827 l 262
 20 997 73 1067 181 1067 c 260
 285 1067 350 956 350 811 c 261
 320 807 l 261
 320 862 318 897 294 897 c 260
 270 897 266 872 266 817 c 262
 266 234 l 262
 266 179 270 152 294 152 c 260
 318 152 320 189 320 244 c 261
 350 238 l 261
566 1445 m 2
 566 5 l 2
 566 1 564 0 560 0 c 2
 333 0 l 2
 329 0 328 1 328 5 c 2
 328 110 l 257
 320 126 l 257
 320 1445 l 2
 320 1449 322 1450 326 1450 c 2
 560 1450 l 2
 564 1450 566 1449 566 1445 c 2
EndSplineSet
Fore
SplineSet
350 238 m 257
 350 93 285 -18 181 -18 c 256
 73 -18 20 54 20 224 c 258
 20 827 l 258
 20 997 73 1067 181 1067 c 256
 285 1067 350 956 350 811 c 257
 320 807 l 257
 320 862 318 897 294 897 c 256
 270 897 266 872 266 817 c 258
 266 234 l 258
 266 179 270 152 294 152 c 256
 318 152 320 189 320 244 c 257
 350 238 l 257
566 1335 m 258
 566 115 l 258
 566 31 523 -15 449 -15 c 258
 446 -15 l 258
 372 -15 328 31 328 115 c 258
 328 130 l 257
 320 136 l 257
 320 1335 l 258
 320 1419 367 1465 441 1465 c 258
 446 1465 l 258
 520 1465 566 1419 566 1335 c 258
EndSplineSet
EndChar

StartChar: e
Encoding: 101 101 42
Width: 570
VWidth: 960
Flags: HMW
AnchorPoint: "ogonek" 402 30 basechar 0
AnchorPoint: "bottom" 300 0 basechar 0
AnchorPoint: "top" 305 1050 basechar 0
LayerCount: 2
Back
SplineSet
550 414 m 4
 550 337.607421875 548.72170118 299.772056928 547.424804688 239 c 4
 543.571289062 58.42578125 439.794921875 -18 288 -18 c 260
 104 -18 20 69 20 274 c 262
 20 777 l 262
 20 977 100 1067 288 1067 c 260
 472 1067 546.336914062 979.307617188 550 767 c 260
 551.985351562 651.927734375 554 607 554 485 c 4
 554 483 554 481 550 481 c 6
 158 481 l 261
 158 565 l 261
 312 565 l 261
 310 906 312 927 288 927 c 260
 270 927 266 901 266 841 c 262
 266 209 l 262
 266 134 271 122 287 122 c 260
 306 122 314 185 315 414 c 4
 315.008789062 416 317 418 320 418 c 6
 546 418 l 6
 550 418 550 417.162109375 550 414 c 4
EndSplineSet
Fore
SplineSet
550 314 m 4
 550 177.108881161 534.721488992 104.459706274 478.00000453 47.7382218116 c 4
 432.695616111 2.43383339196 366.558649517 -18 288 -18 c 260
 104 -18 20 69 20 274 c 262
 20 777 l 262
 20 977 100 1067 288 1067 c 260
 472 1067 545.655903143 979.133520144 550 767 c 260
 550.92369684 721.893486795 554 677 554 635 c 4
 554 493 544 481 400 481 c 6
 158 481 l 261
 158 565 l 261
 312 565 l 261
 310 906 312 927 288 927 c 260
 270 927 266 901 266 841 c 262
 266 209 l 262
 266 134 271 122 287 122 c 260
 310.225401863 122 309.038196878 208.50550742 312.696675433 289.999997796 c 4
 316.798801202 381.376957914 349.447477895 433 430 433 c 6
 436 433 l 6
 510 433 550 377.162109375 550 314 c 4
EndSplineSet
EndChar

StartChar: f
Encoding: 102 102 43
Width: 335
VWidth: 960
Flags: HMW
LayerCount: 2
Back
SplineSet
335 930 m 6
 0 930 l 6
 -4 930 -5 931 -5 935 c 6
 -5 1045 l 6
 -5 1049 -4 1050 0 1050 c 6
 335 1050 l 6
 339 1050 340 1049 340 1045 c 6
 340 935 l 6
 340 931 339 930 335 930 c 6
40 1313 m 262
 40 1432 130 1469 334 1440 c 4
 338.950195312 1439.29589844 340 1438 340 1434 c 6
 340 1304 l 6
 340 1301 338.188476562 1298.69726562 332 1300 c 4
 294 1308 282 1296 282 1253 c 262
 282 5 l 6
 282 1 282 0 278 0 c 6
 45 0 l 6
 41 0 40 1 40 5 c 6
 40 1313 l 262
EndSplineSet
Fore
SplineSet
249 930 m 258
 86 930 l 258
 12 930 -20 941 -20 989 c 258
 -20 994 l 258
 -20 1042 12 1050 86 1050 c 258
 249 1050 l 258
 323 1050 355 1042 355 994 c 258
 355 989 l 258
 355 941 323 930 249 930 c 258
40 1319 m 262
 40 1438 155 1466 314 1443 c 260
 353 1437 370 1424 370 1380 c 262
 370 1375 l 262
 370 1332 350 1320 312 1308 c 260
 294 1302 282 1292 282 1259 c 262
 282 90 l 262
 282 26 236 -15 172 -15 c 262
 150 -15 l 262
 86 -15 40 26 40 90 c 262
 40 1319 l 262
EndSplineSet
EndChar

StartChar: g
Encoding: 103 103 44
Width: 564
VWidth: 960
Flags: HMW
AnchorPoint: "top" 297.946 1075 basechar 0
LayerCount: 2
Fore
SplineSet
558 1206 m 0
 558 1134 482 1030 302 1030 c 257
 288 1045 l 257
 318 1045 337.798290251 1074.02751884 353 1176 c 0
 363.864165429 1248.8764016 405 1274 469 1274 c 2
 471 1274 l 2
 525 1274 558 1240 558 1206 c 0
356 170 m 258
 496 170 568 100 568 -88 c 256
 568 -286 477 -360 292 -360 c 258
 214 -360 l 258
 69 -360 -8 -296 -8 -168 c 256
 -8 -70 79 15 224 15 c 257
 289 15 l 257
 249 5 222 -44 222 -132 c 256
 222 -226 239 -260 279 -260 c 258
 286 -260 l 258
 316 -260 338 -206 338 -118 c 256
 338 -34 322 0 282 0 c 258
 169 0 l 258
 69 0 3 68 3 162 c 256
 3 266 100 333 220 333 c 257
 210 283 l 257
 180 283 158 262 158 228 c 256
 158 182 199 170 264 170 c 258
 356 170 l 258
322 494 m 258
 322 811 l 258
 322 912 319 943 298 943 c 256
 279 943 272 913 272 811 c 258
 272 494 l 258
 272 396 279 363 298 363 c 256
 319 363 322 392 322 494 c 258
542 574 m 258
 542 399 482 237 298 237 c 256
 114 237 52 399 52 574 c 258
 52 781 l 258
 52 956 114 1067 298 1067 c 256
 482 1067 542 956 542 781 c 258
 542 574 l 258
EndSplineSet
EndChar

StartChar: h
Encoding: 104 104 45
Width: 580
VWidth: 960
Flags: HMW
AnchorPoint: "bottom" 293 0 basechar 0
AnchorPoint: "top" 152 1450 basechar 0
LayerCount: 2
Fore
SplineSet
145 1465 m 2
 150 1465 l 2
 224 1465 270 1439 270 1295 c 2
 270 155 l 2
 270 11 223 -15 150 -15 c 2
 145 -15 l 2
 71 -15 25 11 25 155 c 2
 25 1295 l 2
 25 1439 71 1465 145 1465 c 2
245 877 m 257
 245 997 317 1067 411 1067 c 256
 515 1067 558 1012 558 857 c 258
 558 155 l 2
 558 11 512 -15 438 -15 c 2
 433 -15 l 2
 359 -15 313 11 313 155 c 2
 313 831 l 258
 313 881 309 903 295 903 c 256
 277 903 270 866 270 761 c 257
 245 877 l 257
EndSplineSet
EndChar

StartChar: i
Encoding: 105 105 46
Width: 295
VWidth: 960
Flags: HMW
AnchorPoint: "bottom" 148 0 basechar 0
AnchorPoint: "ogonek" 148 0 basechar 0
LayerCount: 2
Back
SplineSet
225 1480 m 6
 225 1165 l 6
 225 1161 224 1160 220 1160 c 6
 75 1160 l 6
 71 1160 70 1161 70 1165 c 6
 70 1480 l 6
 70 1484 71 1485 75 1485 c 6
 220 1485 l 6
 224 1485 225 1484 225 1480 c 6
270 1045 m 6
 270 5 l 6
 270 1 269 0 265 0 c 6
 30 0 l 6
 26 0 25 1 25 5 c 6
 25 1045 l 6
 25 1049 26 1050 30 1050 c 6
 265 1050 l 6
 269 1050 270 1049 270 1045 c 6
EndSplineSet
Fore
SplineSet
240 1360 m 2
 240 1285 l 2
 240 1191 214 1145 150 1145 c 2
 145 1145 l 2
 81 1145 55 1191 55 1285 c 2
 55 1360 l 2
 55 1454 81 1500 145 1500 c 2
 150 1500 l 2
 214 1500 240 1454 240 1360 c 2
270 895 m 6
 270 155 l 6
 270 11 224 -15 150 -15 c 6
 145 -15 l 6
 71 -15 25 11 25 155 c 6
 25 895 l 6
 25 1039 71 1065 145 1065 c 6
 150 1065 l 6
 224 1065 270 1039 270 895 c 6
EndSplineSet
EndChar

StartChar: j
Encoding: 106 106 47
Width: 295
VWidth: 960
Flags: HMW
LayerCount: 2
Back
SplineSet
270 -179 m 262
 270 -358 150 -370 -44 -356 c 4
 -48 -356 -50 -354 -50 -350 c 6
 -50 -220 l 6
 -50 -217 -48 -215 -45 -216 c 4
 0 -225 25 -208 25 -144 c 262
 25 895 l 6
 25 1039 71 1065 145 1065 c 6
 150 1065 l 6
 224 1065 270 1039 270 895 c 6
 270 -179 l 262
EndSplineSet
Fore
SplineSet
240 1360 m 2
 240 1285 l 2
 240 1191 214 1145 150 1145 c 2
 145 1145 l 2
 81 1145 55 1191 55 1285 c 2
 55 1360 l 2
 55 1454 81 1500 145 1500 c 2
 150 1500 l 2
 214 1500 240 1454 240 1360 c 2
270 -179 m 262
 270 -358 140.002577302 -361 56 -361 c 4
 -38 -361 -67 -344 -67 -290 c 6
 -67 -280 l 6
 -67 -227 -48 -216 -15 -216 c 4
 0 -216 25 -208 25 -144 c 262
 25 895 l 6
 25 1039 71 1065 145 1065 c 6
 150 1065 l 6
 224 1065 270 1039 270 895 c 6
 270 -179 l 262
EndSplineSet
EndChar

StartChar: k
Encoding: 107 107 48
Width: 595
VWidth: 960
Flags: HMW
LayerCount: 2
Back
SplineSet
30 1450 m 6
 265 1450 l 6
 269 1450 270 1449 270 1445 c 6
 270 5 l 6
 270 1 269 0 265 0 c 6
 30 0 l 6
 26 0 25 1 25 5 c 6
 25 1445 l 6
 25 1449 26 1450 30 1450 c 6
  Spiro
    30 1450 [
    265 1450 ]
    268.072 1449.59 o
    269.593 1448.07 o
    270 1445 [
    270 5 ]
    269.593 1.92815 o
    268.072 0.406519 o
    265 0 [
    30 0 ]
    26.9281 0.406519 o
    25.4065 1.92815 o
    25 5 [
    25 1445 ]
    25.4065 1448.07 o
    26.9281 1449.59 o
    0 0 z
  EndSpiro
185 422 m 5
 410 1045 l 6
 411.41015625 1048.8046875 414.240234375 1050 420 1050 c 6
 632 1050 l 6
 636.357421875 1050 636.357421875 1050 634 1045 c 6
 255 256 l 5
 185 422 l 5
250 586 m 261
 390 616 l 261
 642 5 l 6
 644 1 644 0 640 0 c 6
 365 0 l 6
 361 0 359 1 357 5 c 6
 250 586 l 261
EndSplineSet
Fore
SplineSet
145 1465 m 6
 150 1465 l 6
 224 1465 270 1439 270 1295 c 6
 270 155 l 6
 270 11 224 -15 150 -15 c 6
 145 -15 l 6
 71 -15 25 11 25 155 c 6
 25 1295 l 6
 25 1439 71 1465 145 1465 c 6
185 422 m 5
 356 895 l 6
 405.339522149 1031.47715776 424.240234375 1065 490 1065 c 6
 497 1065 l 6
 561.357421875 1065 626.84813987 1029.97707289 562 895 c 6
 255 256 l 5
 185 422 l 5
250 586 m 261
 390 616 l 261
 580 155 l 6
 616.92994558 65.3962899353 594 -15 490 -15 c 6
 485 -15 l 6
 401 -15 354.601493734 15.3260278539 329 155 c 6
 250 586 l 261
EndSplineSet
EndChar

StartChar: l
Encoding: 108 108 49
Width: 295
VWidth: 960
Flags: HMW
LayerCount: 2
Fore
SplineSet
145 1465 m 6
 150 1465 l 6
 224 1465 270 1439 270 1295 c 6
 270 155 l 6
 270 11 223 -15 150 -15 c 6
 145 -15 l 6
 71 -15 25 11 25 155 c 6
 25 1295 l 6
 25 1439 71 1465 145 1465 c 6
EndSplineSet
EndChar

StartChar: m
Encoding: 109 109 50
Width: 802
VWidth: 960
Flags: HMW
LayerCount: 2
Fore
SplineSet
465 877 m 257
 465 997 534 1067 632 1067 c 256
 736 1067 780 1012 780 857 c 258
 780 155 l 2
 780 11 739 -15 665 -15 c 2
 660 -15 l 2
 586 -15 545 11 545 155 c 2
 545 857 l 258
 545 887 538 903 525 903 c 256
 512 903 500 892 500 787 c 257
 465 877 l 257
139 1065 m 2
 141 1065 l 2
 215 1065 255 1029 255 895 c 2
 255 869 l 257
 260 855 l 257
 260 155 l 2
 260 11 219 -15 145 -15 c 2
 140 -15 l 2
 66 -15 25 11 25 155 c 2
 25 895 l 2
 25 1029 65 1065 139 1065 c 2
235 877 m 257
 235 997 278 1067 372 1067 c 256
 466 1067 500 1012 500 857 c 258
 500 155 l 2
 500 11 459 -15 405 -15 c 2
 400 -15 l 2
 346 -15 305 11 305 155 c 2
 305 857 l 258
 305 887 297 903 285 903 c 256
 272 903 260 892 260 787 c 257
 235 877 l 257
EndSplineSet
EndChar

StartChar: n
Encoding: 110 110 51
Width: 580
VWidth: 960
Flags: HMW
AnchorPoint: "bottom" 317 0 basechar 0
AnchorPoint: "top" 318 1050 basechar 0
LayerCount: 2
Fore
SplineSet
140 1065 m 6
 150 1065 l 6
 224 1065 265 1039 265 895 c 6
 265 869 l 261
 270 855 l 261
 270 155 l 6
 270 11 224 -15 150 -15 c 6
 145 -15 l 6
 71 -15 25 11 25 155 c 6
 25 895 l 6
 25 1039 66 1065 140 1065 c 6
245 877 m 261
 245 997 317 1067 411 1067 c 260
 515 1067 558 1012 558 857 c 262
 558 155 l 6
 558 11 512 -15 438 -15 c 6
 433 -15 l 6
 359 -15 313 11 313 155 c 6
 313 831 l 262
 313 881 309 903 295 903 c 260
 277 903 270 866 270 761 c 261
 245 877 l 261
EndSplineSet
EndChar

StartChar: o
Encoding: 111 111 52
Width: 580
VWidth: 960
Flags: HMW
AnchorPoint: "top" 290 1050 basechar 0
AnchorPoint: "bottom" 290 0 basechar 0
LayerCount: 2
Fore
SplineSet
20 274 m 262
 20 777 l 262
 20 972 102 1067 290 1067 c 260
 478 1067 560 972 560 777 c 262
 560 274 l 262
 560 79 478 -18 290 -18 c 260
 102 -18 20 79 20 274 c 262
268 209 m 262
 268 149 272 122 290 122 c 260
 308 122 313 149 313 209 c 262
 313 841 l 262
 313 901 308 927 290 927 c 260
 272 927 268 901 268 841 c 262
 268 209 l 262
EndSplineSet
EndChar

StartChar: p
Encoding: 112 112 53
Width: 590
VWidth: 960
Flags: HMW
LayerCount: 2
Fore
SplineSet
240 812 m 257
 240 957 305 1068 409 1068 c 256
 517 1068 570 996 570 826 c 258
 570 223 l 258
 570 53 517 -17 409 -17 c 256
 305 -17 240 94 240 239 c 257
 270 243 l 257
 270 188 272 153 296 153 c 256
 320 153 324 178 324 233 c 258
 324 816 l 258
 324 871 320 898 296 898 c 256
 272 898 270 861 270 806 c 257
 240 812 l 257
24 -245 m 262
 24 935 l 258
 24 1019 67 1065 141 1065 c 258
 144 1065 l 258
 218 1065 262 1019 262 935 c 258
 262 920 l 257
 270 914 l 257
 270 -245 l 262
 270 -329 223 -375 149 -375 c 262
 144 -375 l 262
 70 -375 24 -329 24 -245 c 262
EndSplineSet
EndChar

StartChar: q
Encoding: 113 113 54
Width: 590
VWidth: 960
Flags: HMW
LayerCount: 2
Fore
SplineSet
445 -375 m 262
 440 -375 l 262
 366 -375 320 -334 320 -250 c 262
 320 885 l 261
 433 1020 l 262
 456 1047 477 1065 505 1065 c 262
 511 1065 l 262
 545 1065 565 1038 565 960 c 262
 565 -250 l 262
 565 -334 519 -375 445 -375 c 262
350 249 m 261
 350 104 278 -17 180 -17 c 260
 72 -17 20 53 20 223 c 262
 20 826 l 262
 20 986 88 1068 236 1068 c 260
 360 1068 445 987 445 842 c 261
 320 806 l 261
 320 876 314 898 293 898 c 260
 269 898 265 871 265 816 c 262
 265 233 l 262
 265 178 269 153 293 153 c 260
 314 153 320 188 320 243 c 261
 350 249 l 261
EndSplineSet
EndChar

StartChar: r
Encoding: 114 114 55
Width: 402
VWidth: 960
Flags: HMW
AnchorPoint: "top" 228 1050 basechar 0
AnchorPoint: "bottom" 152 0 basechar 0
LayerCount: 2
Back
SplineSet
30 1050 m 6
 248 1050 l 6
 252 1050 252 1048 252 1045 c 6
 252 887 l 29
 270 883 l 29
 270 5 l 22
 270 1 268 0 265 0 c 14
 30 0 l 22
 27 0 25 2 25 5 c 14
 25 1045 l 6
 25 1048 27 1050 30 1050 c 6
  Spiro
    30 1050 [
    248 1050 ]
    250.813 1049.37 o
    251.852 1047.63 o
    252 1045 [
    252 887 v
    270 883 v
    270 5 ]
    269.372 1.92815 o
    267.627 0.406519 o
    265 0 [
    30 0 ]
    27.3726 0.628408 o
    25.6284 2.37259 o
    25 5 [
    25 1045 ]
    25.6284 1047.63 o
    27.3726 1049.37 o
    0 0 z
  EndSpiro
240 737 m 261
 240 835 256 1079 386 1063 c 4
 391 1062 392 1061 392 1057 c 6
 392 817 l 6
 392 814 391.161132812 810.69140625 384 812 c 4
 291 829 270 674 270 567 c 261
 240 737 l 261
EndSplineSet
Fore
SplineSet
135 1065 m 2
 143 1065 l 2
 217 1065 252 1038 252 895 c 2
 252 887 l 25
 270 883 l 25
 270 155 l 18
 270 11 223 -15 150 -15 c 10
 145 -15 l 18
 72 -15 25 12 25 155 c 10
 25 895 l 2
 25 1038 62 1065 135 1065 c 2
240 737 m 257
 240 835 259 1063 346 1063 c 0
 391.098632812 1063 407 1031 407 967 c 6
 407 947 l 6
 407 864 364.335459779 823.668185556 334 802 c 0
 292 772 270 674 270 567 c 257
 240 737 l 257
EndSplineSet
EndChar

StartChar: s
Encoding: 115 115 56
Width: 504
VWidth: 960
Flags: HMW
AnchorPoint: "top" 241 1050 basechar 0
AnchorPoint: "bottom" 243 0 basechar 0
LayerCount: 2
Back
SplineSet
14 399 m 6
 180 399 l 6
 184 399 186 397 186 394 c 4
 186 339.07634445 186.375 299.068359375 187.200195312 257 c 4
 188.520507812 189.672851562 193.435006701 162 213 162 c 260
 230 162 240 181 240 256 c 260
 240 531.334911682 26 467.119140625 26 804 c 260
 26 992 115 1067 260 1067 c 260
 397.423934423 1067 468.42842702 981.517584285 471.859375 842 c 4
 473.46875 776.555664062 474 726.552734375 474 666 c 4
 474 663 473 661 469 661 c 6
 312 661 l 6
 308 661 307 664 307 667 c 4
 307 705.98021338 308.454234277 745.998235157 306.760358983 824 c 4
 305.595614865 877.635646669 295.649187459 895 282 895 c 260
 269 895 255 875 255 823 c 260
 255 524.863152285 490 600.909179688 490 231 c 260
 490 79 428 -18 258 -18 c 260
 73.0419921875 -18 17.65234375 64.8857421875 12.154296875 211 c 4
 10.3909507829 257.862096917 10 317.89453125 10 395 c 4
 10 398 10 399 14 399 c 6
EndSplineSet
Fore
SplineSet
94 414 m 2
 100 414 l 2
 154 414 187 387 187 284 c 0
 187 274.076171875 187.136741632 262.134704245 187.200195312 257 c 0
 188.021555976 190.535074699 193.435006701 162 213 162 c 256
 230 162 240 181 240 256 c 256
 240 531.334911682 26 467.119140625 26 804 c 256
 26 992 115 1067 260 1067 c 256
 397.423934423 1067 468.394888496 980.808163877 471.859375 842 c 0
 472.246813784 826.476872363 474 806.552734375 474 786 c 0
 474 673 448 646 394 646 c 2
 387 646 l 2
 333 646 308 674 308 787 c 0
 308 794.98046875 307.107562683 805.922052092 306.760358983 824 c 0
 305.734525235 877.412360158 295.649187459 895 282 895 c 256
 269 895 255 875 255 823 c 256
 255 524.863152285 490 600.909179688 490 231 c 256
 490 79 428 -18 258 -18 c 256
 73.0419921875 -18 17.732421875 65.0966796875 12.154296875 211 c 0
 11.1258508045 237.900382556 10 267.89453125 10 285 c 0
 10 388 40 414 94 414 c 2
EndSplineSet
EndChar

StartChar: t
Encoding: 116 116 57
Width: 357
VWidth: 960
Flags: HMW
AnchorPoint: "bottom" 254 0 basechar 0
LayerCount: 2
Back
SplineSet
348 930 m 6
 -12 930 l 6
 -16 930 -18 931 -18 935 c 6
 -18 1045 l 6
 -18 1049 -16 1050 -12 1050 c 6
 348 1050 l 6
 352 1050 352 1049 352 1045 c 6
 352 935 l 6
 352 931 352 930 348 930 c 6
355 160 m 6
 355 5 l 6
 355 1 354 -1 350 -1 c 4
 106 -30 32 22 32 176 c 262
 32 1235 l 6
 32 1239 34 1240 38 1240 c 6
 270 1240 l 6
 274 1240 275 1239 275 1235 c 6
 275 211 l 262
 275 157 310 155 350 164 c 4
 353 165 355 163 355 160 c 6
EndSplineSet
Fore
SplineSet
268 930 m 2
 68 930 l 2
 -6 930 -33 941 -33 985 c 2
 -33 995 l 2
 -33 1039 -6 1050 68 1050 c 2
 268 1050 l 2
 342 1050 367 1039 367 995 c 2
 367 985 l 2
 367 941 342 930 268 930 c 2
370 85 m 2
 370 80 l 2
 370 6 344 -8 250 -8 c 0
 106 -8 32 22 32 176 c 258
 32 1085 l 2
 32 1229 84 1255 158 1255 c 2
 160 1255 l 2
 234 1255 275 1229 275 1085 c 2
 275 211 l 258
 275 167 300 161 310 161 c 0
 343.16227766 161 370 158 370 85 c 2
EndSplineSet
EndChar

StartChar: u
Encoding: 117 117 58
Width: 582
VWidth: 960
Flags: HMW
AnchorPoint: "ogonek" 439 0 basechar 0
AnchorPoint: "bottom" 262 0 basechar 0
AnchorPoint: "top" 284 1050 basechar 0
LayerCount: 2
Fore
SplineSet
441 -16 m 6
 431 -16 l 6
 357 -16 316 10 316 154 c 6
 316 180 l 261
 311 194 l 261
 311 894 l 6
 311 1038 357 1064 431 1064 c 6
 436 1064 l 6
 510 1064 556 1038 556 894 c 6
 556 154 l 6
 556 10 515 -16 441 -16 c 6
336 172 m 261
 336 52 264 -18 170 -18 c 260
 66 -18 23 37 23 192 c 262
 23 894 l 6
 23 1038 69 1064 143 1064 c 6
 148 1064 l 6
 222 1064 268 1038 268 894 c 6
 268 218 l 262
 268 168 272 146 286 146 c 260
 304 146 311 183 311 288 c 261
 336 172 l 261
EndSplineSet
EndChar

StartChar: v
Encoding: 118 118 59
Width: 535
VWidth: 960
Flags: HMW
LayerCount: 2
Fore
SplineSet
288 319 m 257
 332 895 l 2
 342.182528647 1028.29855684 382 1065 436 1065 c 2
 439 1065 l 2
 503 1065 542.517589654 1027.6298314 528 895 c 2
 447 155 l 2
 432.482410346 22.3701685972 363 -15 279 -15 c 2
 277 -15 l 2
 193 -15 122.646975876 23.0933116374 105 155 c 2
 6 895 l 2
 -12.9437065954 1036.59942304 45 1064 119 1064 c 2
 124 1064 l 2
 198 1064 251.76580271 1038.68612548 259 895 c 2
 288 319 l 257
EndSplineSet
EndChar

StartChar: w
Encoding: 119 119 60
Width: 665
VWidth: 960
Flags: HMW
LayerCount: 2
Back
SplineSet
486 454 m 261
 510 1045 l 6
 511 1049 512 1050 516 1050 c 6
 661 1050 l 6
 665 1050 666 1049 665 1045 c 6
 598 5 l 6
 597 1 595 0 591 0 c 6
 374 0 l 6
 370 0 368 1 367 5 c 6
 344 459 l 261
 308 5 l 6
 307 1 305 0 301 0 c 6
 79 0 l 6
 75 0 73 1 72 5 c 6
 0 1045 l 6
 -1 1049 0 1050 4 1050 c 6
 224 1050 l 6
 228 1050 229 1049 230 1045 c 6
 246 469 l 261
 300 1045 l 6
 301 1049 302 1050 306 1050 c 6
 434 1050 l 6
 438 1050 439 1049 440 1045 c 6
 486 454 l 261
  Spiro
    486 454 v
    510 1045 ]
    511.11 1048.07 o
    512.891 1049.59 o
    516 1050 [
    661 1050 ]
    664.035 1049.59 o
    665.297 1048.07 o
    665 1045 [
    598 5 ]
    596.631 1.92815 o
    594.368 0.406519 o
    591 0 [
    374 0 ]
    370.632 0.406519 o
    368.369 1.92815 o
    367 5 [
    344 459 v
    308 5 ]
    306.631 1.92815 o
    304.368 0.406519 o
    301 0 [
    79 0 ]
    75.6324 0.406519 o
    73.3686 1.92815 o
    72 5 [
    0 1045 ]
    -0.29674 1048.07 o
    0.965075 1049.59 o
    4 1050 [
    224 1050 ]
    227.109 1049.59 o
    228.89 1048.07 o
    230 1045 [
    246 469 v
    300 1045 ]
    301.11 1048.07 o
    302.891 1049.59 o
    306 1050 [
    434 1050 ]
    437.109 1049.59 o
    438.89 1048.07 o
    440 1045 [
    0 0 z
  EndSpiro
EndSplineSet
Fore
SplineSet
486 454 m 257
 504 895 l 2
 509.869438669 1038.8012474 527 1065 581 1065 c 2
 586 1065 l 2
 640 1065 664.113217499 1038.48470105 655 895 c 2
 608 155 l 2
 598.886782501 11.5152989493 560 -15 486 -15 c 2
 479 -15 l 2
 405 -15 366.090435121 11.3005148908 359 155 c 2
 344 459 l 257
 320 155 l 2
 308.695801789 11.8134893324 265 -15 191 -15 c 2
 189 -15 l 2
 115 -15 72.0741117637 11.6376402861 62 155 c 2
 10 895 l 2
 -0.0741117636797 1038.36235971 44 1065 118 1065 c 6
 119 1065 l 6
 193 1065 229.946085233 1038.91397423 234 895 c 2
 246 469 l 257
 286 895 l 2
 299.411697874 1037.83458236 322 1065 366 1065 c 2
 374 1065 l 2
 418 1065 440.95765116 1038.22575995 452 895 c 2
 486 454 l 257
EndSplineSet
EndChar

StartChar: x
Encoding: 120 120 61
Width: 563
VWidth: 960
Flags: HMW
LayerCount: 2
Back
SplineSet
198 0 m 6
 -17 0 l 6
 -21 0 -22 1 -19 5 c 6
 133 508 l 261
 4 1045 l 6
 1 1049 1 1050 5 1050 c 6
 265 1050 l 6
 269 1050 271 1049 273 1045 c 6
 287 718 l 261
 330 1045 l 6
 332 1049 334 1050 338 1050 c 6
 553 1050 l 6
 557 1050 557 1049 554 1045 c 6
 408 507 l 261
 572 5 l 6
 575 1 574 0 570 0 c 6
 290 0 l 6
 286 0 284 1 282 5 c 6
 259 326 l 261
 216 5 l 6
 214 1 202 0 198 0 c 6
EndSplineSet
Fore
SplineSet
118 -15 m 2
 113 -15 l 2
 39 -15 -14.2282188478 22.2844742683 26 155 c 2
 133 508 l 257
 40 895 l 2
 7.12083854107 1031.81973639 71 1065 145 1065 c 6
 150 1065 l 6
 214 1065 272.50071672 1038.79664256 279 895 c 2
 287 718 l 257
 310 895 l 2
 328.434364995 1036.86446105 364 1065 428 1065 c 6
 433 1065 l 6
 507 1065 549.514646993 1029.9303146 513 895 c 2
 408 507 l 257
 523 155 l 2
 565.797621218 24.0020637502 499 -15 425 -15 c 6
 420 -15 l 6
 346 -15 281.065543645 11.5660030628 271 155 c 2
 259 326 l 257
 236 155 l 2
 216.940208263 13.294591871 182 -15 118 -15 c 2
EndSplineSet
EndChar

StartChar: y
Encoding: 121 121 62
Width: 545
VWidth: 960
Flags: HMW
AnchorPoint: "top" 281.444 1050 basechar 0
LayerCount: 2
Back
SplineSet
290.444335938 281 m 261
 354.444335938 1045 l 6
 355.444335938 1048 357.444335938 1050 361.444335938 1050 c 6
 551.444335938 1050 l 6
 555.444335938 1050 555.444335938 1048 554.444335938 1045 c 6
 420.444335938 -130 l 262
 394.809570312 -363.499023438 207.444335938 -419 -10.5556640625 -316 c 4
 -16.0556640625 -313.401367188 -18.5556640625 -314 -18.5556640625 -310 c 6
 -18.5556640625 -75 l 6
 -18.5556640625 -72 -16.2509765625 -69.482421875 -12.5556640625 -72 c 4
 56.4443359375 -119 140.444335938 -162 157.444335938 -105 c 261
 -14.5556640625 1045 l 6
 -15.5556640625 1048 -15.5556640625 1050 -11.5556640625 1050 c 6
 238.444335938 1050 l 6
 242.444335938 1050 244.444335938 1048 245.444335938 1045 c 6
 290.444335938 281 l 261
EndSplineSet
Fore
SplineSet
290.444335938 281 m 257
 341.444335938 895 l 2
 353.248046875 1037.10253906 383.444335938 1065 447.444335938 1065 c 2
 451.444335938 1065 l 2
 515.444335938 1065 553.570182257 1036.27343998 537.444335938 895 c 2
 420.444335938 -130 l 258
 394.931155906 -353.512901989 237.189783981 -376.963904098 129.444335938 -362 c 0
 23.404930854 -347.273034573 -33.5556640625 -264 -33.5556640625 -190 c 2
 -33.5556640625 -185 l 2
 -33.5556640625 -112 -3.15408625637 -88.7274018597 57.4443359375 -112 c 0
 99.3639314328 -128.099064379 140.444335938 -152 157.444335938 -105 c 257
 7.4443359375 895 l 2
 -13.5556640626 1035 40.4443359375 1065 114.444335938 1065 c 2
 124.444335938 1065 l 2
 198.444335938 1065 246.085269396 1037.56852379 254.444335938 895 c 2
 290.444335938 281 l 257
EndSplineSet
EndChar

StartChar: z
Encoding: 122 122 63
Width: 490
VWidth: 960
Flags: HMW
AnchorPoint: "top" 240 1050 basechar 0
LayerCount: 2
Back
SplineSet
-10 5 m 6
 212 875 l 5
 26 875 l 6
 22 875 21 876 21 880 c 6
 21 1045 l 6
 21 1049 22 1050 26 1050 c 6
 496 1050 l 6
 500 1050 501 1049 498 1045 c 6
 296 175 l 5
 466 175 l 6
 470 175 471 174 471 170 c 6
 471 5 l 6
 471 2 470 0 466 0 c 6
 -9 0 l 6
 -13 0 -13 1 -10 5 c 6
EndSplineSet
Fore
SplineSet
25 145 m 2
 212 875 l 1
 176 875 l 2
 32 875 6 896 6 960 c 2
 6 965 l 2
 6 1029 32 1050 176 1050 c 2
 346 1050 l 2
 480 1050 492.64699454 1022.81937766 463 895 c 2
 296 175 l 1
 316 175 l 2
 460 175 486 144 486 90 c 2
 486 85 l 2
 486 32 460 -1.76349139077e-14 316 0 c 2
 141 0 l 2
 7 0 -7.39699120748 18.5304621312 25 145 c 2
EndSplineSet
EndChar

StartChar: comma
Encoding: 44 44 65
Width: 400
VWidth: 1920
Flags: HMW
LayerCount: 2
Fore
SplineSet
75 -326 m 14
 73 -326 l 22
 55 -326 46.1058970047 -306.994894903 62 -270 c 14
 178 0 l 261
 172 0 l 6
 98 0 52 40 52 134 c 6
 52 221 l 6
 52 335 104 377 192 377 c 6
 208 377 l 6
 296 377 348 335 348 221 c 6
 348 180 l 6
 348 92 330.750964441 21.9451520771 276 -60 c 6
 125 -286 l 22
 105.423162825 -315.300431799 88 -326 75 -326 c 14
EndSplineSet
EndChar

StartChar: exclam
Encoding: 33 33 67
Width: 400
VWidth: 1920
Flags: HMW
LayerCount: 2
Fore
SplineSet
208 -17 m 2
 192 -17 l 2
 108 -17 52 24 52 138 c 2
 52 222 l 2
 52 336 108 377 192 377 c 2
 208 377 l 2
 292 377 348 336 348 222 c 2
 348 138 l 2
 348 24 292 -17 208 -17 c 2
30 1150 m 2
 30 1280 l 2
 30 1387 88 1465 195 1465 c 2
 205 1465 l 2
 312 1465 370 1387 370 1280 c 2
 370 1150 l 2
 370 1043 364.826922048 976.401094491 319 780 c 2
 291 660 l 2
 265.08877869 548.95190867 242 485 205 485 c 2
 195 485 l 2
 158 485 134.91122131 548.95190867 109 660 c 2
 81 780 l 2
 35.1730779521 976.401094491 30 1043 30 1150 c 2
EndSplineSet
EndChar

StartChar: quotesingle
Encoding: 39 39 70
Width: 360
VWidth: 1920
Flags: HMW
LayerCount: 2
Fore
SplineSet
180 800 m 2
 170 800 l 2
 136 800 118 842 106 910 c 2
 76 1080 l 2
 62 1157 55 1213 55 1280 c 2
 55 1310 l 2
 55 1387 91 1450 175 1450 c 2
 180 1450 l 2
 268 1450 305 1387 305 1310 c 2
 305 1280 l 2
 305 1213 294 1155 279 1080 c 2
 244 910 l 2
 230 844 214 800 180 800 c 2
EndSplineSet
EndChar

StartChar: question
Encoding: 63 63 71
Width: 600
VWidth: 1920
Flags: HMW
LayerCount: 2
Back
SplineSet
408 0 m 6
 178 0 l 6
 171 0 168 3 168 10 c 6
 168 350 l 6
 168 357 171 360 178 360 c 6
 408 360 l 6
 415 360 418 357 418 350 c 6
 418 10 l 6
 418 3 415 0 408 0 c 6
  Spiro
    408 0 [
    178 0 ]
    172.301 1.03493 o
    169.035 4.30074 o
    168 10 [
    168 350 ]
    169.035 355.699 o
    172.301 358.965 o
    178 360 [
    408 360 ]
    413.699 358.965 o
    416.965 355.699 o
    418 350 [
    418 10 ]
    416.965 4.30074 o
    413.699 1.03493 o
    0 0 z
  EndSpiro
348 430 m 6
 203 430 l 6
 199 430 197.254882812 432.010742188 197 435 c 4
 176 681 305 690 305 877 c 262
 305 1178 l 262
 305 1273 298 1291 280 1291 c 260
 260 1291 255 1266 255 1170 c 262
 255 957 l 6
 255 953 255 952 251 952 c 6
 21 952 l 6
 17 952 15 953 15 957 c 6
 15 1205 l 262
 15 1347 95 1467 293 1467 c 260
 491 1467 585 1361 585 1221 c 262
 585 934 l 262
 585 652 398 662 354 434 c 4
 353.576171875 431.8046875 351 430 348 430 c 6
EndSplineSet
Fore
SplineSet
303 -17 m 6
 287 -17 l 6
 203 -17 147 24 147 138 c 6
 147 222 l 6
 147 336 203 377 287 377 c 6
 303 377 l 6
 387 377 443 336 443 222 c 6
 443 138 l 6
 443 24 387 -17 303 -17 c 6
278 415 m 6
 273 415 l 6
 219 415 197 442 197 535 c 4
 197 642 305 730 305 877 c 262
 305 1178 l 262
 305 1273 298 1291 280 1291 c 260
 260 1291 255 1266 255 1170 c 262
 255 1107 l 6
 255 993 215 937 141 937 c 6
 131 937 l 6
 57 937 15 993 15 1107 c 6
 15 1205 l 262
 15 1347 95 1467 293 1467 c 260
 491 1467 585 1361 585 1221 c 262
 585 934 l 262
 585 692 413 614 383 524 c 4
 352 434 331 415 278 415 c 6
EndSplineSet
EndChar

StartChar: parenleft
Encoding: 40 40 72
Width: 332
VWidth: 2048
Flags: HMW
LayerCount: 2
Fore
SplineSet
10 1252 m 258
 10 1454 78 1574 245 1626 c 0
 297 1642 340 1617 340 1578 c 2
 340 1568 l 2
 340 1530 315 1505 290 1486 c 0
 250.915003942 1456.295403 248 1386 248 1236 c 258
 248 14 l 258
 248 -136 260.915003942 -216.295402996 300 -246 c 0
 325 -265 340 -280 340 -318 c 2
 340 -328 l 2
 340 -367 297 -392 245 -376 c 0
 78 -324 10 -204 10 -2 c 258
 10 1252 l 258
EndSplineSet
EndChar

StartChar: parenright
Encoding: 41 41 73
Width: 332
VWidth: 2048
Flags: HMW
LayerCount: 2
Fore
SplineSet
322 -2 m 258
 322 -204 254 -324 87 -376 c 0
 35 -392 -8 -367 -8 -328 c 2
 -8 -318 l 2
 -8 -280 17 -255 42 -236 c 0
 81.0849609375 -206.294921875 84 -136 84 14 c 258
 84 1236 l 258
 84 1386 71.0849609375 1466.29492188 32 1496 c 0
 7 1515 -8 1530 -8 1568 c 2
 -8 1578 l 2
 -8 1617 35 1642 87 1626 c 0
 254 1574 322 1454 322 1252 c 258
 322 -2 l 258
EndSplineSet
EndChar

StartChar: asterisk
Encoding: 42 42 74
Width: 644
VWidth: 2048
Flags: HMW
LayerCount: 2
Back
SplineSet
678.00390625 920 m 261
 608.00390625 920 l 261
 409.00390625 1320 l 6
 408.00390625 1327 408.00390625 1333 409.00390625 1340 c 6
 417.00390625 1510 l 6
 418.00390625 1517 421.00390625 1520 428.00390625 1520 c 6
 858.00390625 1520 l 6
 865.00390625 1520 868.00390625 1517 869.00390625 1510 c 6
 877.00390625 1340 l 6
 878.00390625 1333 878.00390625 1327 877.00390625 1320 c 6
 678.00390625 920 l 261
EndSplineSet
Fore
SplineSet
327 1202 m 257
 316 1236 l 257
 424 1341 l 2
 465 1381 475 1390 507 1400 c 2
 509 1402 l 2
 565 1420 612 1377 628 1326 c 2
 633 1312 l 2
 649 1261 637 1200 581 1182 c 2
 578 1181 l 2
 546 1171 532 1172 476 1180 c 2
 327 1202 l 257
307 1210 m 257
 335 1230 l 257
 469 1160 l 2
 519 1134 531 1127 551 1100 c 2
 553 1098 l 2
 587 1050 562 993 518 961 c 2
 506 952 l 2
 462 920 400 914 366 962 c 2
 364 964 l 2
 344 991 342 1005 332 1061 c 2
 307 1210 l 257
308 1230 m 257
 336 1209 l 257
 311 1060 l 2
 301 1004 299 990 279 963 c 2
 277 961 l 2
 243 913 181 920 137 952 c 2
 125 960 l 2
 81 992 56 1049 90 1097 c 2
 92 1099 l 2
 112 1126 124 1134 174 1160 c 2
 308 1230 l 257
327 1236 m 257
 316 1202 l 257
 167 1180 l 2
 111 1172 97 1171 65 1181 c 2
 62 1182 l 2
 6 1200 -6 1261 10 1312 c 2
 15 1326 l 2
 31 1377 78 1420 134 1402 c 2
 136 1400 l 2
 168 1390 178 1381 219 1341 c 2
 327 1236 l 257
339 1219 m 257
 304 1219 l 257
 237 1354 l 2
 211 1405 206 1418 206 1452 c 2
 206 1454 l 2
 206 1512 260 1544 314 1544 c 2
 329 1544 l 2
 383 1544 437 1512 437 1454 c 2
 437 1452 l 2
 437 1418 432 1405 406 1354 c 2
 339 1219 l 257
EndSplineSet
EndChar

StartChar: at
Encoding: 64 64 75
Width: 935
VWidth: 1920
Flags: HMW
LayerCount: 2
Fore
SplineSet
522 199 m 257
 522 54 534 -17 400 -17 c 256
 292 -17 208 41 208 211 c 258
 208 838 l 258
 208 998 298 1067 416 1067 c 256
 544 1067 552 996 552 851 c 257
 478 841 l 257
 478 891 476 921 453 921 c 256
 429 921 428 901 428 851 c 258
 428 199 l 258
 428 149 429 128 453 128 c 256
 476 128 478 159 478 209 c 257
 522 199 l 257
586 -344 m 0
 547.118581483 -367.32885111 492 -377 442 -377 c 256
 124 -377 50 -191 50 49 c 258
 50 990 l 258
 50 1245 214 1417 482 1417 c 256
 786 1417 885 1212 885 1016 c 258
 885 235 l 258
 885 55 799 -17 685 -17 c 256
 581 -17 478 55 478 165 c 258
 478 961 l 257
 562 1021 l 2
 617.430954392 1060.59353885 627 1067 651 1067 c 2
 652 1067 l 2
 686 1067 698 1035 698 961 c 2
 698 231 l 258
 698 134 711 103 745 103 c 256
 773 103 795 135 795 235 c 258
 795 1016 l 258
 795 1186 706 1347 482 1347 c 256
 278 1347 145 1206 145 996 c 258
 145 45 l 258
 145 -145 184 -307 442 -307 c 256
 478 -307 532.702148438 -293.24609375 560 -277 c 0
 588.37109375 -260.115234375 607.5859375 -263.965820312 616 -285 c 2
 618 -290 l 2
 622.965820312 -302.4140625 611 -329 586 -344 c 0
EndSplineSet
EndChar

StartChar: dollar
Encoding: 36 36 76
Width: 564
VWidth: 1920
Flags: HMW
LayerCount: 2
Fore
SplineSet
104 503 m 2
 110 503 l 2
 171 503 204 477 204 330 c 2
 204 320 l 2
 204 206 204 155 274 155 c 256
 328 155 344 217 344 338 c 256
 344 462 313 561 234 644 c 256
 98 787 12 875 12 1123 c 256
 12 1303 83 1435 264 1435 c 256
 446 1435 520 1336 520 1121 c 2
 520 1091 l 2
 520 994 494 948 441 948 c 2
 437 948 l 2
 374 948 344 994 344 1091 c 2
 344 1131 l 2
 344 1206 327 1265 269 1265 c 256
 233 1265 210 1203 210 1113 c 256
 210 1062 215 912 328 812 c 256
 464 692 554 597 554 348 c 256
 554 71 464 -35 264 -35 c 256
 80 -35 10 63 10 319 c 2
 10 329 l 2
 10 476 43 503 104 503 c 2
268 1590 m 6
 272 1590 l 6
 280 1590 290 1583 290 1565 c 6
 290 -165 l 6
 290 -183 280 -190 272 -190 c 6
 268 -190 l 6
 260 -190 250 -183 250 -165 c 6
 250 1565 l 6
 250 1583 260 1590 268 1590 c 6
EndSplineSet
EndChar

StartChar: numbersign
Encoding: 35 35 77
Width: 805
VWidth: 1920
Flags: HMW
LayerCount: 2
Fore
SplineSet
105 545 m 2
 660 545 l 2
 663.5 545 780 523.5 780 470 c 2
 780 465 l 2
 780 411.5 664 390 660 390 c 2
 105 390 l 2
 11.5 390 -15 411.5 -15 465 c 2
 -15 470 l 2
 -15 523.5 11.5 545 105 545 c 2
  Spiro
    105 545 [
    660 545 ]
    692.613 537.46 o
    749.719 513.189 o
    780 470 [
    780 465 ]
    749.83 421.811 o
    692.836 397.54 o
    660 390 [
    105 390 ]
    32.3867 397.54 o
    -4.68882 421.811 o
    -15 465 [
    -15 470 ]
    -4.68882 513.189 o
    32.3867 537.46 o
    0 0 z
  EndSpiro
145 1050 m 2
 700 1050 l 2
 793.5 1050 820 1028.5 820 975 c 2
 820 970 l 2
 820 916.5 793.5 895 700 895 c 2
 145 895 l 2
 51.5 895 25 916.5 25 970 c 2
 25 975 l 2
 25 1028.5 51.5 1050 145 1050 c 2
  Spiro
    145 1050 [
    700 1050 ]
    772.613 1042.46 o
    809.689 1018.19 o
    820 975 [
    820 970 ]
    809.689 926.811 o
    772.613 902.54 o
    700 895 [
    145 895 ]
    72.3867 902.54 o
    35.3112 926.811 o
    25 970 [
    25 975 ]
    35.3112 1018.19 o
    72.3867 1042.46 o
    0 0 z
  EndSpiro
620 1415 m 2
 625 1415 l 2
 710 1415 732.477419376 1376.79989938 717 1245 c 2
 589 155 l 2
 573.522580624 23.200100624 535 -15 460 -15 c 2
 455 -15 l 2
 380 -15 348.522580624 23.200100624 364 155 c 2
 492 1245 l 2
 507.477419376 1376.79989938 535 1415 620 1415 c 2
  Spiro
    620 1415 [
    625 1415 ]
    690.023 1400.25 o
    718.928 1347.58 o
    717 1245 [
    589 155 ]
    565.376 52.4238 o
    523.286 -0.246396 o
    460 -15 [
    455 -15 ]
    394.68 -0.246396 o
    364.032 52.4238 o
    364 155 [
    492 1245 ]
    513.147 1347.58 o
    552.528 1400.25 o
    0 0 z
  EndSpiro
335 1415 m 2
 340 1415 l 2
 423.5 1415 447.477419376 1376.79989938 432 1245 c 2
 304 155 l 2
 288.522580624 23.200100624 248.5 -15 175 -15 c 2
 170 -15 l 2
 96.5 -15 63.5225806237 23.200100624 79 155 c 2
 207 1245 l 2
 222.477419376 1376.79989938 251.5 1415 335 1415 c 2
  Spiro
    335 1415 [
    340 1415 ]
    404.356 1400.25 o
    433.596 1347.58 o
    432 1245 [
    304 155 ]
    280.043 52.4238 o
    237.62 -0.246396 o
    175 -15 [
    170 -15 ]
    110.347 -0.246396 o
    79.3645 52.4238 o
    79 155 [
    207 1245 ]
    228.479 1347.58 o
    268.195 1400.25 o
    0 0 z
  EndSpiro
EndSplineSet
EndChar

StartChar: slash
Encoding: 47 47 78
Width: 520
VWidth: 2048
Flags: HMW
LayerCount: 2
Fore
SplineSet
477 1295 m 6
 211 5 l 2
 194 -76 156 -115 103 -115 c 2
 101 -115 l 2
 47 -115 14 -76 31 5 c 2
 297 1295 l 2
 313.714466215 1376.05887751 352 1415 405 1415 c 2
 407 1415 l 2
 461 1415 493.714466215 1376.05887751 477 1295 c 6
EndSplineSet
EndChar

StartChar: percent
Encoding: 37 37 79
Width: 927
VWidth: 2048
Flags: HMW
LayerCount: 2
Fore
SplineSet
25 1042 m 258
 25 1209 l 258
 25 1344 104 1418 242 1418 c 256
 380 1418 465 1344 465 1209 c 258
 465 1042 l 258
 465 907 380 832 242 832 c 256
 104 832 25 907 25 1042 c 258
212 1026 m 258
 212 966 214 942 242 942 c 256
 270 942 278 966 278 1026 c 258
 278 1224 l 258
 278 1284 270 1308 242 1308 c 256
 214 1308 212 1284 212 1224 c 258
 212 1026 l 258
463 192 m 258
 463 359 l 258
 463 494 542 568 680 568 c 256
 818 568 903 494 903 359 c 258
 903 192 l 258
 903 57 818 -18 680 -18 c 256
 542 -18 463 57 463 192 c 258
650 176 m 258
 650 116 652 92 680 92 c 256
 708 92 716 116 716 176 c 258
 716 374 l 258
 716 434 708 458 680 458 c 256
 652 458 650 434 650 374 c 258
 650 176 l 258
817 1245 m 6
 291 155 l 6
 230.343823219 29.3056412721 207 -14 153 -14 c 6
 150 -14 l 6
 86 -14 50.3438232194 29.3056412721 111 155 c 6
 637 1245 l 6
 705.484540981 1386.91663435 721 1415 775 1415 c 6
 778 1415 l 6
 842 1415 885.484540981 1386.91663435 817 1245 c 6
EndSplineSet
EndChar

StartChar: hyphen
Encoding: 45 45 80
Width: 285
VWidth: 1920
Flags: HMW
LayerCount: 2
Fore
SplineSet
6 604 m 10
 6 621 l 18
 6 675 46 701 100 701 c 10
 186 701 l 18
 240 701 280 675 280 621 c 10
 280 604 l 18
 280 550 240 524 186 524 c 10
 100 524 l 18
 46 524 6 550 6 604 c 10
EndSplineSet
EndChar

StartChar: underscore
Encoding: 95 95 81
Width: 450
VWidth: 1920
Flags: HMW
LayerCount: 2
Fore
SplineSet
-15 -97 m 10
 -15 -80 l 18
 -15 -26 26 0 80 0 c 10
 370 0 l 18
 424 0 465 -26 465 -80 c 10
 465 -97 l 18
 465 -151 424 -177 370 -177 c 10
 80 -177 l 18
 26 -177 -15 -151 -15 -97 c 10
EndSplineSet
EndChar

StartChar: plus
Encoding: 43 43 82
Width: 520
VWidth: 1920
Flags: HMW
LayerCount: 2
Fore
SplineSet
8 678 m 10
 8 695 l 18
 8 749 48 775 102 775 c 10
 418 775 l 18
 472 775 512 749 512 695 c 10
 512 678 l 18
 512 624 472 598 418 598 c 10
 102 598 l 18
 48 598 8 624 8 678 c 10
252 950 m 10
 268 950 l 18
 322 950 348 909 348 855 c 10
 348 505 l 18
 348 451 322 410 268 410 c 10
 252 410 l 18
 198 410 172 451 172 505 c 10
 172 855 l 18
 172 909 198 950 252 950 c 10
EndSplineSet
EndChar

StartChar: equal
Encoding: 61 61 83
Width: 590
VWidth: 1920
Flags: HMW
LayerCount: 2
Fore
SplineSet
60 371 m 14
 60 389 l 22
 60 443 101 469 155 469 c 14
 435 469 l 22
 489 469 530 443 530 389 c 14
 530 371 l 22
 530 317 489 291 435 291 c 14
 155 291 l 22
 101 291 60 317 60 371 c 14
60 606 m 14
 60 624 l 22
 60 678 101 704 155 704 c 14
 435 704 l 22
 489 704 530 678 530 624 c 14
 530 606 l 22
 530 552 489 526 435 526 c 14
 155 526 l 22
 101 526 60 552 60 606 c 14
EndSplineSet
EndChar

StartChar: less
Encoding: 60 60 84
Width: 505
VWidth: 1920
Flags: HMW
LayerCount: 2
Fore
SplineSet
305 390 m 6
 95 487 l 6
 29 517 -1 541 -1 595 c 6
 -1 605 l 6
 -1 659 29 683 95 713 c 6
 305 810 l 6
 383 846 425 799 425 745 c 6
 425 740 l 6
 425 686 402 666 329 644 c 6
 184 600 l 261
 329 556 l 6
 402 534 425 514 425 460 c 6
 425 455 l 6
 425 401 383 354 305 390 c 6
EndSplineSet
EndChar

StartChar: greater
Encoding: 62 62 85
Width: 505
VWidth: 1920
Flags: HMW
LayerCount: 2
Fore
SplineSet
199 810 m 6
 409 713 l 6
 475 683 505 659 505 605 c 6
 505 595 l 6
 505 541 475 517 409 487 c 6
 199 390 l 6
 121 354 79 401 79 455 c 6
 79 460 l 6
 79 514 102 534 175 556 c 6
 320 600 l 261
 175 644 l 6
 102 666 79 686 79 740 c 6
 79 745 l 6
 79 799 121 846 199 810 c 6
EndSplineSet
EndChar

StartChar: backslash
Encoding: 92 92 86
Width: 519
VWidth: 2048
Flags: HMW
LayerCount: 2
Fore
SplineSet
489 5 m 2
 506 -76 473 -115 419 -115 c 2
 417 -115 l 2
 364 -115 326 -76 309 5 c 2
 43 1295 l 2
 26.28515625 1376.05859375 59 1415 113 1415 c 2
 115 1415 l 2
 168 1415 206.28515625 1376.05859375 223 1295 c 2
 489 5 l 2
EndSplineSet
EndChar

StartChar: bracketleft
Encoding: 91 91 87
Width: 380
VWidth: 1920
Flags: HMW
LayerCount: 2
Fore
SplineSet
235 1475 m 261
 235 -235 l 261
 275 -235 l 6
 329 -235 369 -246 369 -290 c 6
 369 -305 l 6
 369 -349 329 -360 275 -360 c 6
 139 -360 l 6
 61 -360 35 -333 35 -255 c 6
 35 1495 l 6
 35 1572.87106331 61 1600 139 1600 c 6
 275 1600 l 6
 329 1600 369 1589 369 1545 c 6
 369 1530 l 6
 369 1486 329 1475 275 1475 c 6
 235 1475 l 261
EndSplineSet
EndChar

StartChar: braceleft
Encoding: 123 123 88
Width: 388
VWidth: 2048
Flags: HMW
LayerCount: 2
Fore
SplineSet
76 1437 m 262
 76 1551 137 1593 281 1598 c 4
 334 1600 351 1572 351 1538 c 6
 351 1533 l 6
 351 1499 339 1483 305 1478 c 4
 281 1474 263 1454 263 1367 c 262
 263 786 l 262
 263 694 219 642 141 618 c 261
 219 594 263 542 263 450 c 262
 263 -126 l 262
 263 -212 281 -233 304 -237 c 4
 339 -243 351 -258 351 -292 c 6
 351 -302 l 6
 351 -336 334 -364 280 -362 c 4
 137 -357 76 -315 76 -201 c 262
 76 450 l 262
 76 506 63 533 39 544 c 4
 10 557 -12 568 -12 616 c 6
 -12 620 l 6
 -12 668 10 680 38 692 c 4
 64 703 76 729 76 786 c 262
 76 1437 l 262
EndSplineSet
EndChar

StartChar: bracketright
Encoding: 93 93 89
Width: 380
VWidth: 1920
Flags: HMW
LayerCount: 2
Fore
SplineSet
145 -235 m 261
 145 1475 l 261
 105 1475 l 6
 51 1475 11 1486 11 1530 c 6
 11 1545 l 6
 11 1589 51 1600 105 1600 c 6
 241 1600 l 6
 319 1600 345 1573 345 1495 c 6
 345 -255 l 6
 345 -332.87109375 319 -360 241 -360 c 6
 105 -360 l 6
 51 -360 11 -349 11 -305 c 6
 11 -290 l 6
 11 -246 51 -235 105 -235 c 6
 145 -235 l 261
EndSplineSet
EndChar

StartChar: braceright
Encoding: 125 125 90
Width: 388
VWidth: 2048
Flags: HMW
LayerCount: 2
Fore
SplineSet
310 -199 m 262
 310 -313 249 -355 105 -360 c 4
 52 -362 35 -334 35 -300 c 6
 35 -295 l 6
 35 -261 47 -245 81 -240 c 4
 105 -236 123 -216 123 -129 c 262
 123 452 l 262
 123 544 167 596 245 620 c 261
 167 644 123 696 123 788 c 262
 123 1364 l 262
 123 1450 105 1471 82 1475 c 4
 47 1481 35 1496 35 1530 c 6
 35 1540 l 6
 35 1574 52 1602 106 1600 c 4
 249 1595 310 1553 310 1439 c 262
 310 788 l 262
 310 732 323 705 347 694 c 4
 376 681 398 670 398 622 c 6
 398 618 l 6
 398 570 376 558 348 546 c 4
 322 535 310 509 310 452 c 262
 310 -199 l 262
EndSplineSet
EndChar

StartChar: bar
Encoding: 124 124 91
Width: 260
VWidth: 1920
Flags: HMW
LayerCount: 2
Fore
SplineSet
125 1615 m 10
 135 1615 l 18
 189 1615 220 1553 220 1495 c 10
 220 -255 l 18
 220 -309 189 -375 135 -375 c 10
 125 -375 l 18
 71 -375 40 -309 40 -255 c 10
 40 1495 l 18
 40 1553 71 1615 125 1615 c 10
EndSplineSet
EndChar

StartChar: asciitilde
Encoding: 126 126 92
Width: 664
VWidth: 2048
Flags: HMW
LayerCount: 2
Fore
SplineSet
211 562 m 260
 190 562 183 552 180 541 c 4
 170 503 138 487 100 487 c 6
 90 487 l 6
 36 487 1 535 15 586 c 4
 30 640 76 742 211 742 c 260
 355 742 403 644 454 644 c 260
 475 644 481 653 485 674 c 4
 490 702 527 724 565 724 c 6
 575 724 l 6
 629 724 669 676 655 624 c 4
 640 570 589 469 454 469 c 260
 310 469 262 562 211 562 c 260
EndSplineSet
EndChar

StartChar: asciicircum
Encoding: 94 94 93
Width: 412
VWidth: 1920
Flags: HMW
LayerCount: 2
Fore
SplineSet
205 1131 m 257
 183 811 l 6
 177.856459702 736.184868395 139 715 85 715 c 6
 80 715 l 2
 26 715 -20.8099355482 741.201322277 -6 811 c 2
 102 1320 l 2
 115.25941384 1382.49112634 146 1416 200 1416 c 2
 210 1416 l 2
 264 1416 294.74058616 1382.49112634 308 1320 c 2
 416 811 l 6
 430.809935548 741.201322277 386 715 330 715 c 2
 325 715 l 2
 270 715 232.143540298 736.184868395 227 811 c 6
 205 1131 l 257
EndSplineSet
EndChar

StartChar: figuredash
Encoding: 8210 8210 108
Width: 575
VWidth: 2048
Flags: HMW
LayerCount: 2
Fore
SplineSet
4 604 m 14
 4 621 l 22
 4 675 46 701 100 701 c 14
 474 701 l 22
 528 701 570 675 570 621 c 14
 570 604 l 22
 570 550 528 524 474 524 c 14
 100 524 l 22
 46 524 4 550 4 604 c 14
EndSplineSet
EndChar

StartChar: endash
Encoding: 8211 8211 109
Width: 550
VWidth: 2048
Flags: HMW
LayerCount: 2
Fore
SplineSet
5 604 m 10
 5 621 l 18
 5 675 47 701 101 701 c 10
 449 701 l 18
 503 701 545 675 545 621 c 10
 545 604 l 18
 545 550 503 524 449 524 c 10
 101 524 l 18
 47 524 5 550 5 604 c 10
EndSplineSet
EndChar

StartChar: emdash
Encoding: 8212 8212 110
Width: 1100
VWidth: 2048
Flags: HMW
LayerCount: 2
Fore
SplineSet
5 604 m 10
 5 621 l 18
 5 675 47 701 101 701 c 10
 999 701 l 18
 1053 701 1095 675 1095 621 c 10
 1095 604 l 18
 1095 550 1053 524 999 524 c 10
 101 524 l 18
 47 524 5 550 5 604 c 10
EndSplineSet
EndChar

StartChar: uni2015
Encoding: 8213 8213 111
Width: 1180
VWidth: 2048
Flags: HMW
LayerCount: 2
Fore
SplineSet
5 604 m 10
 5 621 l 18
 5 675 47 701 101 701 c 10
 1079 701 l 18
 1133 701 1175 675 1175 621 c 10
 1175 604 l 18
 1175 550 1133 524 1079 524 c 10
 101 524 l 18
 47 524 5 550 5 604 c 10
EndSplineSet
EndChar

StartChar: quoteleft
Encoding: 8216 8216 114
Width: 400
VWidth: 1920
Flags: HMW
LayerCount: 2
Fore
SplineSet
328 1451 m 10
 330 1451 l 18
 348 1451 356.89453125 1431.99511719 341 1395 c 10
 225 1125 l 257
 231 1125 l 2
 305 1125 351 1085 351 991 c 2
 351 904 l 2
 351 790 299 748 211 748 c 2
 195 748 l 2
 107 748 55 790 55 904 c 2
 55 945 l 2
 55 1033 72.2490234375 1103.0546875 127 1185 c 2
 278 1411 l 18
 297.577148438 1440.30078125 315 1451 328 1451 c 10
EndSplineSet
EndChar

StartChar: quotereversed
Encoding: 8219 8219 117
Width: 400
VWidth: 1920
Flags: HMW
LayerCount: 2
Fore
SplineSet
322 714 m 18
 309 714 291.577148438 724.69921875 272 754 c 10
 121 980 l 2
 66.2490234375 1061.9453125 49 1132 49 1220 c 2
 49 1261 l 2
 49 1375 101 1417 189 1417 c 2
 205 1417 l 2
 293 1417 345 1375 345 1261 c 2
 345 1174 l 2
 345 1080 299 1040 225 1040 c 2
 219 1040 l 257
 335 770 l 18
 350.89453125 733.004882812 342 714 324 714 c 10
 322 714 l 18
EndSplineSet
EndChar

StartChar: bullet
Encoding: 8226 8226 120
Width: 395
VWidth: 2048
Flags: HMW
LayerCount: 2
Fore
SplineSet
25 722 m 262
 25 769 l 262
 25 864 97 922 195 922 c 260
 293 922 370 864 370 769 c 262
 370 722 l 262
 370 627 293 568 195 568 c 260
 97 568 25 627 25 722 c 262
EndSplineSet
EndChar

StartChar: dagger
Encoding: 8224 8224 124
Width: 554
VWidth: 1920
Flags: HMW
LayerCount: 2
Fore
SplineSet
5 977 m 14
 5 995 l 22
 5 1033 47 1050 101 1050 c 14
 453 1050 l 22
 507 1050 549 1023 549 995 c 14
 549 977 l 22
 549 949 507 923 453 923 c 14
 101 923 l 22
 47 923 5 939 5 977 c 14
260 1415 m 14
 294 1415 l 22
 372 1415 400 1358 400 1280 c 14
 400 120 l 22
 400 42 372 -15 294 -15 c 14
 260 -15 l 22
 182 -15 154 42 154 120 c 14
 154 1280 l 22
 154 1358 182 1415 260 1415 c 14
EndSplineSet
EndChar

StartChar: daggerdbl
Encoding: 8225 8225 125
Width: 554
VWidth: 1920
Flags: HMW
LayerCount: 2
Fore
SplineSet
5 54 m 14
 5 72 l 22
 5 110 47 127 101 127 c 14
 453 127 l 22
 507 127 549 100 549 72 c 14
 549 54 l 22
 549 26 507 0 453 0 c 14
 101 0 l 22
 47 0 5 16 5 54 c 14
5 977 m 10
 5 995 l 18
 5 1033 47 1050 101 1050 c 10
 453 1050 l 18
 507 1050 549 1023 549 995 c 10
 549 977 l 18
 549 949 507 923 453 923 c 10
 101 923 l 18
 47 923 5 939 5 977 c 10
260 1415 m 10
 294 1415 l 18
 372 1415 400 1358 400 1280 c 10
 400 -240 l 18
 400 -318 372 -375 294 -375 c 10
 260 -375 l 18
 182 -375 154 -318 154 -240 c 10
 154 1280 l 18
 154 1358 182 1415 260 1415 c 10
EndSplineSet
EndChar

StartChar: perthousand
Encoding: 8240 8240 126
Width: 1417
VWidth: 2048
Flags: HMW
LayerCount: 2
Fore
SplineSet
953 192 m 258
 953 359 l 258
 953 494 1032 568 1170 568 c 256
 1308 568 1393 494 1393 359 c 258
 1393 192 l 258
 1393 57 1308 -18 1170 -18 c 256
 1032 -18 953 57 953 192 c 258
1140 176 m 258
 1140 116 1142 92 1170 92 c 256
 1198 92 1206 116 1206 176 c 258
 1206 374 l 258
 1206 434 1198 458 1170 458 c 256
 1142 458 1140 434 1140 374 c 258
 1140 176 l 258
25 1042 m 258
 25 1209 l 258
 25 1344 104 1418 242 1418 c 256
 380 1418 465 1344 465 1209 c 258
 465 1042 l 258
 465 907 380 832 242 832 c 256
 104 832 25 907 25 1042 c 258
212 1026 m 258
 212 966 214 942 242 942 c 256
 270 942 278 966 278 1026 c 258
 278 1224 l 258
 278 1284 270 1308 242 1308 c 256
 214 1308 212 1284 212 1224 c 258
 212 1026 l 258
463 192 m 258
 463 359 l 258
 463 494 542 568 680 568 c 256
 818 568 903 494 903 359 c 258
 903 192 l 258
 903 57 818 -18 680 -18 c 256
 542 -18 463 57 463 192 c 258
650 176 m 258
 650 116 652 92 680 92 c 256
 708 92 716 116 716 176 c 258
 716 374 l 258
 716 434 708 458 680 458 c 256
 652 458 650 434 650 374 c 258
 650 176 l 258
817 1245 m 2
 291 155 l 2
 230.343823219 29.3056412721 207 -14 153 -14 c 2
 150 -14 l 2
 86 -14 50.3438232194 29.3056412721 111 155 c 2
 637 1245 l 2
 705.484540981 1386.91663435 721 1415 775 1415 c 2
 778 1415 l 2
 842 1415 885.484540981 1386.91663435 817 1245 c 2
EndSplineSet
EndChar

StartChar: uni2031
Encoding: 8241 8241 127
Width: 1907
VWidth: 2048
Flags: HMW
LayerCount: 2
Fore
SplineSet
1443 192 m 258
 1443 359 l 258
 1443 494 1522 568 1660 568 c 256
 1798 568 1883 494 1883 359 c 258
 1883 192 l 258
 1883 57 1798 -18 1660 -18 c 256
 1522 -18 1443 57 1443 192 c 258
1630 176 m 258
 1630 116 1632 92 1660 92 c 256
 1688 92 1696 116 1696 176 c 258
 1696 374 l 258
 1696 434 1688 458 1660 458 c 256
 1632 458 1630 434 1630 374 c 258
 1630 176 l 258
953 192 m 258
 953 359 l 258
 953 494 1032 568 1170 568 c 256
 1308 568 1393 494 1393 359 c 258
 1393 192 l 258
 1393 57 1308 -18 1170 -18 c 256
 1032 -18 953 57 953 192 c 258
1140 176 m 258
 1140 116 1142 92 1170 92 c 256
 1198 92 1206 116 1206 176 c 258
 1206 374 l 258
 1206 434 1198 458 1170 458 c 256
 1142 458 1140 434 1140 374 c 258
 1140 176 l 258
25 1042 m 258
 25 1209 l 258
 25 1344 104 1418 242 1418 c 256
 380 1418 465 1344 465 1209 c 258
 465 1042 l 258
 465 907 380 832 242 832 c 256
 104 832 25 907 25 1042 c 258
212 1026 m 258
 212 966 214 942 242 942 c 256
 270 942 278 966 278 1026 c 258
 278 1224 l 258
 278 1284 270 1308 242 1308 c 256
 214 1308 212 1284 212 1224 c 258
 212 1026 l 258
463 192 m 258
 463 359 l 258
 463 494 542 568 680 568 c 256
 818 568 903 494 903 359 c 258
 903 192 l 258
 903 57 818 -18 680 -18 c 256
 542 -18 463 57 463 192 c 258
650 176 m 258
 650 116 652 92 680 92 c 256
 708 92 716 116 716 176 c 258
 716 374 l 258
 716 434 708 458 680 458 c 256
 652 458 650 434 650 374 c 258
 650 176 l 258
817 1245 m 2
 291 155 l 2
 230.343823219 29.3056412721 207 -14 153 -14 c 2
 150 -14 l 2
 86 -14 50.3438232194 29.3056412721 111 155 c 2
 637 1245 l 2
 705.484540981 1386.91663435 721 1415 775 1415 c 2
 778 1415 l 2
 842 1415 885.484540981 1386.91663435 817 1245 c 2
EndSplineSet
EndChar

StartChar: fraction
Encoding: 8260 8260 128
Width: 580
VWidth: 1920
Flags: HMW
LayerCount: 2
Fore
SplineSet
466 1293 m 2
 470 1291 l 2
 498.045920396 1276.9770398 517.913700884 1251.26252953 490 1156 c 10
 221 239 l 18
 195.760869504 152.961774479 154.925390625 126.537304687 120 144 c 10
 116 146 l 18
 81.074609375 163.462695312 74.7608695037 197.961774479 100 284 c 10
 369 1201 l 18
 396.913700884 1296.26252953 439.57265625 1306.21367188 466 1293 c 2
EndSplineSet
EndChar

StartChar: uni2074
Encoding: 8308 8308 129
Width: 349
VWidth: 1920
Flags: HMW
LayerCount: 2
Fore
SplineSet
358 879 m 6
 358 876 l 6
 358 832 330 825 298 825 c 6
 292 825 l 261
 292 723 l 6
 292 649 261 621 217 621 c 6
 214 621 l 6
 170 621 145 649 145 723 c 6
 145 825 l 261
 103 825 l 6
 23 825 1 844 1 888 c 6
 1 891 l 6
 1 917 6 947 27 1029 c 6
 116 1383 l 6
 131 1441 158 1479 208 1479 c 6
 223 1479 l 6
 273 1479 292 1439 292 1377 c 6
 292 930 l 261
 298 930 l 6
 330 930 358 923 358 879 c 6
148 930 m 261
 148 1230 l 261
 89 930 l 261
 148 930 l 261
EndSplineSet
EndChar

StartChar: uni2073
Encoding: 8307 8307 130
Width: 354
VWidth: 1920
Flags: HMW
LayerCount: 2
Fore
SplineSet
86 913 m 6
 95 913 l 6
 133 913 164 884 164 810 c 6
 164 788 l 6
 164 752 164 725 178 725 c 4
 192 725 193 747 193 786 c 6
 193 956 l 6
 193 983 190 1002 161 1002 c 6
 160 1002 l 6
 140 1002 113 1015 113 1053 c 6
 113 1056 l 6
 113 1094 134 1107 154 1107 c 6
 155 1107 l 6
 181 1107 188 1119 188 1143 c 6
 188 1322 l 6
 188 1358 186 1374 173 1374 c 4
 160 1374 159 1354 159 1323 c 6
 159 1300 l 6
 159 1226 135 1192 91 1192 c 6
 85 1192 l 6
 41 1192 15 1226 15 1300 c 6
 15 1341 l 6
 15 1411 54 1480 176 1480 c 4
 298 1480 337 1408 337 1339 c 6
 337 1181 l 6
 337 1082 280 1050 173 1050 c 5
 179 1065 l 5
 286 1065 339 1035 339 930 c 6
 339 788 l 6
 339 686 298 619 161 619 c 4
 43 619 17 681 17 770 c 6
 17 810 l 6
 17 884 48 913 86 913 c 6
EndSplineSet
EndChar

StartChar: uni2072
Encoding: 8306 8306 131
Width: 360
VWidth: 1920
Flags: HMW
LayerCount: 2
Fore
SplineSet
21 721 m 262
 21 932 191 991 191 1200 c 262
 191 1333 l 262
 191 1369 189 1383 178 1383 c 260
 168 1383 167 1368 167 1334 c 262
 167 1218 l 6
 167 1150 147 1116 97 1116 c 6
 91 1116 l 6
 41 1116 23 1150 23 1218 c 6
 23 1316 l 262
 23 1416 67 1488 186 1488 c 260
 284 1488 335 1424 335 1328 c 262
 335 1237 l 262
 335 992 162 887 162 751 c 262
 162 748 l 261
 252 748 l 6
 314 748 354 738 354 694 c 6
 354 691 l 6
 354 647 314 637 252 637 c 6
 108 637 l 6
 40 637 21 680 21 718 c 6
 21 721 l 262
EndSplineSet
EndChar

StartChar: uni2070
Encoding: 8304 8304 132
Width: 389
VWidth: 1920
Flags: HMW
LayerCount: 2
Fore
SplineSet
25 777 m 258
 25 1324 l 258
 25 1422 74 1481 195 1481 c 256
 316 1481 364 1422 364 1324 c 258
 364 777 l 258
 364 679 316 620 195 620 c 256
 74 620 25 679 25 777 c 258
172 783 m 258
 172 739 176 722 195 722 c 256
 214 722 217 739 217 783 c 258
 217 1318 l 258
 217 1362 214 1379 195 1379 c 256
 176 1379 172 1362 172 1318 c 258
 172 783 l 258
EndSplineSet
EndChar

StartChar: uni2075
Encoding: 8309 8309 133
Width: 382
VWidth: 1920
Flags: HMW
LayerCount: 2
Fore
SplineSet
99 851 m 6
 102 851 l 6
 158 851 168 835 171 779 c 4
 173 738 177 715 191 715 c 4
 208 715 210 739 210 851 c 6
 210 1002 l 6
 210 1056 209 1075 196 1075 c 4
 180 1075 183 1057 179 1018 c 4
 174 961 158 946 108 946 c 6
 105 946 l 6
 67 946 38 980 42 1048 c 6
 65 1388 l 6
 69 1450 100 1463 162 1463 c 6
 264 1463 l 6
 314 1463 340 1450 340 1418 c 6
 340 1417 l 6
 340 1381 324 1358 258 1358 c 6
 182 1358 l 5
 156 1040 l 5
 150 1040 l 5
 154 1143 186 1181 252 1181 c 4
 324 1181 357 1142 357 1014 c 6
 357 851 l 6
 357 675 302 613 179 613 c 4
 79 613 43 669 35 779 c 4
 31 829 43 851 99 851 c 6
EndSplineSet
EndChar

StartChar: uni2076
Encoding: 8310 8310 134
Width: 388
VWidth: 1920
Flags: HMW
LayerCount: 2
Fore
SplineSet
198 1033 m 260
 183 1033 180 1016 180 955 c 262
 180 937 l 261
 153 961 l 261
 153 1040 181 1108 252 1108 c 260
 338 1108 363 1047 363 941 c 262
 363 791 l 262
 363 672 319 622 201 622 c 260
 70 622 35 683 35 827 c 262
 35 1304 l 262
 35 1418 79 1481 195 1481 c 260
 314 1481 353 1421 353 1318 c 262
 353 1264 l 6
 353 1190 328 1162 284 1162 c 6
 281 1162 l 6
 237 1162 212 1190 212 1264 c 6
 212 1306 l 262
 212 1346 212 1376 196 1376 c 260
 181 1376 180 1347 180 1302 c 262
 180 807 l 262
 180 744 184 727 198 727 c 260
 216 727 216 745 216 805 c 262
 216 947 l 262
 216 1008 213 1033 198 1033 c 260
EndSplineSet
EndChar

StartChar: uni2077
Encoding: 8311 8311 135
Width: 280
VWidth: 1920
Flags: HMW
LayerCount: 2
Fore
SplineSet
282 1371 m 14
 193 723 l 22
 185 661 155 621 104 621 c 14
 102 621 l 22
 51 621 26 663 39 723 c 14
 168 1335 l 29
 92 1335 l 22
 24 1335 -9 1356 -9 1401 c 14
 -9 1404 l 22
 -9 1455 24 1470 92 1470 c 14
 202 1470 l 22
 270 1470 291 1438 282 1371 c 14
EndSplineSet
EndChar

StartChar: uni2078
Encoding: 8312 8312 136
Width: 404
VWidth: 1920
Flags: HMW
LayerCount: 2
Fore
SplineSet
203 724 m 256
 221 724 225 737 225 760 c 258
 225 971 l 258
 225 994 221 1008 203 1008 c 256
 185 1008 180 994 180 971 c 258
 180 760 l 258
 180 737 185 724 203 724 c 256
203 1113 m 256
 218 1113 222 1124 222 1141 c 258
 222 1353 l 258
 222 1367 217 1377 203 1377 c 256
 189 1377 182 1367 182 1353 c 258
 182 1141 l 258
 182 1124 188 1113 203 1113 c 256
212 1068 m 257
 341 1068 372 1016 372 928 c 258
 372 765 l 258
 372 673 340 620 203 620 c 256
 81 620 32 673 32 765 c 258
 32 928 l 258
 32 1016 79 1068 193 1068 c 257
 194 1056 l 257
 84 1058 36 1104 36 1200 c 258
 36 1333 l 258
 36 1430 93 1481 203 1481 c 256
 328 1481 369 1430 369 1333 c 258
 369 1200 l 258
 369 1104 336 1058 211 1056 c 257
 212 1068 l 257
EndSplineSet
EndChar

StartChar: uni2079
Encoding: 8313 8313 137
Width: 388
VWidth: 1920
Flags: HMW
LayerCount: 2
Fore
SplineSet
190 1067 m 260
 205 1067 208 1084 208 1145 c 262
 208 1163 l 261
 235 1139 l 261
 235 1060 207 992 136 992 c 260
 50 992 25 1053 25 1159 c 262
 25 1309 l 262
 25 1428 69 1478 187 1478 c 260
 318 1478 353 1417 353 1273 c 262
 353 796 l 262
 353 682 309 619 193 619 c 260
 74 619 29 679 29 782 c 262
 29 836 l 6
 29 910 54 938 98 938 c 6
 101 938 l 6
 145 938 170 910 170 836 c 6
 170 794 l 262
 170 754 170 724 189 724 c 260
 207 724 208 753 208 798 c 262
 208 1293 l 262
 208 1356 204 1373 190 1373 c 260
 172 1373 172 1355 172 1295 c 262
 172 1153 l 262
 172 1092 175 1067 190 1067 c 260
EndSplineSet
EndChar

StartChar: uni00B9
Encoding: 185 185 138
Width: 258
VWidth: 1920
Flags: HMW
LayerCount: 2
Fore
SplineSet
82 1445 m 256
 99 1451 105 1454 116 1467 c 256
 127 1481 141 1483 155 1483 c 258
 156 1483 l 258
 185 1483 203 1464 203 1423 c 258
 203 703 l 258
 203 650 175 625 131 625 c 258
 129 625 l 258
 85 625 57 650 57 703 c 258
 57 1391 l 258
 57 1423 66 1439 82 1445 c 256
EndSplineSet
EndChar

StartChar: cent
Encoding: 162 162 154
Width: 479
VWidth: 1920
Flags: HMW
LayerCount: 2
Fore
SplineSet
245 1240 m 258
 250 1240 l 258
 258 1240 267 1234 267 1216 c 258
 267 -166 l 258
 267 -184 258 -190 250 -190 c 258
 245 -190 l 258
 237 -190 227 -184 227 -166 c 258
 227 1216 l 258
 227 1234 237 1240 245 1240 c 258
EndSplineSet
Refer: 40 99 N 1 0 0 1 0 0 2
EndChar

StartChar: uni203D
Encoding: 8253 8253 157
Width: 800
VWidth: 1920
Flags: HMW
LayerCount: 2
Fore
SplineSet
285 930 m 2
 285 1100 l 2
 285 1207 326 1245 380 1245 c 2
 385 1245 l 2
 439 1245 490 1207 490 1100 c 2
 490 830 l 2
 490 823 489 817 489 810 c 2
 441 450 l 2
 441 443 421 430 417 430 c 2
 415 430 l 2
 361 430 334.692036093 455.056885053 320 560 c 2
 299 710 l 2
 289.800313849 775.712043939 285 813 285 930 c 2
434 -17 m 2
 418 -17 l 2
 334 -17 278 24 278 138 c 2
 278 222 l 2
 278 336 334 377 418 377 c 2
 434 377 l 2
 518 377 574 336 574 222 c 2
 574 138 l 2
 574 24 518 -17 434 -17 c 2
422 430 m 2
 417 430 l 2
 413 430 357.022058674 493.000040549 357 499 c 0
 356 771 505 848 505 983 c 258
 505 1198 l 258
 505 1248 486 1285 392 1285 c 256
 287 1285 255 1235 255 1182 c 258
 255 942 l 2
 255 815 214 767 140 767 c 2
 130 767 l 2
 56 767 15 815 15 942 c 2
 15 1102 l 258
 15 1346 138 1467 412 1467 c 256
 650 1467 785 1373 785 1153 c 258
 785 1078 l 258
 785 745 591.004901098 668.563099061 536 548 c 0
 497.306969707 463.190254848 475 430 422 430 c 2
EndSplineSet
EndChar

StartChar: ordfeminine
Encoding: 170 170 159
Width: 430
VWidth: 1920
Flags: HMW
LayerCount: 2
Fore
SplineSet
192 892 m 0
 192 854 192.5 791 207 791 c 256
 222 791 223.5 835 223.5 903 c 257
 262.5 827 l 257
 262.5 705 221.5 609 137 609 c 256
 50 609 10 693 10 852 c 0
 10 1047 77 1095 159 1139 c 256
 208.799804688 1165.72167969 223.5 1185 223.5 1211 c 257
 235.5 1084 l 257
 235.5 1066 222.556640625 1041.53417969 211 1024 c 256
 196.5 1002 192 930 192 892 c 0
223.5 769 m 258
 223.5 1261 l 258
 223.5 1315 222.5 1341 208 1341 c 256
 197.5 1341 193.5 1323 192.5 1222 c 0
 192.4609375 1218.00585938 191.5 1217 189.5 1217 c 2
 39.5 1217 l 2
 37.5 1217 36.263671875 1217.97558594 36.5 1222 c 0
 46.5 1392 95 1489 223.5 1489 c 256
 366.5 1489 402.5 1395 402.5 1214 c 258
 402.5 769 l 258
 402.5 712 408.5 673 419.5 648 c 0
 421 645 420.5 644 418.5 644 c 2
 253.5 644 l 2
 251.5 644 250 646 249 648 c 0
 238 674 223.5 712 223.5 769 c 258
EndSplineSet
EndChar

StartChar: exclamdown
Encoding: 161 161 160
Width: 400
VWidth: 1920
Flags: HMW
LayerCount: 2
Fore
SplineSet
192 1065 m 2
 208 1065 l 2
 292 1065 348 1024 348 910 c 2
 348 826 l 2
 348 712 292 671 208 671 c 2
 192 671 l 2
 108 671 52 712 52 826 c 2
 52 910 l 2
 52 1024 108 1065 192 1065 c 2
370 -102 m 2
 370 -232 l 2
 370 -339 312 -417 205 -417 c 2
 195 -417 l 2
 88 -417 30 -339 30 -232 c 2
 30 -102 l 2
 30 5 35.1728515625 71.5986328125 81 268 c 2
 109 388 l 2
 134.911132812 499.047851562 158 563 195 563 c 2
 205 563 l 2
 242 563 265.088867188 499.047851562 291 388 c 2
 319 268 l 2
 364.827148438 71.5986328125 370 5 370 -102 c 2
EndSplineSet
EndChar

StartChar: AE
Encoding: 198 198 161
Width: 788
VWidth: 1920
Flags: HMW
LayerCount: 2
Back
SplineSet
493 1400 m 5
 201 10 l 6
 197.338867188 4.4189453125 195 0 188 0 c 6
 -12 0 l 6
 -19 0 -22.361328125 4.896484375 -19 10 c 6
 270 1390 l 6
 273.361328125 1395.10351562 276 1400 283 1400 c 6
 493 1400 l 5
EndSplineSet
Fore
SplineSet
118 520 m 257
 498 520 l 257
 498 395 l 257
 118 395 l 257
 118 520 l 257
493 1400 m 1
 226 130 l 2
 204.587629814 28.1508983666 155 -15 98 -15 c 2
 88 -15 l 2
 31 -15 -15.2566453492 28.6497500229 6 130 c 2
 243 1260 l 2
 266.251862726 1370.93445957 316 1400 403 1400 c 2
 493 1400 l 1
EndSplineSet
Refer: 16 69 N 1 0 0 1 348 0 2
EndChar

StartChar: questiondown
Encoding: 191 191 162
Width: 600
VWidth: 1920
Flags: HMW
LayerCount: 2
Fore
SplineSet
297 1067 m 6
 313 1067 l 6
 397 1067 453 1026 453 912 c 6
 453 828 l 6
 453 714 397 673 313 673 c 6
 297 673 l 6
 213 673 157 714 157 828 c 6
 157 912 l 6
 157 1026 213 1067 297 1067 c 6
322 635 m 6
 327 635 l 6
 381 635 403 608 403 515 c 4
 403 408 295 320 295 173 c 262
 295 -128 l 262
 295 -223 302 -241 320 -241 c 260
 340 -241 345 -216 345 -120 c 262
 345 -57 l 6
 345 57 385 113 459 113 c 6
 469 113 l 6
 543 113 585 57 585 -57 c 6
 585 -155 l 262
 585 -297 505 -417 307 -417 c 260
 109 -417 15 -311 15 -171 c 262
 15 116 l 262
 15 358 187 436 217 526 c 4
 248 616 269 635 322 635 c 6
EndSplineSet
EndChar

StartChar: yen
Encoding: 165 165 163
Width: 645
VWidth: 1920
Flags: HMW
LayerCount: 2
Fore
SplineSet
23 474 m 14
 23 476 l 22
 23 494 40 506 78 506 c 14
 563 506 l 22
 601 506 618 494 618 476 c 14
 618 474 l 22
 618 456 601 444 563 444 c 14
 78 444 l 22
 40 444 23 456 23 474 c 14
23 609 m 14
 23 611 l 22
 23 629 40 641 78 641 c 14
 563 641 l 22
 601 641 618 629 618 611 c 14
 618 609 l 22
 618 591 601 579 563 579 c 14
 78 579 l 22
 40 579 23 591 23 609 c 14
EndSplineSet
Refer: 36 89 N 1 0 0 1 0 0 2
EndChar

StartChar: gravecomb
Encoding: 768 768 164
Width: 0
Flags: HMW
AnchorPoint: "top" -563 1000 mark 0
LayerCount: 2
Fore
SplineSet
-549 1054 m 2
 -553 1054 l 2
 -597 1054 -652 1121 -709 1204 c 2
 -727 1230 l 2
 -801 1339 -744 1430 -666 1430 c 2
 -661 1430 l 2
 -583 1430 -549 1390 -535 1290 c 2
 -525 1214 l 2
 -510 1105 -521 1054 -549 1054 c 2
EndSplineSet
EndChar

StartChar: acutecomb
Encoding: 769 769 165
Width: 0
Flags: HMW
AnchorPoint: "top" -548 1000 mark 0
LayerCount: 2
Fore
SplineSet
-562 1054 m 6
 -590 1054 -601 1105 -586 1214 c 6
 -575 1290 l 6
 -561 1390 -527 1430 -449 1430 c 6
 -444 1430 l 6
 -366 1430 -308 1339 -382 1230 c 6
 -400 1204 l 6
 -457 1121 -512 1054 -556 1054 c 6
 -562 1054 l 6
EndSplineSet
EndChar

StartChar: uni0302
Encoding: 770 770 166
Width: 0
VWidth: 1920
Flags: HMW
AnchorPoint: "top" -557 1000.48 mark 0
LayerCount: 2
Fore
SplineSet
-558 1261 m 257
 -572 1210 l 2
 -598.94386843 1111.84733643 -625 1088 -669 1088 c 2
 -672 1088 l 2
 -716 1088 -744.5677378 1113.69164739 -713 1210 c 2
 -687 1290 l 2
 -654.966647824 1388.56416054 -633 1415 -559 1415 c 2
 -557 1415 l 2
 -483 1415 -460.002227171 1387.14922049 -426 1290 c 2
 -398 1210 l 2
 -365.149100541 1114.62642092 -392 1088 -438 1088 c 2
 -441 1088 l 2
 -486 1088 -511.831291565 1113.83724186 -542 1210 c 2
 -558 1261 l 257
EndSplineSet
EndChar

StartChar: tildecomb
Encoding: 771 771 167
Width: 0
Flags: HMW
AnchorPoint: "top" -578 1000 mark 0
LayerCount: 2
Fore
SplineSet
-617 1229 m 256
 -633 1229 -636.841976734 1210.15199714 -637 1197 c 0
 -637.912310864 1121.06997939 -652 1093 -685 1093 c 2
 -688 1093 l 2
 -722 1093 -747 1131.00097656 -747 1187 c 4
 -747 1292 -707 1399 -632 1399 c 260
 -548 1399 -539 1232 -513 1232 c 256
 -498 1232 -492.182054033 1250.97581542 -492 1293 c 0
 -491.666437122 1369.99751402 -460 1388 -437 1388 c 2
 -435 1388 l 2
 -411 1388 -382.911396399 1369.99968447 -383 1283 c 0
 -383.160925678 1124.98742423 -453 1082 -498 1082 c 256
 -582 1082 -591 1229 -617 1229 c 256
EndSplineSet
EndChar

StartChar: uni0304
Encoding: 772 772 168
Width: 0
VWidth: 1920
Flags: HMW
AnchorPoint: "top" -560 1000 mark 0
LayerCount: 2
Fore
SplineSet
-710 1151 m 14
 -710 1154 l 22
 -710 1198 -684 1211 -630 1211 c 14
 -490 1211 l 22
 -436 1211 -410 1198 -410 1154 c 14
 -410 1151 l 22
 -410 1107 -436 1094 -490 1094 c 14
 -630 1094 l 22
 -684 1094 -710 1107 -710 1151 c 14
EndSplineSet
EndChar

StartChar: uni0306
Encoding: 774 774 169
Width: 0
VWidth: 1920
Flags: HMW
AnchorPoint: "top" -560 1000 mark 0
LayerCount: 2
Fore
SplineSet
-560 1265 m 4
 -530 1265 -522 1309 -522 1357 c 4
 -522 1435 -492 1453 -458 1453 c 6
 -455 1453 l 6
 -421 1453 -379.667532178 1434.99762913 -380 1354 c 4
 -380.541967308 1221.96296014 -428 1095 -560 1095 c 4
 -692 1095 -739.691848198 1222.97919484 -740 1357 c 4
 -740.179341566 1434.99889811 -699 1453 -665 1453 c 6
 -662 1453 l 6
 -628 1453 -598 1435 -598 1355 c 4
 -598 1305 -589 1265 -560 1265 c 4
EndSplineSet
EndChar

StartChar: uni0307
Encoding: 775 775 170
Width: 0
Flags: HMW
AnchorPoint: "top" -548 950 mark 0
LayerCount: 2
Fore
SplineSet
-548 1030 m 2
 -552 1030 l 2
 -626 1030 -672 1077 -672 1135 c 2
 -672 1145 l 2
 -672 1203 -626 1250 -552 1250 c 2
 -548 1250 l 2
 -474 1250 -428 1203 -428 1145 c 2
 -428 1135 l 2
 -428 1077 -474 1030 -548 1030 c 2
EndSplineSet
EndChar

StartChar: uni0308
Encoding: 776 776 171
Width: 0
Flags: HMW
AnchorPoint: "top" -548 950 mark 0
LayerCount: 2
Fore
SplineSet
-665 1030 m 2
 -670 1030 l 2
 -728 1030 -765 1071 -765 1135 c 2
 -765 1145 l 2
 -765 1209 -728 1250 -670 1250 c 2
 -665 1250 l 2
 -607 1250 -570 1209 -570 1145 c 2
 -570 1135 l 2
 -570 1071 -607 1030 -665 1030 c 2
-440 1030 m 2
 -445 1030 l 2
 -503 1030 -540 1071 -540 1135 c 2
 -540 1145 l 2
 -540 1209 -503 1250 -445 1250 c 2
 -440 1250 l 2
 -382 1250 -345 1209 -345 1145 c 2
 -345 1135 l 2
 -345 1071 -382 1030 -440 1030 c 2
EndSplineSet
EndChar

StartChar: uni030A
Encoding: 778 778 172
Width: 0
Flags: HMW
AnchorPoint: "top" -554 1000 mark 0
LayerCount: 2
Fore
SplineSet
-458 1232 m 4
 -458 1180 -502 1137 -554 1137 c 4
 -607 1137 -652 1179 -652 1232 c 4
 -652 1283 -607 1327 -554 1327 c 4
 -501 1327 -458 1286 -458 1232 c 4
-504 1232 m 4
 -504 1260 -527 1280 -554 1280 c 4
 -581 1280 -604 1257 -604 1232 c 4
 -604 1205 -581 1184 -554 1184 c 4
 -528 1184 -504 1207 -504 1232 c 4
EndSplineSet
EndChar

StartChar: uni030B
Encoding: 779 779 173
Width: 0
Flags: HMW
AnchorPoint: "top" -618 1000 mark 0
LayerCount: 2
Fore
SplineSet
-499 1054 m 6
 -527 1054 -538 1105 -523 1214 c 6
 -512 1290 l 6
 -498 1390 -464 1430 -386 1430 c 6
 -381 1430 l 6
 -303 1430 -245 1339 -319 1230 c 6
 -337 1204 l 6
 -394 1121 -449 1054 -493 1054 c 6
 -499 1054 l 6
-755 1054 m 6
 -783 1054 -794 1105 -779 1214 c 6
 -768 1290 l 6
 -754 1390 -720 1430 -642 1430 c 6
 -637 1430 l 6
 -559 1430 -501 1339 -575 1230 c 6
 -593 1204 l 6
 -650 1121 -705 1054 -749 1054 c 6
 -755 1054 l 6
EndSplineSet
EndChar

StartChar: uni030C
Encoding: 780 780 174
Width: 0
Flags: HMW
AnchorPoint: "top" -554 1000 mark 0
LayerCount: 2
Fore
SplineSet
-554 1259 m 261
 -540 1310 l 6
 -513.055664062 1408.15234375 -487 1432 -443 1432 c 6
 -440 1432 l 6
 -396 1432 -367.432617188 1406.30859375 -399 1310 c 6
 -425 1230 l 6
 -457.033203125 1131.43554688 -479 1105 -553 1105 c 6
 -555 1105 l 6
 -629 1105 -651.998046875 1132.85058594 -686 1230 c 6
 -714 1310 l 6
 -746.850585938 1405.37402344 -720 1432 -674 1432 c 6
 -671 1432 l 6
 -626 1432 -600.168945312 1406.16308594 -570 1310 c 6
 -554 1259 l 261
EndSplineSet
EndChar

StartChar: uni030F
Encoding: 783 783 175
Width: 0
Flags: HMW
AnchorPoint: "top" -508 1000 mark 0
LayerCount: 2
Fore
SplineSet
-606 1054 m 2
 -612 1054 l 2
 -656 1054 -711 1121 -768 1204 c 2
 -786 1230 l 2
 -860 1339 -802 1430 -724 1430 c 2
 -719 1430 l 2
 -641 1430 -607 1390 -593 1290 c 2
 -582 1214 l 2
 -567 1105 -578 1054 -606 1054 c 2
-350 1054 m 2
 -356 1054 l 2
 -400 1054 -455 1121 -512 1204 c 2
 -530 1230 l 2
 -604 1339 -546 1430 -468 1430 c 2
 -463 1430 l 2
 -385 1430 -351 1390 -337 1290 c 2
 -326 1214 l 2
 -311 1105 -322 1054 -350 1054 c 2
EndSplineSet
EndChar

StartChar: uni0311
Encoding: 785 785 176
Width: 0
Flags: HMW
AnchorPoint: "top" -604 1000 mark 0
LayerCount: 2
Fore
SplineSet
-604 1345 m 4
 -634 1345 -642 1301 -642 1253 c 4
 -642 1175 -672 1157 -706 1157 c 6
 -709 1157 l 6
 -743 1157 -784.33203125 1175.00195312 -784 1256 c 4
 -783.458007812 1388.03710938 -736 1515 -604 1515 c 4
 -472 1515 -424.30859375 1387.02050781 -424 1253 c 4
 -423.8203125 1175.00097656 -465 1157 -499 1157 c 6
 -502 1157 l 6
 -536 1157 -566 1175 -566 1255 c 4
 -566 1305 -575 1345 -604 1345 c 4
EndSplineSet
EndChar

StartChar: dotbelowcomb
Encoding: 803 803 177
Width: 0
Flags: HMW
AnchorPoint: "bottom" -551 0 mark 0
LayerCount: 2
Fore
SplineSet
-548 -340 m 2
 -552 -340 l 2
 -626 -340 -672 -293 -672 -235 c 2
 -672 -225 l 2
 -672 -167 -626 -120 -552 -120 c 2
 -548 -120 l 2
 -474 -120 -428 -167 -428 -225 c 2
 -428 -235 l 2
 -428 -293 -474 -340 -548 -340 c 2
EndSplineSet
EndChar

StartChar: uni0326
Encoding: 806 806 178
Width: 0
Flags: HMW
AnchorPoint: "bottom" -561 0 mark 0
LayerCount: 2
Fore
SplineSet
-646 -484 m 10
 -649 -484 l 18
 -664 -484 -671 -468 -653 -440 c 10
 -601 -360 l 257
 -605 -360 l 2
 -649 -360 -685 -320 -685 -276 c 2
 -685 -260 l 2
 -685 -201 -644 -160 -573 -160 c 2
 -561 -160 l 2
 -490 -160 -449 -201 -449 -260 c 2
 -449 -272 l 2
 -449 -335 -493 -375 -525 -400 c 2
 -593 -452 l 18
 -619 -472 -631 -484 -646 -484 c 10
EndSplineSet
EndChar

StartChar: uni0327
Encoding: 807 807 179
Width: 1200
Flags: HMW
AnchorPoint: "bottom" -561 0 mark 0
LayerCount: 2
Fore
SplineSet
-610 -650 m 0
 -680 -650 -706.153320312 -637.319335938 -724 -627 c 0
 -750.676757812 -611.575195312 -770.430769231 -563.446153846 -763 -504 c 2
 -762 -496 l 2
 -754.584615385 -436.676923077 -715.51290778 -427.307620907 -691 -441 c 0
 -678.591846617 -447.930925596 -659 -459 -629 -459 c 0
 -607 -459 -590 -439 -590 -357 c 0
 -590 -281 -597.994140625 -244 -674 -240 c 0
 -690.976506714 -239.106568528 -701.294002757 -233.823988971 -704 -223 c 2
 -705 -219 l 2
 -707.705882353 -208.176470588 -703.430618244 -191.822542043 -698 -176 c 2
 -617 60 l 1
 -446 60 l 1
 -530 -172 l 1
 -522 -167 -514 -164 -506 -164 c 0
 -463 -164 -418 -182 -418 -362 c 0
 -418 -590 -508 -650 -610 -650 c 0
EndSplineSet
EndChar

StartChar: uni0328
Encoding: 808 808 180
Width: 1200
Flags: HMW
AnchorPoint: "ogonek" -591 0 mark 0
LayerCount: 2
Fore
SplineSet
-488 -370 m 2
 -488 -380 l 2
 -488 -487 -510 -540 -564 -540 c 2
 -569 -540 l 2
 -638 -540 -777 -488 -777 -280 c 0
 -777 -62 -665 -2 -585 70 c 1
 -554 0 l 1
 -606 -44 -622 -96 -622 -150 c 0
 -622 -192 -609 -200 -564 -200 c 2
 -563 -200 l 2
 -509 -200 -488 -264 -488 -370 c 2
EndSplineSet
EndChar

StartChar: uni0312
Encoding: 786 786 181
Width: 0
Flags: HMW
AnchorPoint: "top" -604 900 mark 0
LayerCount: 2
Fore
SplineSet
-426 1706 m 14
 -424 1706 l 22
 -406 1706 -397.10546875 1686.99511719 -413 1650 c 14
 -529 1380 l 261
 -523 1380 l 6
 -449 1380 -403 1340 -403 1246 c 6
 -403 1159 l 6
 -403 1045 -455 1003 -543 1003 c 6
 -559 1003 l 6
 -647 1003 -699 1045 -699 1159 c 6
 -699 1200 l 6
 -699 1288 -681.750976562 1358.0546875 -627 1440 c 6
 -476 1666 l 22
 -456.422851562 1695.30078125 -439 1706 -426 1706 c 14
EndSplineSet
EndChar

StartChar: sterling
Encoding: 163 163 182
Width: 610
VWidth: 1920
Flags: HMW
LayerCount: 2
Fore
SplineSet
4.984375 692 m 10
 4.984375 700 l 18
 4.984375 754 31.984375 775 125.984375 775 c 10
 419.984375 775 l 18
 513.984375 775 540.984375 754 540.984375 700 c 10
 540.984375 692 l 18
 540.984375 638 513.984375 617 419.984375 617 c 10
 125.984375 617 l 18
 31.984375 617 4.984375 638 4.984375 692 c 10
37.984375 177 m 0
 99.5836940802 277.7847446 159.984375 422 159.984375 657 c 0
 159.984375 856 65.984375 907 65.984375 1091 c 0
 65.984375 1306 149.984375 1417 317.984375 1417 c 0
 489.984375 1417 559.607710458 1322.07019137 585.984375 1067 c 0
 593.595987522 993.393442975 549.984375 948 475.984375 948 c 2
 469.984375 948 l 2
 396.984375 948 356.040315512 973.00025337 354.984375 1067 c 0
 353.377937334 1210.0049627 358.984375 1247 331.984375 1247 c 0
 313.984375 1247 305.984375 1211 305.984375 1066 c 0
 305.984375 945 389.984375 885 389.984375 672 c 0
 389.984375 426 333.984375 295 264.984375 177 c 1
 479.984375 177 l 2
 563.984375 177 600.984375 156 600.984375 92 c 2
 600.984375 85 l 2
 600.984375 21 563.984375 -1.02870331128e-14 479.984375 0 c 2
 189.984375 0 l 2
 45.984375 0 20.984375 41 20.984375 105 c 2
 20.984375 107 l 2
 20.984375 149 29.0061971656 162.310497364 37.984375 177 c 0
EndSplineSet
EndChar

StartChar: currency
Encoding: 164 164 183
Width: 579
Flags: HMW
LayerCount: 2
Fore
SplineSet
526 945 m 14
 534 937 l 22
 572 899 558 855 520 817 c 14
 492 789 l 22
 490 787 486 787 484 789 c 14
 370 903 l 22
 368 905 368 908 370 910 c 14
 398 938 l 22
 436 976 488 983 526 945 c 14
94 627 m 14
 208 513 l 22
 210 511 210 508 208 506 c 14
 180 478 l 22
 142 440 98 425 60 463 c 14
 52 471 l 22
 14 509 22 561 60 599 c 14
 88 627 l 22
 90 629 92 629 94 627 c 14
48 940 m 14
 56 949 l 22
 94 987 142 976 180 938 c 14
 208 910 l 22
 210 908 210 905 208 903 c 14
 94 788 l 22
 92 786 90 786 88 788 c 14
 59 817 l 22
 21 855 10 902 48 940 c 14
370 513 m 14
 450 592 l 22
 452 594 490 629 492 627 c 14
 520 599 l 22
 558 561 568 513 530 475 c 14
 522 467 l 22
 484 429 436 439 398 477 c 14
 370 506 l 22
 368 508 368 511 370 513 c 14
46 709 m 4
 46 843 157 954 291 954 c 4
 425 954 536 843 536 709 c 4
 536 575 425 464 291 464 c 4
 157 464 46 575 46 709 c 4
226 709 m 4
 226 665 247 639 291 639 c 4
 335 639 356 665 356 709 c 4
 356 753 335 779 291 779 c 4
 247 779 226 753 226 709 c 4
EndSplineSet
EndChar

StartChar: brokenbar
Encoding: 166 166 184
Width: 260
VWidth: 1920
Flags: HMW
LayerCount: 2
Fore
SplineSet
125 445 m 10
 135 445 l 18
 189 445 220 383 220 325 c 10
 220 -255 l 18
 220 -309 189 -375 135 -375 c 10
 125 -375 l 18
 71 -375 40 -309 40 -255 c 10
 40 325 l 18
 40 383 71 445 125 445 c 10
125 1615 m 10
 135 1615 l 18
 189 1615 220 1553 220 1495 c 10
 220 915 l 18
 220 861 189 795 135 795 c 10
 125 795 l 18
 71 795 40 861 40 915 c 10
 40 1495 l 18
 40 1553 71 1615 125 1615 c 10
EndSplineSet
EndChar

StartChar: section
Encoding: 167 167 185
Width: 512
VWidth: 1920
Flags: HMW
LayerCount: 2
Back
SplineSet
274 873 m 261
 236.5 873 205 809 205 691 c 260
 205 554 214.4375 435.0390625 307.5 324 c 260
 373.869140625 244.809570312 420 150 420 -20 c 260
 420 -252 362.5 -377 224 -377 c 260
 97 -377 54.5 -264 47.5 -34 c 4
 47.3173828125 -28.0029296875 49 -25 52.5 -25 c 6
 172 -25 l 6
 175.5 -25 177.125 -28.0419921875 177.5 -35 c 4
 184.5 -165 176.5 -212 198 -212 c 260
 212 -212 220 -157 220 -87 c 260
 220 1 191.588867188 52.0439453125 147.5 115 c 260
 69.7001953125 226.091796875 20 329 20 586 c 260
 20 858 147.5 953 279.5 953 c 261
 274 873 l 261
238 167 m 261
 275.5 167 307 231 307 349 c 260
 307 486 297.5625 604.9609375 204.5 716 c 260
 138.130859375 795.190429688 92 890 92 1060 c 260
 92 1292 149.5 1417 288 1417 c 260
 415 1417 457.5 1304 464.5 1074 c 4
 464.682617188 1068.00292969 463 1065 459.5 1065 c 6
 340 1065 l 6
 336.5 1065 334.875 1068.04199219 334.5 1075 c 4
 327.5 1205 335.5 1252 314 1252 c 260
 300 1252 292 1197 292 1127 c 260
 292 1039 320.411132812 987.956054688 364.5 925 c 260
 442.299804688 813.908203125 492 711 492 454 c 260
 492 182 364.5 87 232.5 87 c 261
 238 167 l 261
EndSplineSet
Fore
SplineSet
274 873 m 257
 236.5 873 205 809 205 691 c 256
 205 554 214.4375 435.0390625 307.5 324 c 256
 373.869140625 244.809570312 420 150 420 -20 c 256
 420 -252 362.5 -377 224 -377 c 256
 97 -377 63.9377354971 -274.106080727 53.5 -134 c 0
 46.368084038 -38.2680480073 68 -10 111.5 -10 c 2
 113 -10 l 2
 156.5 -10 177.533887158 -38.0991939823 180.5 -135 c 0
 182.044691777 -185.463986439 179.5 -212 198 -212 c 256
 212 -212 220 -157 220 -87 c 256
 220 1 191.588867188 52.0439453125 147.5 115 c 256
 69.7001953125 226.091796875 20 329 20 586 c 256
 20 858 147.5 953 279.5 953 c 257
 274 873 l 257
238 167 m 257
 275.5 167 307 231 307 349 c 256
 307 486 297.5625 604.9609375 204.5 716 c 256
 138.130859375 795.190429688 92 890 92 1060 c 256
 92 1292 149.5 1417 288 1417 c 256
 415 1417 449.062264503 1294.10608073 459.5 1174 c 0
 467.811248066 1078.3632183 445 1050 401.5 1050 c 2
 397 1050 l 2
 353.5 1050 333.43791196 1078.06063544 331.5 1175 c 0
 330.996480405 1200.18735141 335.5 1252 314 1252 c 256
 300 1252 292 1197 292 1127 c 256
 292 1039 320.411132812 987.956054688 364.5 925 c 256
 442.299804688 813.908203125 492 711 492 454 c 256
 492 182 364.5 87 232.5 87 c 257
 238 167 l 257
EndSplineSet
EndChar

StartChar: copyright
Encoding: 169 169 186
Width: 844
Flags: HMW
LayerCount: 2
Fore
SplineSet
575 561.599609375 m 256
 575 378.972313129 575 249 408.200195312 249 c 260
 285.799804688 249 260 325.200195312 260 469.200195312 c 258
 260 885 l 258
 260 1023 285.799804688 1110.59960938 414.200195312 1110.59960938 c 256
 566 1110.59960938 566 974.249600181 566 839.399414062 c 256
 566 795 556.400390625 768 512 768 c 258
 509.599609375 768 l 258
 465.200195312 768 455.599609375 795 455 839.399414062 c 256
 453.799804688 937.200195312 456.200195312 990.599609375 432.200195312 990.599609375 c 256
 411.200195312 990.599609375 410 956.399414062 410 887.399414062 c 258
 410 448.200195312 l 258
 410 388.200195312 412.400390625 369 432.200195312 369 c 256
 454.400390625 369 458 417 458 561.599609375 c 256
 458 612 470.599609375 633.599609375 515 633.599609375 c 258
 518 633.599609375 l 258
 562.400390625 633.599609375 575 612 575 561.599609375 c 256
769 668 m 0
 769 284 735 -28 421 -28 c 0
 107 -28 75 284 75 668 c 0
 75 1052 107 1366 421 1366 c 0
 735 1366 769 1052 769 668 c 0
723 668 m 0
 723 1006 709 1320 421 1320 c 0
 133 1320 121 1006 121 668 c 0
 121 330 133 18 421 18 c 0
 709 18 723 330 723 668 c 0
EndSplineSet
EndChar

StartChar: registered
Encoding: 174 174 188
Width: 844
Flags: HMW
LayerCount: 2
Fore
SplineSet
400 995 m 261
 400 692 l 261
 412 692 l 262
 432.399414062 692 434.799804688 710.599609375 434.799804688 737.599609375 c 262
 434.799804688 948.799804688 l 262
 434.799804688 972.799804688 432.399414062 995 412 995 c 262
 400 995 l 261
418 1100 m 262
 557.799804688 1100 584.799804688 1037.59960938 584.799804688 944.599609375 c 262
 584.799804688 787.400390625 l 262
 584.799804688 685.400390625 516.399414062 644 418 644 c 261
 418 662 l 261
 524.799804688 662 586.802734375 653.600585938 587.19921875 539.599609375 c 262
 587.799804688 367.400390625 l 262
 587.799804688 351.200195312 591.7734375 338.084960938 594.810546875 328.400390625 c 260
 597.303710938 320.452148438 602.19921875 306.69921875 602.19921875 290.900390625 c 262
 602.19921875 289.400390625 l 262
 602.19921875 263.599609375 585.399414062 251 541.299804688 251 c 262
 532.299804688 251 l 262
 486.6484375 251 455.936523438 260.244140625 443.732421875 301.700195312 c 260
 438.99609375 317.790039062 434.799804688 332 434.799804688 358.400390625 c 262
 434.799804688 581.599609375 l 262
 434.799804688 605.599609375 425.799804688 617 409 617 c 262
 400 617 l 261
 400 353 l 6
 400 266.599609375 372.399414062 251 328 251 c 6
 325 251 l 6
 280.599609375 251 253 266.599609375 253 353 c 6
 253 1007 l 6
 253 1093.40039062 259.599609375 1100 346 1100 c 6
 418 1100 l 262
769 668 m 0
 769 284 735 -28 421 -28 c 0
 107 -28 75 284 75 668 c 0
 75 1052 107 1366 421 1366 c 0
 735 1366 769 1052 769 668 c 0
723 668 m 0
 723 1006 709 1320 421 1320 c 0
 133 1320 121 1006 121 668 c 0
 121 330 133 18 421 18 c 0
 709 18 723 330 723 668 c 0
EndSplineSet
EndChar

StartChar: dotlessi
Encoding: 305 305 279
Width: 295
VWidth: 960
Flags: HMW
AnchorPoint: "top" 150 1050 basechar 0
LayerCount: 2
Fore
SplineSet
270 895 m 6
 270 155 l 6
 270 11 224 -15 150 -15 c 6
 145 -15 l 6
 71 -15 25 11 25 155 c 6
 25 895 l 6
 25 1039 71 1065 145 1065 c 6
 150 1065 l 6
 224 1065 270 1039 270 895 c 6
EndSplineSet
EndChar

StartChar: uni0237
Encoding: 567 567 291
Width: 295
VWidth: 960
Flags: HMW
AnchorPoint: "top" 141 1050 basechar 0
LayerCount: 2
Fore
SplineSet
270 -179 m 258
 270 -358 140.002577302 -361 56 -361 c 0
 -38 -361 -67 -344 -67 -290 c 2
 -67 -280 l 2
 -67 -227 -48 -216 -15 -216 c 0
 0 -216 25 -208 25 -144 c 258
 25 895 l 2
 25 1039 71 1065 145 1065 c 2
 150 1065 l 2
 224 1065 270 1039 270 895 c 2
 270 -179 l 258
EndSplineSet
EndChar

StartChar: kgreenlandic
Encoding: 312 312 298
Width: 595
VWidth: 960
Flags: HMW
LayerCount: 2
Fore
SplineSet
145 1065 m 6
 150 1065 l 6
 224 1065 270 1039 270 895 c 6
 270 155 l 2
 270 11 224 -15 150 -15 c 2
 145 -15 l 2
 71 -15 25 11 25 155 c 2
 25 895 l 6
 25 1039 71 1065 145 1065 c 6
185 422 m 1
 356 895 l 2
 405.339522149 1031.47715776 424.240234375 1065 490 1065 c 2
 497 1065 l 2
 561.357421875 1065 626.84813987 1029.97707289 562 895 c 2
 255 256 l 1
 185 422 l 1
250 586 m 257
 390 616 l 257
 580 155 l 2
 616.92994558 65.3962899353 594 -15 490 -15 c 2
 485 -15 l 2
 401 -15 354.601493734 15.3260278539 329 155 c 2
 250 586 l 257
EndSplineSet
EndChar

StartChar: grave
Encoding: 96 96 339
Width: 386
VWidth: 0
Flags: HMW
LayerCount: 2
Fore
SplineSet
318 1054 m 2
 314 1054 l 2
 270 1054 215 1121 158 1204 c 2
 140 1230 l 2
 66 1339 123 1430 201 1430 c 2
 206 1430 l 2
 284 1430 318 1390 332 1290 c 2
 342 1214 l 2
 357 1105 346 1054 318 1054 c 2
EndSplineSet
EndChar

StartChar: longs
Encoding: 383 383 352
Width: 335
VWidth: 960
Flags: HMW
LayerCount: 2
Fore
SplineSet
40 1319 m 258
 40 1438 155 1466 314 1443 c 256
 353 1437 370 1424 370 1380 c 258
 370 1375 l 258
 370 1332 350 1320 312 1308 c 256
 294 1302 282 1292 282 1259 c 258
 282 90 l 258
 282 26 236 -15 172 -15 c 258
 150 -15 l 258
 86 -15 40 26 40 90 c 258
 40 1319 l 258
EndSplineSet
EndChar

StartChar: uni0259
Encoding: 601 601 359
Width: 570
VWidth: 960
Flags: HMW
LayerCount: 2
Fore
SplineSet
20 736 m 0
 20 853.944364085 20 1068 282 1068 c 260
 466 1068 550 981 550 776 c 258
 550 273 l 258
 550 73 470 -17 282 -17 c 256
 98 -17 24.34375 70.8662109375 20 283 c 256
 19.076171875 328.106445312 16 373 16 415 c 0
 16 557 26 569 170 569 c 2
 412 569 l 257
 412 485 l 257
 258 485 l 257
 260 144 258 123 282 123 c 256
 300 123 304 149 304 209 c 258
 304 841 l 258
 304 916 299 928 283 928 c 256
 259.774414062 928 260.961914062 841.494140625 257.303710938 760 c 0
 253.201171875 668.623046875 220.552734375 617 140 617 c 2
 134 617 l 2
 60 617 20 672.837890625 20 736 c 0
EndSplineSet
EndChar

StartChar: logicalnot
Encoding: 172 172 373
Width: 575
VWidth: 2048
Flags: HMW
LayerCount: 2
Fore
SplineSet
25 618.75 m 2
 25 636.25 l 2
 25 689.75 66.5 716.25 120 716.25 c 2
 410 716.25 l 2
 513.5 716.25 540 689.75 540 586.25 c 2
 540 528.75 l 2
 540 475.25 513.5 433.75 460 433.75 c 2
 425 433.75 l 2
 371.5 433.75 345 475.25 345 528.75 c 2
 345 538.75 l 1
 120 538.75 l 2
 66.5 538.75 25 565.25 25 618.75 c 2
EndSplineSet
EndChar

StartChar: acute
Encoding: 180 180 374
Width: 386
Flags: HMW
LayerCount: 2
Fore
SplineSet
68 1054 m 6
 40 1054 29 1105 44 1214 c 6
 55 1290 l 6
 69 1390 103 1430 181 1430 c 6
 186 1430 l 6
 264 1430 322 1339 248 1230 c 6
 230 1204 l 6
 173 1121 118 1054 74 1054 c 6
 68 1054 l 6
EndSplineSet
EndChar

StartChar: degree
Encoding: 176 176 376
Width: 490
VWidth: 2048
Flags: HMW
LayerCount: 2
Fore
SplineSet
25 1191 m 262
 25 1209 l 262
 25 1339 118 1417 242 1417 c 260
 366 1417 465 1339 465 1209 c 262
 465 1191 l 262
 465 1061 366 983 242 983 c 260
 118 983 25 1061 25 1191 c 262
202 1191 m 262
 202 1156 221 1143 245 1143 c 260
 269 1143 288 1156 288 1191 c 262
 288 1209 l 262
 288 1244 269 1257 245 1257 c 260
 221 1257 202 1244 202 1209 c 262
 202 1191 l 262
EndSplineSet
EndChar

StartChar: plusminus
Encoding: 177 177 377
Width: 575
Flags: HMW
LayerCount: 2
Fore
SplineSet
34 527 m 14
 34 544 l 22
 34 598 76 624 130 624 c 14
 444 624 l 22
 498 624 540 598 540 544 c 14
 540 527 l 22
 540 473 498 447 444 447 c 14
 130 447 l 22
 76 447 34 473 34 527 c 14
34 910 m 14
 34 927 l 22
 34 981 76 1007 130 1007 c 14
 444 1007 l 22
 498 1007 540 981 540 927 c 14
 540 910 l 22
 540 856 498 830 444 830 c 14
 130 830 l 22
 76 830 34 856 34 910 c 14
280 1157 m 14
 294 1157 l 22
 348 1157 374 1116 374 1062 c 14
 374 762 l 22
 374 708 348 667 294 667 c 14
 280 667 l 22
 226 667 200 708 200 762 c 14
 200 1062 l 22
 200 1116 226 1157 280 1157 c 14
EndSplineSet
EndChar

StartChar: ae
Encoding: 230 230 379
Width: 836
VWidth: 960
Flags: HMW
LayerCount: 2
Fore
SplineSet
246 330 m 0
 246 198 259 158 273 158 c 256
 290 158 292 186 292 234 c 257
 412 234 l 257
 412 132 367 -18 231 -18 c 256
 106 -18 8 28 8 255 c 0
 8 491 77 566 208 627 c 256
 264 653 292 678 292 734 c 257
 312 584 l 257
 305 562 292 548 281 535 c 256
 257 507 246 460 246 330 c 0
292 204 m 265
 292 814 l 258
 292 874 294 907 277 907 c 256
 258 907 255.048782275 882.055479754 255 846 c 0
 254.833589941 723.00461894 223 676 150 676 c 2
 147 676 l 2
 73 676 41.8655199336 723.003015664 42 846 c 0
 42.1707357913 1002.15687897 114 1067 267 1067 c 256
 407 1067 462 975 462 761 c 258
 462 194 l 273
 292 204 l 265
816 294 m 4
 816 167 816 -18 554 -18 c 260
 370 -18 366 69 366 274 c 262
 366 777 l 262
 366 977 426 1067 584 1067 c 260
 771 1067 810 956 818 707 c 4
 820 642 820 629 820 625 c 4
 820 513 770 481 666 481 c 6
 424 481 l 261
 424 565 l 261
 578 565 l 261
 576 906 578 927 554 927 c 260
 536 927 532 901 532 841 c 262
 532 209 l 262
 532 134 537 122 553 122 c 260
 572 122 581 164.997816604 581 294 c 4
 581 406 613 433 696 433 c 6
 702 433 l 6
 786 433 816 407 816 294 c 4
EndSplineSet
EndChar

StartChar: paragraph
Encoding: 182 182 380
Width: 755
VWidth: 1920
Flags: HMW
LayerCount: 2
Fore
SplineSet
661 1235 m 1
 661 -250 l 2
 661 -337 635 -390 581 -390 c 2
 566 -390 l 2
 512 -390 486 -337 486 -250 c 2
 486 1235 l 1
 446 1235 l 1
 446 -250 l 2
 446 -337 420 -390 366 -390 c 2
 356 -390 l 2
 302 -390 276 -337 276 -250 c 2
 276 400 l 1
 271 400 l 2
 143 400 24 548 24 868 c 2
 24 932 l 2
 24 1252 143 1400 271 1400 c 2
 656 1400 l 2
 720 1400 751 1362 751 1315 c 2
 751 1310 l 2
 751 1263 710 1235 666 1235 c 2
 661 1235 l 1
EndSplineSet
EndChar

StartChar: guilsinglleft
Encoding: 8249 8249 381
Width: 630
Flags: HMW
LayerCount: 2
Fore
SplineSet
360 196 m 2
 180 349 l 2
 102.572675521 413.430595013 50 478 50 555 c 2
 50 565 l 2
 50 642 97.1912970812 698.006236708 180 761 c 2
 360 894 l 2
 463.905276342 970.774454186 500 887 500 780 c 2
 500 760 l 2
 500 653 479.001738393 605.080834273 380 560 c 2
 369.01953125 555 l 257
 380 548 l 2
 465.544350728 493.465856811 500 437 500 330 c 2
 500 310 l 2
 500 203 453.539181558 116.491695675 360 196 c 2
EndSplineSet
EndChar

StartChar: guilsinglright
Encoding: 8250 8250 382
Width: 630
Flags: HW
LayerCount: 2
Fore
SplineSet
270 904 m 2
 450 751 l 2
 527.427734375 686.569335938 580 622 580 545 c 2
 580 535 l 2
 580 458 532.80859375 401.994140625 450 339 c 2
 270 206 l 2
 166.094726562 129.225585938 130 213 130 320 c 2
 130 340 l 2
 130 447 150.998046875 494.918945312 250 540 c 2
 260.98046875 545 l 257
 250 552 l 2
 164.456054688 606.534179688 130 663 130 770 c 2
 130 790 l 2
 130 897 176.4609375 983.508789062 270 904 c 2
EndSplineSet
EndChar

StartChar: mu
Encoding: 181 181 385
Width: 582
VWidth: 1920
Flags: HW
LayerCount: 2
Back
SplineSet
32 1050 m 6
 258 1050 l 6
 265 1050 268 1047 268 1040 c 6
 268 -350 l 6
 268 -357 265 -360 258 -360 c 6
 32 -360 l 6
 25 -360 22 -357 22 -350 c 6
 22 1040 l 6
 22 1047 25 1050 32 1050 c 6
553 0 m 2
 323 0 l 2
 319 0 317 1 317 5 c 2
 317 182 l 257
 313 195 l 257
 313 1045 l 2
 313 1049 313 1050 317 1050 c 2
 553 1050 l 2
 557 1050 557 1049 557 1045 c 2
 557 5 l 2
 557 1 557 0 553 0 c 2
337 174 m 257
 337 54 314 -18 270 -18 c 256
 216 -18 152 39 152 194 c 258
 152 1045 l 2
 152 1049 154 1050 158 1050 c 2
 262 1050 l 2
 266 1050 268 1049 268 1045 c 2
 268 218 l 258
 268 168 271 148 285 148 c 256
 303 148 313 183 313 288 c 257
 337 174 l 257
EndSplineSet
Fore
SplineSet
266 935 m 258
 266 -245 l 258
 266 -333 220 -375 146 -375 c 258
 142 -375 l 258
 68 -375 22 -333 22 -245 c 258
 22 935 l 258
 22 1023 68 1065 142 1065 c 258
 146 1065 l 258
 220 1065 266 1023 266 935 c 258
441 -16 m 2
 431 -16 l 2
 357 -16 316 10 316 154 c 2
 316 180 l 257
 311 194 l 257
 311 894 l 2
 311 1038 357 1064 431 1064 c 2
 436 1064 l 2
 510 1064 556 1038 556 894 c 2
 556 154 l 2
 556 10 515 -16 441 -16 c 2
336 172 m 257
 336 52 314 -18 270 -18 c 256
 216 -18 153 37 153 192 c 258
 153 894 l 2
 153 1038 109 1064 143 1064 c 2
 144 1064 l 2
 168 1064 266 1038 266 894 c 2
 266 218 l 258
 266 168 272 146 286 146 c 256
 304 146 311 183 311 288 c 257
 336 172 l 257
EndSplineSet
EndChar

StartChar: Eth
Encoding: 208 208 387
Width: 620
VWidth: 1920
Flags: HW
LayerCount: 2
Fore
SplineSet
-57 704 m 10
 -57 721 l 18
 -57 775 -15 801 39 801 c 10
 243 801 l 22
 297 801 339 775 339 721 c 14
 339 704 l 22
 339 650 297 624 243 624 c 14
 39 624 l 18
 -15 624 -57 650 -57 704 c 10
EndSplineSet
Refer: 15 68 N 1 0 0 1 0 0 2
EndChar

StartChar: Dcroat
Encoding: 272 272 388
Width: 620
VWidth: 1920
Flags: HW
LayerCount: 2
Fore
SplineSet
-57 704 m 14
 -57 721 l 22
 -57 775 -15 801 39 801 c 14
 243 801 l 22
 297 801 339 775 339 721 c 14
 339 704 l 22
 339 650 297 624 243 624 c 14
 39 624 l 22
 -15 624 -57 650 -57 704 c 14
EndSplineSet
Refer: 15 68 N 1 0 0 1 0 0 2
EndChar

StartChar: thorn
Encoding: 254 254 389
Width: 590
VWidth: 960
Flags: HW
LayerCount: 2
Back
SplineSet
30 1450 m 6
 266 1450 l 6
 270 1450 270 1449 270 1445 c 6
 270 -355 l 6
 270 -359 269 -360 265 -360 c 6
 30 -360 l 6
 26 -360 25 -359 25 -355 c 6
 25 1445 l 6
 25 1449 26 1450 30 1450 c 6
240 801 m 257
 240 946 286 1067 390 1067 c 256
 498 1067 570 997 570 827 c 258
 570 224 l 258
 570 54 498 -18 390 -18 c 256
 286 -18 240 103 240 248 c 257
 270 244 l 257
 270 189 273 152 297 152 c 256
 321 152 325 179 325 234 c 258
 325 817 l 258
 325 872 321 897 297 897 c 256
 273 897 270 862 270 807 c 257
 240 801 l 257
EndSplineSet
Fore
SplineSet
145 1465 m 2
 150 1465 l 2
 224 1465 270 1439 270 1295 c 2
 270 -205 l 2
 270 -349 223 -375 150 -375 c 2
 145 -375 l 2
 71 -375 25 -349 25 -205 c 2
 25 1295 l 2
 25 1439 71 1465 145 1465 c 2
240 801 m 257
 240 946 286 1067 390 1067 c 256
 498 1067 570 997 570 827 c 258
 570 224 l 258
 570 54 498 -18 390 -18 c 256
 286 -18 240 103 240 248 c 257
 270 244 l 257
 270 189 273 152 297 152 c 256
 321 152 325 179 325 234 c 258
 325 817 l 258
 325 872 321 897 297 897 c 256
 273 897 270 862 270 807 c 257
 240 801 l 257
EndSplineSet
EndChar

StartChar: Thorn
Encoding: 222 222 390
Width: 575
VWidth: 960
Flags: HW
LayerCount: 2
Fore
SplineSet
290 1110 m 2
 464.045898438 1108.28320312 548 1031.5625 548 851 c 2
 548 569 l 2
 548 384 464 310 320 310 c 2
 280 310 l 1
 280 155 l 6
 280 21 229 -15 165 -15 c 6
 150 -15 l 6
 86 -15 35 21 35 155 c 6
 35 1245 l 6
 35 1379 86 1415 150 1415 c 6
 165 1415 l 6
 229 1415 280 1379 280 1245 c 6
 280 1110 l 1
 290 1110 l 2
280 435 m 1
 290 435 l 2
 328 435 338 459 338 504 c 2
 338 866 l 2
 338 911 328 935 290 935 c 2
 280 935 l 1
 280 435 l 1
EndSplineSet
EndChar

StartChar: divide
Encoding: 247 247 391
Width: 990
VWidth: 2048
Flags: HW
LayerCount: 2
Fore
SplineSet
5 689 m 10
 5 696 l 18
 5 744 35 756 89 756 c 10
 901 756 l 18
 955 756 985 744 985 696 c 10
 985 689 l 18
 985 641 955 629 901 629 c 10
 89 629 l 18
 35 629 5 641 5 689 c 10
EndSplineSet
Refer: 1 46 N 1 0 0 1 295 906 2
Refer: 1 46 N 1 0 0 1 295 119 2
EndChar

StartChar: multiply
Encoding: 215 215 392
Width: 650
VWidth: 1920
Flags: HW
LayerCount: 2
Fore
SplineSet
509 540 m 14
 498 529 l 22
 470 501 409 511 381 539 c 14
 152 768 l 22
 124 796 113 858 142 885 c 14
 153 896 l 22
 182 923 243 914 270 886 c 14
 499 657 l 22
 526 629 537 568 509 540 c 14
153 529 m 14
 142 540 l 22
 113 567 124 629 152 657 c 14
 381 886 l 22
 409 914 470 924 498 896 c 14
 509 885 l 22
 537 857 526 796 499 768 c 14
 270 539 l 22
 243 511 182 502 153 529 c 14
EndSplineSet
EndChar

StartChar: Oslash
Encoding: 216 216 393
Width: 625
VWidth: 1920
Flags: HW
LayerCount: 2
Fore
SplineSet
405 1478 m 6
 432 1471 l 6
 434.360351562 1470.38769531 434.459960938 1467.21972656 434 1464 c 6
 214 -76 l 6
 213.540039062 -79.2197265625 210.296875 -78.8544921875 207 -78 c 6
 180 -71 l 6
 176.703125 -70.1455078125 177.559570312 -67.080078125 178 -64 c 6
 398 1476 l 6
 398.440429688 1479.08007812 400.765625 1479.09765625 405 1478 c 6
EndSplineSet
Refer: 26 79 N 1 0 0 1 0 0 2
EndChar

StartChar: oslash
Encoding: 248 248 394
Width: 580
VWidth: 1920
Flags: HW
LayerCount: 2
Fore
SplineSet
388 1198 m 6
 415 1191 l 6
 417.360351562 1190.38769531 417.459960938 1187.21972656 417 1184 c 6
 197 -76 l 6
 196.540039062 -79.2197265625 193.296875 -78.8544921875 190 -78 c 6
 163 -71 l 6
 159.703125 -70.1455078125 160.559570312 -67.080078125 161 -64 c 6
 381 1196 l 6
 381.440429688 1199.08007812 383.765625 1199.09765625 388 1198 c 6
EndSplineSet
Refer: 52 111 N 1 0 0 1 0 0 2
EndChar

StartChar: germandbls
Encoding: 223 223 396
Width: 685
VWidth: 1920
Flags: HW
LayerCount: 2
Fore
SplineSet
35 1218 m 2
 35 1390 149 1467 319 1467 c 0
 511 1467 567 1355 567 1261 c 0
 567 1103 541 1061 541 931 c 0
 541 771 677 641 677 391 c 0
 677 95 547 -17 432 -17 c 0
 328 -17 312 3 312 67 c 2
 312 73 l 2
 312 127 328 137 372 157 c 0
 397.490261369 168.58648244 427 245 427 409 c 0
 427 611 307 698 307 878 c 0
 307 1034 321 1113 321 1208 c 0
 321 1278 316 1304 300 1304 c 0
 284 1304 278 1279 278 1193 c 2
 278 155 l 2
 278 21 237 -15 163 -15 c 2
 151 -15 l 2
 77 -15 35 21 35 155 c 2
 35 1218 l 2
EndSplineSet
EndChar

StartChar: eth
Encoding: 240 240 397
Width: 593
VWidth: 1920
Flags: HW
LayerCount: 2
Back
SplineSet
295 917 m 260
 270 917 266 879 266 793 c 262
 266 249 l 262
 266 164 266 133 290 133 c 260
 324 133 325 172 325 237 c 262
 325 874 l 262
 325 1207 267 1410 126 1470 c 4
 121 1472 118.267578125 1476.56445312 121 1480 c 14
 222 1607 l 22
 224.732421875 1610.43554688 228 1612 234 1609 c 4
 446 1513 568 1279 568 896 c 262
 568 269 l 262
 568 104 500 -17 286 -17 c 260
 75 -17 20 90 20 229 c 262
 20 808 l 262
 20 945 47 1067 195 1067 c 260
 299 1067 345 953 345 856 c 261
 325 761 l 261
 325 826 l 262
 325 898 320 917 295 917 c 260
EndSplineSet
Fore
SplineSet
210 1235 m 10
 190 1277 l 18
 188 1280 189 1282 192 1284 c 10
 485 1494 l 18
 488 1496 490 1495 492 1492 c 10
 511 1450 l 18
 513 1447 511 1445 508 1443 c 10
 216 1233 l 18
 213 1231 212 1232 210 1235 c 10
295 917 m 256
 270 917 266 879 266 793 c 258
 266 249 l 258
 266 164 266 133 290 133 c 256
 324 133 325 172 325 237 c 258
 325 874 l 258
 325 1207 253.02778721 1393.36816926 166 1450 c 0
 131.280338319 1472.5932207 130.176977992 1512.43924072 156 1550 c 10
 167 1566 l 18
 202.159892034 1617.14166114 258.328288016 1602.58213388 294 1579 c 0
 443.969066215 1479.85727874 568 1279 568 896 c 258
 568 269 l 258
 568 104 500 -17 286 -17 c 256
 75 -17 20 90 20 229 c 258
 20 808 l 258
 20 945 47 1067 195 1067 c 256
 299 1067 345 953 345 856 c 257
 325 761 l 257
 325 826 l 258
 325 898 320 917 295 917 c 256
EndSplineSet
EndChar

StartChar: dcroat
Encoding: 273 273 398
Width: 590
VWidth: 1920
Flags: HW
LayerCount: 2
Fore
SplineSet
223 1214 m 14
 223 1231 l 22
 223 1285 265 1311 319 1311 c 14
 588 1311 l 22
 642 1311 684 1285 684 1231 c 14
 684 1214 l 22
 684 1160 642 1134 588 1134 c 14
 319 1134 l 22
 265 1134 223 1160 223 1214 c 14
EndSplineSet
Refer: 41 100 N 1 0 0 1 0 0 2
EndChar

StartChar: Hbar
Encoding: 294 294 399
Width: 610
VWidth: 1920
Flags: HW
LayerCount: 2
Fore
SplineSet
-45 1104 m 10
 -45 1121 l 18
 -45 1175 -3 1201 51 1201 c 10
 559 1201 l 18
 613 1201 655 1175 655 1121 c 10
 655 1104 l 18
 655 1050 613 1024 559 1024 c 10
 51 1024 l 18
 -3 1024 -45 1050 -45 1104 c 10
EndSplineSet
Refer: 19 72 N 1 0 0 1 0 0 2
EndChar

StartChar: hbar
Encoding: 295 295 400
Width: 580
VWidth: 1920
Flags: HW
LayerCount: 2
Fore
SplineSet
-45 1214 m 10
 -45 1231 l 18
 -45 1285 -3 1311 51 1311 c 10
 320 1311 l 18
 374 1311 416 1285 416 1231 c 10
 416 1214 l 18
 416 1160 374 1134 320 1134 c 10
 51 1134 l 18
 -3 1134 -45 1160 -45 1214 c 10
EndSplineSet
Refer: 45 104 N 1 0 0 1 0 0 2
EndChar

StartChar: Lslash
Encoding: 321 321 405
Width: 467
VWidth: 1920
Flags: HW
LayerCount: 2
Fore
SplineSet
371.578125 1024.24023438 m 6
 386.578125 998.259765625 l 6
 388.328125 995.228515625 387.779296875 993.1796875 384.748046875 991.4296875 c 6
 -24.748046875 753.9296875 l 6
 -27.779296875 752.1796875 -29.828125 752.728515625 -31.578125 755.759765625 c 6
 -46.578125 781.740234375 l 6
 -48.328125 784.771484375 -47.779296875 786.8203125 -44.748046875 788.5703125 c 6
 364.748046875 1026.0703125 l 6
 367.779296875 1027.8203125 369.828125 1027.27148438 371.578125 1024.24023438 c 6
EndSplineSet
Refer: 23 76 N 1 0 0 1 0 0 2
EndChar

StartChar: lslash
Encoding: 322 322 406
Width: 295
VWidth: 1920
Flags: HW
LayerCount: 2
Fore
SplineSet
351.578125 1024.24023438 m 6
 366.578125 998.259765625 l 6
 368.328125 995.228515625 367.779296875 993.1796875 364.748046875 991.4296875 c 6
 -44.748046875 753.9296875 l 6
 -47.779296875 752.1796875 -49.828125 752.728515625 -51.578125 755.759765625 c 6
 -66.578125 781.740234375 l 6
 -68.328125 784.771484375 -67.779296875 786.8203125 -64.748046875 788.5703125 c 6
 344.748046875 1026.0703125 l 6
 347.779296875 1027.8203125 349.828125 1027.27148438 351.578125 1024.24023438 c 6
EndSplineSet
Refer: 49 108 N 1 0 0 1 0 0 2
EndChar

StartChar: eng
Encoding: 331 331 408
Width: 580
VWidth: 960
Flags: HW
LayerCount: 2
Fore
SplineSet
140 1065 m 2
 150 1065 l 2
 224 1065 265 1039 265 895 c 2
 265 869 l 257
 270 855 l 257
 270 155 l 2
 270 11 224 -15 150 -15 c 2
 145 -15 l 2
 71 -15 25 11 25 155 c 2
 25 895 l 2
 25 1039 66 1065 140 1065 c 2
558 -179 m 6
 558 -358 428.002929688 -361 344 -361 c 0
 250 -361 221 -344 221 -290 c 2
 221 -280 l 2
 221 -227 240 -216 273 -216 c 0
 288 -216 313 -208 313 -144 c 2
 313 831 l 2
 313 881 309 903 295 903 c 0
 277 903 270 866 270 761 c 1
 245 877 l 1
 245 997 317 1067 411 1067 c 0
 515 1067 558 1012 558 857 c 2
 558 -179 l 6
EndSplineSet
EndChar

StartChar: Eng
Encoding: 330 330 409
Width: 590
VWidth: 960
Flags: HW
LayerCount: 2
Fore
SplineSet
470 1415 m 2
 475 1415 l 2
 539 1415 565 1389 565 1275 c 6
 565 -179 l 6
 565 -358 435.002929688 -361 351 -361 c 0
 257 -361 228 -344 228 -290 c 2
 228 -280 l 2
 228 -227 247 -216 280 -216 c 0
 295 -216 320 -208 320 -144 c 2
 320 270.518072289 l 1
 210 715.156626506 l 1
 210 125 l 2
 210 11 174 -15 120 -15 c 2
 115 -15 l 2
 61 -15 25 11 25 125 c 2
 25 1285 l 2
 25 1389 61 1415 135 1415 c 2
 140 1415 l 2
 214 1415 257.780932795 1375.93916597 277 1275 c 2
 380 734.040650407 l 1
 380 1275 l 2
 380 1389 406 1415 470 1415 c 2
EndSplineSet
EndChar

StartChar: oe
Encoding: 339 339 410
Width: 864
VWidth: 960
Flags: HW
LayerCount: 2
Fore
SplineSet
20 274 m 258
 20 777 l 258
 20 972 102 1067 240 1067 c 256
 418 1067 490 972 490 777 c 258
 490 274 l 258
 490 79 418 -18 240 -18 c 256
 102 -18 20 79 20 274 c 258
268 209 m 258
 268 149 272 122 290 122 c 256
 308 122 313 149 313 209 c 258
 313 841 l 258
 313 901 308 927 290 927 c 256
 272 927 268 901 268 841 c 258
 268 209 l 258
844 294 m 4
 844 167 844 -18 582 -18 c 260
 398 -18 394 69 394 274 c 262
 394 777 l 262
 394 977 454 1067 612 1067 c 260
 799 1067 838 956 846 707 c 4
 848 642 848 629 848 625 c 4
 848 513 798 481 694 481 c 6
 452 481 l 261
 452 565 l 261
 606 565 l 261
 604 906 606 927 582 927 c 260
 564 927 560 901 560 841 c 262
 560 209 l 262
 560 134 565 122 581 122 c 260
 600 122 609 164.998046875 609 294 c 4
 609 406 641 433 724 433 c 6
 730 433 l 6
 814 433 844 407 844 294 c 4
EndSplineSet
EndChar

StartChar: OE
Encoding: 338 338 411
Width: 745
VWidth: 1920
Flags: HW
LayerCount: 2
Fore
SplineSet
337 1400 m 262
 580 1400 l 262
 584 1400 585 1399 585 1395 c 262
 585 5 l 262
 585 1 584 0 580 0 c 262
 337 0 l 262
 130 0 25 115 25 408 c 262
 25 991 l 262
 25 1284 110 1400 337 1400 c 262
317 1225 m 262
 285 1225 275 1180 275 996 c 262
 275 404 l 262
 275 220 285 175 317 175 c 262
 340 175 l 261
 340 1225 l 261
 317 1225 l 262
EndSplineSet
Refer: 16 69 N 1 0 0 1 305 0 2
EndChar

StartChar: Tbar
Encoding: 358 358 413
Width: 545
VWidth: 1920
Flags: HW
LayerCount: 2
Fore
SplineSet
47.5 593.75 m 14
 47.5 701.25 l 22
 47.5 704.75 49 706.25 52.5 706.25 c 14
 487.5 706.25 l 22
 491 706.25 492.5 704.75 492.5 701.25 c 14
 492.5 593.75 l 22
 492.5 590.25 491 588.75 487.5 588.75 c 14
 52.5 588.75 l 22
 49 588.75 47.5 590.25 47.5 593.75 c 14
EndSplineSet
Refer: 31 84 N 1 0 0 1 0 0 2
EndChar

StartChar: tbar
Encoding: 359 359 414
Width: 357
VWidth: 1920
Flags: HW
LayerCount: 2
Fore
SplineSet
-19 523.75 m 14
 -19 631.25 l 22
 -19 634.75 -17.5 636.25 -14 636.25 c 14
 326 636.25 l 22
 329.5 636.25 331 634.75 331 631.25 c 14
 331 523.75 l 22
 331 520.25 329.5 518.75 326 518.75 c 14
 -14 518.75 l 22
 -17.5 518.75 -19 520.25 -19 523.75 c 14
EndSplineSet
Refer: 57 116 N 1 0 0 1 0 0 2
EndChar

StartChar: uni0394
Encoding: 916 916 430
Width: 562
VWidth: 960
Flags: HW
LayerCount: 2
Fore
SplineSet
85 0 m 2
 13 0 -7.21484375 35.9931640625 4 140 c 2
 127 1275 l 2
 135.980240977 1358.24748935 174 1400 266 1400 c 2
 316 1400 l 2
 409 1400 446.043578059 1368.23488413 455 1275 c 2
 564 140 l 2
 573.573242188 39.916015625 528 0 453 0 c 2
 85 0 l 2
199 125 m 1
 312 125 l 1
 270 1089 l 1
 199 125 l 1
EndSplineSet
EndChar

StartChar: uni03A9
Encoding: 937 937 431
Width: 636
VWidth: 1920
Flags: HW
LayerCount: 2
Fore
SplineSet
344 195 m 0
 365.676757812 231.580078125 366 289 366 379 c 2
 366 1111 l 2
 366 1195 365 1247 318 1247 c 0
 271 1247 270 1195 270 1111 c 2
 270 379 l 2
 270 289 270.208984375 234.50390625 293 195 c 0
 308 169 308 151 308 115 c 2
 308 85 l 2
 308 21 287 -1.02870331128e-14 203 0 c 2
 128 0 l 2
 44 0 8 21 8 85 c 2
 8 92 l 2
 8 156 44 177 128 177 c 2
 200 177 l 1
 99 215 20 322 20 424 c 2
 20 1141 l 2
 20 1334 102 1417 318 1417 c 0
 534 1417 616 1334 616 1141 c 2
 616 424 l 2
 616 322 534 215 434 177 c 1
 508 177 l 2
 592 177 628 156 628 92 c 2
 628 85 l 2
 628 21 592 -1.02870331128e-14 508 0 c 2
 433 0 l 2
 349 0 328 21 328 85 c 2
 328 115 l 2
 328 151 328 168 344 195 c 0
EndSplineSet
EndChar

StartChar: pi
Encoding: 960 960 432
Width: 760
VWidth: 1920
Flags: HW
LayerCount: 2
Fore
SplineSet
339 1020 m 2
 339 155 l 2
 339 41 303 -15 219 -15 c 2
 214 -15 l 2
 130 -15 94 41 94 155 c 2
 94 1020 l 2
 94 1024 95 1025 99 1025 c 2
 334 1025 l 2
 338 1025 339 1024 339 1020 c 2
  Spiro
    339 1020 [
    339 155 ]
    326.581 60.3348 o
    287.391 3.7032 o
    219 -15 [
    214 -15 ]
    145.609 3.7032 o
    106.419 60.3348 o
    94 155 [
    94 1020 ]
    94.4065 1023.07 o
    95.9281 1024.59 o
    99 1025 [
    334 1025 ]
    337.072 1024.59 o
    338.593 1023.07 o
    0 0 z
  EndSpiro
765 85 m 2
 765 80 l 2
 765 16 738.999888621 -8.02984991508 645 -8 c 0
 510.996275465 -7.95744676024 412 22 412 176 c 258
 412 975 l 2
 412 979 414 980 418 980 c 2
 650 980 l 2
 654 980 655 979 655 975 c 2
 655 211 l 258
 655 157 695.219766542 159.461205047 716 161 c 0
 748.924998753 163.438125732 765 148 765 85 c 2
  Spiro
    765 85 [
    765 80 ]
    754.8 28.7732 o
    717.835 0.561558 o
    645 -8 o
    525.139 5.46997 o
    442.57 59.9431 o
    412 176 [
    412 975 ]
    412.665 978.072 o
    414.669 979.593 o
    418 980 [
    650 980 ]
    653.072 979.593 o
    654.593 978.072 o
    655 975 [
    655 211 ]
    666.177 173.718 o
    690.977 161.275 o
    716 161 o
    743.315 156.393 o
    759.624 133.211 o
    0 0 z
  EndSpiro
-5 958 m 10
 -5 965 l 18
 -5 1029 41 1050 135 1050 c 10
 630 1050 l 18
 714 1050 760 1029 760 965 c 10
 760 958 l 18
 760 894 714 873 630 873 c 10
 135 873 l 18
 41 873 -5 894 -5 958 c 10
  Spiro
    -5 958 [
    -5 965 ]
    10.3765 1015.44 o
    56.9882 1042.2 o
    135 1050 [
    630 1050 ]
    700.979 1042.2 o
    744.993 1015.44 o
    760 965 [
    760 958 ]
    744.993 907.556 o
    700.979 880.798 o
    630 873 [
    135 873 ]
    56.9882 880.798 o
    10.3765 907.556 o
    0 0 z
  EndSpiro
EndSplineSet
EndChar

StartChar: minute
Encoding: 8242 8242 433
Width: 280
VWidth: 1920
Flags: HW
LayerCount: 2
Fore
SplineSet
74 910 m 6
 68 910 l 6
 40 910 30 964 32 1040 c 6
 38 1310 l 6
 40 1417 97 1450 151 1450 c 6
 161 1450 l 6
 239 1450 273 1362 235 1260 c 6
 153 1040 l 6
 127 970 102 910 74 910 c 6
EndSplineSet
EndChar

StartChar: Euro
Encoding: 8364 8364 435
Width: 560
VWidth: 1920
Flags: HW
LayerCount: 2
Fore
SplineSet
-51.0009765625 604 m 14
 -51.0009765625 606 l 22
 -51.0009765625 650 -34.0009765625 661 39.9990234375 661 c 10
 319.999023438 661 l 18
 393.999023438 661 409.999023438 650 409.999023438 606 c 14
 409.999023438 604 l 22
 409.999023438 560 393.999023438 549 319.999023438 549 c 10
 39.9990234375 549 l 18
 -34.0009765625 549 -51.0009765625 560 -51.0009765625 604 c 14
-51.0009765625 779 m 14
 -51.0009765625 781 l 22
 -51.0009765625 825 -34.0009765625 836 39.9990234375 836 c 10
 319.999023438 836 l 18
 393.999023438 836 409.999023438 825 409.999023438 781 c 14
 409.999023438 779 l 22
 409.999023438 735 393.999023438 724 319.999023438 724 c 10
 39.9990234375 724 l 18
 -34.0009765625 724 -51.0009765625 735 -51.0009765625 779 c 14
546.999023438 333 m 256
 536.08984375 92.849609375 485.517578125 -18 271.999023438 -18 c 256
 67.9990234375 -18 24.9990234375 109 24.9990234375 349 c 258
 24.9990234375 1042 l 258
 24.9990234375 1272 67.9990234375 1418 281.999023438 1418 c 256
 510.732421875 1418 534.874263711 1285.30427233 534.999023438 1126 c 256
 535.072639568 1032.00040278 503.999023438 1007 449.999023438 1007 c 258
 435.999023438 1007 l 258
 381.999023438 1007 350.470308093 1052.01466942 349.999023438 1126 c 256
 349.661326395 1179.01387827 343.999023438 1218 311.999023438 1218 c 256
 276.999023438 1218 274.999023438 1161 274.999023438 1046 c 258
 274.999023438 314 l 258
 274.999023438 214 278.999023438 182 311.999023438 182 c 256
 348.999023438 182 354.999023438 222 354.999023438 333 c 256
 354.999023438 447 385.999023438 473 449.999023438 473 c 258
 454.999023438 473 l 258
 518.999023438 473 551.70703125 436.634765625 546.999023438 333 c 256
EndSplineSet
EndChar

StartChar: uni2116
Encoding: 8470 8470 436
Width: 974
VWidth: 1920
Flags: HW
LayerCount: 2
Fore
SplineSet
615 5 m 10
 615 122 l 18
 615 126 617 127 621 127 c 10
 948 127 l 18
 952 127 954 126 954 122 c 10
 954 5 l 18
 954 1 952 0 948 0 c 10
 621 0 l 18
 617 0 615 1 615 5 c 10
EndSplineSet
Refer: 132 8304 N 1 0 0 1 590 -295 2
Refer: 25 78 N 1 0 0 1 0 0 2
EndChar

StartChar: trademark
Encoding: 8482 8482 437
Width: 834
VWidth: 1920
Flags: HW
LayerCount: 2
Fore
SplineSet
76 1400 m 262
 271 1400 l 262
 324 1400 346 1381 346 1349 c 262
 346 1346 l 262
 346 1314 324 1295 271 1295 c 262
 247 1295 l 261
 247 629 l 262
 247 576 219 551 175 551 c 262
 172 551 l 262
 128 551 100 576 100 629 c 262
 100 1295 l 261
 76 1295 l 262
 23 1295 1 1314 1 1346 c 262
 1 1349 l 262
 1 1381 23 1400 76 1400 c 262
473 1229 m 257
 473 653 l 2
 473 567 460 551 422 551 c 2
 419 551 l 2
 381 551 368 567 368 653 c 2
 368 1307 l 2
 368 1393 386 1409 460 1409 c 2
 462 1409 l 2
 536 1409 556 1393 564 1307 c 2
 596 946 l 257
 631 1307 l 2
 639 1393 657 1409 731 1409 c 2
 734 1409 l 2
 808 1409 824 1393 824 1307 c 2
 824 653 l 2
 824 567 799 551 755 551 c 2
 752 551 l 2
 708 551 683 567 683 653 c 2
 683 1229 l 257
 628 653 l 2
 619 561 605 551 579 551 c 2
 573 551 l 2
 547 551 533 561 525 653 c 2
 473 1229 l 257
EndSplineSet
EndChar

StartChar: partialdiff
Encoding: 8706 8706 438
Width: 577
VWidth: 1920
Flags: HW
LayerCount: 2
Fore
SplineSet
285 732 m 256
 270 732 266 716 266 674 c 258
 266 214 l 258
 266 174 270 158 290 158 c 256
 304 158 310 176 310 226 c 258
 310 789 l 258
 310 1172 269.698558357 1250.12880732 206 1315 c 4
 145.774478568 1376.33422021 126 1402 148 1446 c 2
 151 1452 l 2
 173 1496 242.526389262 1513.63600279 306 1470 c 0
 446.375134022 1373.49674977 552 1210 552 752 c 258
 552 268 l 258
 552 103 514 -18 286 -18 c 256
 90 -18 20 44 20 228 c 258
 20 624 l 258
 20 806 77 882 205 882 c 256
 303 882 340 818 340 721 c 257
 310 671 l 257
 310 681 l 258
 310 717 300 732 285 732 c 256
EndSplineSet
EndChar

StartChar: summation
Encoding: 8721 8721 439
Width: 564
VWidth: 1920
Flags: HW
LayerCount: 2
Fore
SplineSet
480 362 m 14
 351 -185 l 1
 459 -185 l 18
 543 -185 579 -216 579 -270 c 10
 579 -275 l 18
 579 -329 543 -360 459 -360 c 10
 189 -360 l 18
 85 -360 48.0914069222 -314.754121641 67 -235 c 10
 246 520 l 1
 74 1245 l 18
 53.7866896534 1330.2014535 85 1400 189 1400 c 10
 459 1400 l 18
 543 1400 579 1369 579 1315 c 10
 579 1310 l 18
 579 1256 543 1225 459 1225 c 10
 351 1225 l 1
 480 678 l 22
 504.009887605 576.190631629 504.009887605 463.809368371 480 362 c 14
EndSplineSet
EndChar

StartChar: minus
Encoding: 8722 8722 440
Width: 584
Flags: HW
LayerCount: 2
Fore
SplineSet
50 494 m 10
 50 511 l 18
 50 565 92 591 146 591 c 10
 438 591 l 18
 492 591 534 565 534 511 c 10
 534 494 l 18
 534 440 492 414 438 414 c 10
 146 414 l 18
 92 414 50 440 50 494 c 10
EndSplineSet
EndChar

StartChar: integral
Encoding: 8747 8747 441
Width: 335
VWidth: 960
Flags: HW
LayerCount: 2
Fore
SplineSet
282 2 m 2
 282 -355 143 -382 15 -346 c 0
 -34 -332 -71 -307 -71 -240 c 2
 -71 -230 l 2
 -71 -163 -50 -133 -11 -135 c 0
 9 -137 39 -115 39 12 c 2
 40 1188 l 2
 40 1425 155 1481 314 1435 c 4
 353 1424 370 1407 370 1340 c 6
 370 1330 l 6
 370 1263 350 1250 312 1226 c 4
 294 1215 282 1193 282 1128 c 2
 282 2 l 2
EndSplineSet
EndChar

StartChar: radical
Encoding: 8730 8730 443
Width: 611
VWidth: 1920
Flags: HMW
LayerCount: 2
Fore
SplineSet
121 1050 m 2
 185 1050 215 1030 237 920 c 2
 300 598 l 1
 394 1430 l 2
 406 1532 430 1620 508 1620 c 2
 510 1620 l 2
 588 1620 615 1527 599 1430 c 2
 372 47 l 2
 358 -42 317 -68 295 7 c 2
 96 700 l 1
 90 700 l 2
 36 700 5 753 5 860 c 2
 5 880 l 2
 5 987 51 1050 115 1050 c 2
 121 1050 l 2
EndSplineSet
EndChar

StartChar: infinity
Encoding: 8734 8734 444
Width: 716
Flags: HMW
LayerCount: 2
Fore
SplineSet
199 492 m 4
 94 492 25 577 25 674 c 0
 25 771 94 854 199 854 c 4
 306 854 337 804 359 754 c 1
 381 804 406 854 518 854 c 4
 623 854 691 771 691 674 c 0
 691 577 623 492 518 492 c 4
 406 492 371 537 359 592 c 1
 336 537 306 492 199 492 c 4
225 620 m 0
 259 620 289 637 316 674 c 1
 291 710 259 727 225 727 c 0
 185 727 164 709 164 674 c 0
 164 640 185 620 225 620 c 0
492 620 m 4
 532 620 552 640 552 674 c 4
 552 709 532 727 492 727 c 4
 463 727 426 710 401 674 c 1
 416 638 463 620 492 620 c 4
EndSplineSet
EndChar

StartChar: product
Encoding: 8719 8719 445
Width: 600
VWidth: 1920
Flags: HW
LayerCount: 2
Fore
SplineSet
435 1399 m 2
 519 1399 565 1353 565 1269 c 2
 565 105 l 6
 565 27 538 -15 460 -15 c 6
 425 -15 l 6
 347 -15 320 27 320 105 c 6
 320 1225 l 257
 280 1225 l 257
 280 105 l 6
 280 27 253 -15 175 -15 c 6
 140 -15 l 6
 62 -15 35 27 35 105 c 6
 35 1269 l 18
 35 1354 81 1399 165 1399 c 10
 435 1399 l 2
EndSplineSet
EndChar

StartChar: uni2219
Encoding: 8729 8729 446
Width: 274
Flags: HW
LayerCount: 2
Fore
SplineSet
25 675 m 4
 25 741 71 788 137 788 c 4
 203 788 249 741 249 675 c 4
 249 609 207 562 141 562 c 4
 75 562 25 609 25 675 c 4
EndSplineSet
EndChar

StartChar: approxequal
Encoding: 8776 8776 447
Width: 1180
VWidth: 1920
Flags: HW
LayerCount: 2
Fore
SplineSet
526 562 m 260
 500 562 484 549 475 534 c 4
 462 512 453 494 415 494 c 6
 410 494 l 6
 371 494 346 516 350 554 c 4
 356 614 411 695 511 695 c 260
 575 695 613 634 654 634 c 260
 690 634 702 653 710 667 c 4
 720 685 737 702 770 702 c 6
 775 702 l 6
 814 702 837 676 830 637 c 4
 819 579 779 501 669 501 c 260
 605 501 577 562 526 562 c 260
526 367 m 260
 500 367 484 354 475 339 c 4
 462 317 453 299 415 299 c 6
 410 299 l 6
 371 299 346 321 350 359 c 4
 356 419 411 500 511 500 c 260
 575 500 613 439 654 439 c 260
 690 439 702 458 710 472 c 4
 720 490 737 507 770 507 c 6
 775 507 l 6
 814 507 837 481 830 442 c 4
 819 384 779 306 669 306 c 260
 605 306 577 367 526 367 c 260
EndSplineSet
EndChar

StartChar: notequal
Encoding: 8800 8800 448
Width: 590
VWidth: 1920
Flags: HW
LayerCount: 2
Fore
SplineSet
509 780 m 2
 530 759 l 2
 532 757 532 754 530 752 c 2
 98 210 l 2
 96 208 93 208 91 210 c 2
 70 231 l 2
 68 233 68 236 70 238 c 2
 502 780 l 2
 504 782 507 782 509 780 c 2
EndSplineSet
Refer: 83 61 N 1 0 0 1 0 0 2
EndChar

StartChar: lessequal
Encoding: 8804 8804 449
Width: 500
VWidth: 1920
Flags: HW
LayerCount: 2
Fore
SplineSet
35 395 m 14
 35 398 l 22
 35 452 76 473 130 473 c 14
 390 473 l 22
 444 473 485 452 485 398 c 14
 485 395 l 22
 485 341 444 320 390 320 c 14
 130 320 l 22
 76 320 35 341 35 395 c 14
EndSplineSet
Refer: 84 60 N 1 0 0 1 40 230 2
EndChar

StartChar: greaterequal
Encoding: 8805 8805 450
Width: 500
VWidth: 1920
Flags: HW
LayerCount: 2
Fore
SplineSet
25 395 m 10
 25 398 l 18
 25 452 66 473 120 473 c 10
 380 473 l 18
 434 473 475 452 475 398 c 10
 475 395 l 18
 475 341 434 320 380 320 c 10
 120 320 l 18
 66 320 25 341 25 395 c 10
EndSplineSet
Refer: 85 62 N 1 0 0 1 -40 230 2
EndChar

StartChar: lozenge
Encoding: 9674 9674 451
Width: 581
Flags: HW
LayerCount: 2
Fore
SplineSet
218 220 m 6
 93 522 l 6
 50 627 47 796 93 902 c 6
 218 1192 l 6
 271 1315 322 1325 374 1192 c 6
 487 902 l 6
 527 798 526 625 487 522 c 6
 374 220 l 6
 328 96 266 105 218 220 c 6
293 454 m 5
 359 712 l 5
 293 970 l 5
 221 712 l 5
 293 454 l 5
EndSplineSet
EndChar

StartChar: uniF8EA
Encoding: 63722 63722 452
Width: 630
VWidth: 1920
Flags: HW
LayerCount: 2
Fore
SplineSet
77 1400 m 262
 230 1400 l 262
 262 1400 275 1390 275 1370 c 262
 275 1368 l 262
 275 1348 262 1338 230 1338 c 262
 198 1338 l 261
 198 1190 l 262
 198 1158 180 1143 154 1143 c 262
 153 1143 l 262
 127 1143 110 1158 110 1190 c 262
 110 1338 l 261
 77 1338 l 262
 45 1338 32 1348 32 1368 c 262
 32 1370 l 262
 32 1390 45 1400 77 1400 c 262
347 1298 m 261
 347 1182 l 262
 347 1156 334 1143 316 1143 c 262
 315 1143 l 262
 297 1143 284 1156 284 1182 c 262
 284 1356 l 262
 284 1386 302 1402 340 1402 c 262
 344 1402 l 262
 383 1402 401 1387 411 1357 c 262
 439 1272 l 261
 470 1354 l 262
 483 1388 502 1403 532 1403 c 262
 544 1403 l 262
 578 1403 594 1385 594 1357 c 262
 594 1190 l 262
 594 1160 578 1143 552 1143 c 262
 550 1143 l 262
 524 1143 509 1160 509 1190 c 262
 509 1298 l 261
 468 1186 l 262
 460 1162 451 1150 430 1150 c 262
 430 1150 l 262
 410 1150 399 1162 390 1186 c 262
 347 1298 l 261
EndSplineSet
EndChar

StartChar: uniF8E8
Encoding: 63720 63720 453
Width: 492
Flags: HW
LayerCount: 2
Fore
SplineSet
222 1275 m 261
 222 1219 l 261
 240 1219 l 262
 263 1219 268 1230 268 1246 c 262
 268 1247 l 262
 268 1261 263 1275 240 1275 c 262
 222 1275 l 261
258 1337 m 262
 331 1337 358 1304 358 1262 c 262
 358 1258 l 262
 358 1215 317 1189 258 1189 c 261
 258 1201 l 261
 322 1201 360 1195 360 1152 c 262
 360 1150 l 262
 360 1140 362 1133 364 1127 c 260
 366 1122 368 1114 368 1104 c 262
 368 1103 l 262
 368 1087 358 1080 332 1080 c 262
 326 1080 l 262
 298 1080 280 1085 273 1110 c 260
 271 1120 268 1129 268 1145 c 262
 268 1152 l 262
 268 1166 263 1173 244 1173 c 262
 222 1173 l 261
 222 1129 l 262
 222 1097 207 1080 179 1080 c 262
 177 1080 l 262
 149 1080 134 1097 134 1129 c 262
 134 1281 l 262
 134 1318 153 1337 190 1337 c 262
 258 1337 l 262
455 1207 m 4
 455 1092 361 999 246 999 c 4
 131 999 37 1092 37 1207 c 4
 37 1322 131 1417 246 1417 c 4
 361 1417 455 1322 455 1207 c 4
430 1207 m 4
 430 1309 348 1391 246 1391 c 4
 144 1391 62 1309 62 1207 c 4
 62 1105 144 1025 246 1025 c 4
 348 1025 430 1105 430 1207 c 4
EndSplineSet
EndChar

StartChar: uniF8E9
Encoding: 63721 63721 454
Width: 492
Flags: HW
LayerCount: 2
Fore
SplineSet
363 1159 m 260
 354 1117 320 1076 249 1076 c 260
 161 1076 124 1126 124 1194 c 262
 124 1223 l 262
 124 1291 161 1341 249 1341 c 260
 320 1341 344 1305 356 1274 c 260
 366 1249 351 1234 334 1234 c 262
 325 1234 l 262
 309 1234 300 1245 296 1256 c 260
 290 1270 277 1279 258 1279 c 260
 232 1279 214 1263 214 1225 c 262
 214 1192 l 262
 214 1152 230 1137 260 1137 c 260
 285 1137 292 1144 298 1165 c 260
 302 1177 313 1195 332 1195 c 262
 338 1195 l 262
 361 1195 367 1178 363 1159 c 260
455 1208 m 4
 455 1093 361 999 246 999 c 4
 131 999 37 1093 37 1208 c 4
 37 1323 131 1417 246 1417 c 4
 361 1417 455 1323 455 1208 c 4
429 1208 m 4
 429 1309 347 1391 246 1391 c 4
 145 1391 63 1309 63 1208 c 4
 63 1107 145 1025 246 1025 c 4
 347 1025 429 1107 429 1208 c 4
EndSplineSet
EndChar

StartChar: uni1E9E
Encoding: 7838 7838 457
Width: 611
VWidth: 1920
Flags: HW
LayerCount: 2
Fore
SplineSet
35 1063 m 2
 35 1295 103 1417 288 1417 c 0
 474 1417 533.254011789 1254.08521867 563 1165 c 0
 586.642068122 1094.1951979 581.498999549 1032.8384351 558 908 c 2
 526 738 l 1
 556 688 601 614 601 409 c 0
 601 102 540 -18 420 -18 c 0
 391 -18 367.372070312 -18 339 -2 c 0
 296.231445312 22.119140625 286 51 286 145 c 2
 286 148 l 2
 286 173 296.232421875 177.255859375 307 177 c 0
 313.322770548 176.849758218 317 174 323 174 c 0
 336 174 356 221 356 435 c 0
 356 553 346.949168999 605.679275261 335 628 c 0
 313.3203125 668.497070312 294.162368113 709.931418523 311 848 c 2
 336 1053 l 1
 321 1209 315 1246 297 1246 c 0
 283 1246 278 1219 278 1167 c 2
 278 105 l 2
 278 21 241 -15 157 -15 c 2
 155 -15 l 2
 71 -15 35 21 35 105 c 2
 35 1063 l 2
EndSplineSet
EndChar
